<svg width="24" height="28" viewBox="0 0 24 28" fill="none" xmlns="http://www.w3.org/2000/svg">
<g clip-path="url(#clip0_3434_33816)">
<path d="M16.0545 13.6887L14.339 22.6685H7.44132C7.2 22.6685 6.96166 22.6152 6.74332 22.5124C6.52498 22.4096 6.33202 22.2599 6.17823 22.0739C6.02445 21.8879 5.91362 21.6703 5.85367 21.4366C5.79372 21.2028 5.78612 20.9587 5.83143 20.7216L6.91976 15.0209C6.99138 14.646 7.19155 14.3078 7.48578 14.0646C7.78 13.8214 8.14984 13.6885 8.53156 13.6887H16.053L19.0248 0L13.3905 8.35719H6.20636C5.28275 8.35713 4.38803 8.67913 3.67628 9.26774C2.96452 9.85635 2.48029 10.6747 2.30697 11.5819L0.0718033 23.285C-0.395819 25.7306 1.47999 27.9996 3.97081 27.9996H18.5925L21.3276 13.6891L16.0545 13.6887Z" fill="#A1CF70"/>
<path d="M12.4444 20.2678H9.07608C8.98382 20.2678 8.89269 20.2474 8.8092 20.2082C8.72571 20.1689 8.65192 20.1117 8.5931 20.0406C8.53428 19.9695 8.49188 19.8863 8.46893 19.7969C8.44597 19.7076 8.44303 19.6142 8.46031 19.5236L9.01796 16.6032C9.04535 16.4599 9.12181 16.3307 9.2342 16.2377C9.34659 16.1447 9.48787 16.0938 9.63373 16.0938H13.2425L12.4444 20.2678Z" fill="#A1CF70"/>
<path d="M22.4277 11.7522H18.3008L19.0981 7.57812H23.2247L22.4277 11.7522Z" fill="#A1CF70"/>
</g>
<defs>
<clipPath id="clip0_3434_33816">
<rect width="23.2269" height="28" fill="white"/>
</clipPath>
</defs>
</svg>
