<svg width="342" height="327" viewBox="0 0 342 327" fill="none" xmlns="http://www.w3.org/2000/svg">
<g filter="url(#filter0_d_3434_33709)">
<rect x="12.1289" y="8.30078" width="316.959" height="302.595" rx="22.9819" fill="white" shape-rendering="crispEdges"/>
<path d="M30.7267 30.7035C30.5138 30.7035 30.3456 30.6451 30.222 30.5284C30.1053 30.4048 30.0469 30.2297 30.0469 30.0031V24.0606C30.0469 23.834 30.1053 23.6623 30.222 23.5456C30.3456 23.422 30.5207 23.3602 30.7473 23.3602H34.3417C34.5202 23.3602 34.6541 23.4048 34.7433 23.4941C34.8326 23.5834 34.8772 23.7104 34.8772 23.8752C34.8772 24.0468 34.8326 24.1807 34.7433 24.2768C34.6541 24.3661 34.5202 24.4107 34.3417 24.4107H31.3652V26.4602H34.1254C34.297 26.4602 34.4275 26.5049 34.5168 26.5941C34.6129 26.6834 34.6609 26.8104 34.6609 26.9752C34.6609 27.1469 34.6129 27.2807 34.5168 27.3769C34.4275 27.4661 34.297 27.5108 34.1254 27.5108H31.3652V30.0031C31.3652 30.47 31.1524 30.7035 30.7267 30.7035ZM35.8531 30.7035C35.6403 30.7035 35.4755 30.6486 35.3588 30.5387C35.2489 30.422 35.194 30.2572 35.194 30.0443V26.1513C35.194 25.9384 35.2489 25.7771 35.3588 25.6672C35.4686 25.5574 35.6231 25.5024 35.8222 25.5024C36.0214 25.5024 36.1759 25.5574 36.2857 25.6672C36.3956 25.7771 36.4505 25.9384 36.4505 26.1513V26.8001H36.3475C36.4436 26.3882 36.6324 26.0757 36.914 25.8629C37.1955 25.6501 37.5697 25.523 38.0366 25.4818C38.1807 25.4681 38.294 25.5059 38.3764 25.5951C38.4657 25.6775 38.5172 25.808 38.5309 25.9865C38.5446 26.1581 38.5035 26.2989 38.4073 26.4088C38.3181 26.5117 38.1807 26.5735 37.9954 26.5941L37.7688 26.6147C37.35 26.6559 37.0341 26.7864 36.8213 27.0061C36.6084 27.219 36.502 27.5211 36.502 27.9124V30.0443C36.502 30.2572 36.4471 30.422 36.3372 30.5387C36.2273 30.6486 36.066 30.7035 35.8531 30.7035ZM41.0314 30.7241C40.5096 30.7241 40.0564 30.6177 39.6719 30.4048C39.2874 30.192 38.9888 29.8899 38.7759 29.4985C38.5631 29.1003 38.4567 28.6334 38.4567 28.0978C38.4567 27.6927 38.515 27.3322 38.6317 27.0164C38.7553 26.6937 38.9304 26.4191 39.157 26.1925C39.3836 25.959 39.6548 25.7839 39.9706 25.6672C40.2865 25.5436 40.6401 25.4818 41.0314 25.4818C41.5533 25.4818 42.0064 25.5883 42.3909 25.8011C42.7754 26.014 43.0741 26.3161 43.2869 26.7074C43.4998 27.0988 43.6062 27.5623 43.6062 28.0978C43.6062 28.5029 43.5444 28.8668 43.4208 29.1895C43.3041 29.5122 43.1325 29.7903 42.9059 30.0237C42.6793 30.2503 42.4081 30.4254 42.0922 30.549C41.7764 30.6657 41.4228 30.7241 41.0314 30.7241ZM41.0314 29.7457C41.2855 29.7457 41.5086 29.6839 41.7009 29.5603C41.8931 29.4367 42.0407 29.2547 42.1437 29.0144C42.2536 28.7673 42.3085 28.4617 42.3085 28.0978C42.3085 27.5485 42.1918 27.14 41.9584 26.8722C41.7249 26.5976 41.4159 26.4602 41.0314 26.4602C40.7774 26.4602 40.5542 26.522 40.362 26.6456C40.1697 26.7624 40.0187 26.9443 39.9088 27.1915C39.8058 27.4318 39.7543 27.7339 39.7543 28.0978C39.7543 28.6402 39.8711 29.0522 40.1045 29.3337C40.338 29.6083 40.6469 29.7457 41.0314 29.7457ZM44.916 30.7035C44.71 30.7035 44.5521 30.6486 44.4422 30.5387C44.3324 30.422 44.2774 30.2572 44.2774 30.0443V26.1513C44.2774 25.9384 44.3324 25.7771 44.4422 25.6672C44.5521 25.5574 44.7066 25.5024 44.9057 25.5024C45.1048 25.5024 45.2593 25.5574 45.3691 25.6672C45.479 25.7771 45.5339 25.9384 45.5339 26.1513V26.9031L45.4206 26.5941C45.5579 26.2508 45.7708 25.9796 46.0592 25.7805C46.3475 25.5814 46.6908 25.4818 47.0891 25.4818C47.4942 25.4818 47.8272 25.578 48.0881 25.7702C48.349 25.9625 48.531 26.2577 48.6339 26.6559H48.4898C48.6271 26.292 48.8537 26.0071 49.1695 25.8011C49.4853 25.5883 49.8492 25.4818 50.2612 25.4818C50.6457 25.4818 50.9616 25.5574 51.2087 25.7084C51.4628 25.8595 51.6516 26.0895 51.7752 26.3985C51.8988 26.7006 51.9606 27.0851 51.9606 27.552V30.0443C51.9606 30.2572 51.9022 30.422 51.7855 30.5387C51.6756 30.6486 51.5177 30.7035 51.3117 30.7035C51.1057 30.7035 50.9478 30.6486 50.838 30.5387C50.7281 30.422 50.6732 30.2572 50.6732 30.0443V27.6035C50.6732 27.219 50.6079 26.9374 50.4775 26.7589C50.3539 26.5804 50.1411 26.4911 49.8389 26.4911C49.5025 26.4911 49.2382 26.6113 49.0459 26.8516C48.8537 27.0851 48.7575 27.4112 48.7575 27.83V30.0443C48.7575 30.2572 48.7026 30.422 48.5928 30.5387C48.4829 30.6486 48.325 30.7035 48.119 30.7035C47.913 30.7035 47.7517 30.6486 47.6349 30.5387C47.5251 30.422 47.4701 30.2572 47.4701 30.0443V27.6035C47.4701 27.219 47.4049 26.9374 47.2745 26.7589C47.1509 26.5804 46.9415 26.4911 46.6462 26.4911C46.3098 26.4911 46.0454 26.6113 45.8532 26.8516C45.6609 27.0851 45.5648 27.4112 45.5648 27.83V30.0443C45.5648 30.4838 45.3485 30.7035 44.916 30.7035Z" fill="black"/>
<g clip-path="url(#clip0_3434_33709)">
<rect x="29.2539" y="36.5078" width="281.754" height="114.026" rx="8.82782" fill="white"/>
<rect x="35.875" y="45.3359" width="267.777" height="41.1965" rx="5.88521" fill="#F5F5F5"/>
<g clip-path="url(#clip1_3434_33709)">
<path d="M56.4747 80.6487C64.6005 80.6487 71.1878 74.0615 71.1878 65.9357C71.1878 57.8099 64.6005 51.2227 56.4747 51.2227C48.349 51.2227 41.7617 57.8099 41.7617 65.9357C41.7617 74.0615 48.349 80.6487 56.4747 80.6487Z" fill="#F0F0F0"/>
<path d="M55.832 65.9359H71.1847C71.1847 64.6079 71.0077 63.3214 70.6779 62.0977H55.832V65.9359Z" fill="#D80027"/>
<path d="M55.832 58.2601H69.0252C68.1246 56.7904 66.973 55.4913 65.6303 54.4219H55.832V58.2601Z" fill="#D80027"/>
<path d="M56.475 80.6477C59.9377 80.6477 63.1204 79.4509 65.6337 77.4492H47.3164C49.8297 79.4509 53.0124 80.6477 56.475 80.6477Z" fill="#D80027"/>
<path d="M43.9183 73.6116H69.0253C69.7484 72.4318 70.3092 71.1421 70.678 69.7734H42.2656C42.6344 71.1421 43.1952 72.4318 43.9183 73.6116Z" fill="#D80027"/>
<path d="M48.5771 53.5203H49.9178L48.6707 54.4264L49.1471 55.8924L47.9 54.9864L46.6529 55.8924L47.0644 54.6259C45.9663 55.5406 45.0039 56.6122 44.2107 57.8063H44.6404L43.8465 58.383C43.7228 58.5893 43.6042 58.7989 43.4905 59.0117L43.8696 60.1784L43.1623 59.6645C42.9865 60.037 42.8257 60.4179 42.6812 60.8067L43.0988 62.0922H44.6404L43.3932 62.9983L43.8696 64.4644L42.6225 63.5583L41.8755 64.1011C41.8007 64.7021 41.7617 65.3143 41.7617 65.9357H56.4747C56.4747 57.81 56.4747 56.852 56.4747 51.2227C53.5682 51.2227 50.8588 52.0658 48.5771 53.5203ZM49.1471 64.4644L47.9 63.5583L46.6529 64.4644L47.1293 62.9983L45.8821 62.0922H47.4236L47.9 60.6262L48.3763 62.0922H49.9178L48.6707 62.9983L49.1471 64.4644ZM48.6707 58.7123L49.1471 60.1784L47.9 59.2723L46.6529 60.1784L47.1293 58.7123L45.8821 57.8063H47.4236L47.9 56.3402L48.3763 57.8063H49.9178L48.6707 58.7123ZM54.4246 64.4644L53.1775 63.5583L51.9304 64.4644L52.4068 62.9983L51.1596 62.0922H52.7011L53.1775 60.6262L53.6538 62.0922H55.1953L53.9482 62.9983L54.4246 64.4644ZM53.9482 58.7123L54.4246 60.1784L53.1775 59.2723L51.9304 60.1784L52.4068 58.7123L51.1596 57.8063H52.7011L53.1775 56.3402L53.6538 57.8063H55.1953L53.9482 58.7123ZM53.9482 54.4264L54.4246 55.8924L53.1775 54.9864L51.9304 55.8924L52.4068 54.4264L51.1596 53.5203H52.7011L53.1775 52.0542L53.6538 53.5203H55.1953L53.9482 54.4264Z" fill="#0052B4"/>
</g>
<path d="M86.7677 61.6264C86.2665 61.6264 85.8236 61.5612 85.4391 61.4307C85.0615 61.3003 84.7422 61.108 84.4813 60.854C84.2204 60.5931 84.0247 60.2704 83.8943 59.8859C83.7638 59.5014 83.6986 59.0551 83.6986 58.547V54.8496C83.6986 54.623 83.7535 54.4548 83.8634 54.345C83.9801 54.2351 84.1449 54.1802 84.3577 54.1802C84.5706 54.1802 84.7319 54.2351 84.8418 54.345C84.9585 54.4548 85.0169 54.623 85.0169 54.8496V58.5367C85.0169 59.189 85.1645 59.6799 85.4597 60.0095C85.7618 60.3322 86.1978 60.4935 86.7677 60.4935C87.3376 60.4935 87.7702 60.3322 88.0654 60.0095C88.3606 59.6799 88.5083 59.189 88.5083 58.5367V54.8496C88.5083 54.623 88.5632 54.4548 88.673 54.345C88.7898 54.2351 88.9546 54.1802 89.1674 54.1802C89.3734 54.1802 89.5313 54.2351 89.6412 54.345C89.7579 54.4548 89.8162 54.623 89.8162 54.8496V58.547C89.8162 59.2199 89.6995 59.7863 89.4661 60.2463C89.2395 60.7064 88.8996 61.0531 88.4465 61.2866C87.9933 61.5131 87.4337 61.6264 86.7677 61.6264ZM93.4444 61.6264C93.1423 61.6264 92.8402 61.6024 92.5381 61.5543C92.236 61.5131 91.9511 61.4479 91.6833 61.3587C91.4155 61.2625 91.1752 61.1458 90.9623 61.0085C90.8388 60.9261 90.7529 60.8265 90.7049 60.7098C90.6568 60.5931 90.6396 60.4798 90.6534 60.3699C90.674 60.2532 90.7186 60.1537 90.7873 60.0713C90.8628 59.982 90.9555 59.9271 91.0653 59.9065C91.1752 59.8859 91.2953 59.9168 91.4258 59.9992C91.7279 60.1777 92.0472 60.3081 92.3836 60.3905C92.7201 60.4729 93.0737 60.5141 93.4444 60.5141C93.9869 60.5141 94.3816 60.4249 94.6288 60.2463C94.876 60.061 94.9996 59.8241 94.9996 59.5357C94.9996 59.2954 94.9103 59.1066 94.7318 58.9693C94.5602 58.8319 94.2615 58.7186 93.8358 58.6294L92.7029 58.3925C92.0506 58.2552 91.5631 58.0252 91.2404 57.7025C90.9246 57.3729 90.7667 56.9403 90.7667 56.4048C90.7667 56.0683 90.8353 55.7628 90.9726 55.4882C91.11 55.2135 91.3022 54.9766 91.5494 54.7775C91.8034 54.5784 92.1021 54.4273 92.4454 54.3244C92.7956 54.2145 93.1801 54.1596 93.5989 54.1596C94.0109 54.1596 94.4022 54.2111 94.773 54.3141C95.1438 54.417 95.4768 54.5681 95.772 54.7672C95.8819 54.8427 95.954 54.9354 95.9883 55.0453C96.0295 55.1551 96.0398 55.265 96.0192 55.3749C95.9986 55.4779 95.9505 55.5671 95.875 55.6426C95.7995 55.7182 95.7034 55.7628 95.5866 55.7765C95.4768 55.7903 95.3498 55.7559 95.2056 55.6735C94.9515 55.5294 94.6941 55.4264 94.4331 55.3646C94.1722 55.3028 93.8907 55.2719 93.5886 55.2719C93.2728 55.2719 93.0016 55.3165 92.775 55.4058C92.5484 55.495 92.3733 55.622 92.2497 55.7868C92.133 55.9447 92.0746 56.1336 92.0746 56.3533C92.0746 56.6005 92.157 56.7996 92.3218 56.9506C92.4866 57.0948 92.7681 57.2081 93.1664 57.2905L94.289 57.5274C94.9687 57.6716 95.4734 57.8981 95.8029 58.2071C96.1394 58.5161 96.3076 58.9281 96.3076 59.443C96.3076 59.7726 96.2389 60.0713 96.1016 60.339C95.9711 60.6068 95.7789 60.8368 95.5249 61.0291C95.2777 61.2213 94.979 61.369 94.6288 61.4719C94.2787 61.5749 93.8839 61.6264 93.4444 61.6264ZM97.7274 61.5234C97.5008 61.5234 97.3257 61.4651 97.2022 61.3484C97.0854 61.2248 97.0271 61.0497 97.0271 60.8231V54.9629C97.0271 54.7363 97.0854 54.5647 97.2022 54.4479C97.3257 54.3244 97.5008 54.2626 97.7274 54.2626H99.7254C100.941 54.2626 101.878 54.575 102.537 55.1998C103.203 55.8246 103.536 56.7206 103.536 57.8878C103.536 58.4715 103.45 58.9899 103.279 59.443C103.114 59.8893 102.867 60.2669 102.537 60.5759C102.214 60.8849 101.816 61.1218 101.342 61.2866C100.876 61.4445 100.337 61.5234 99.7254 61.5234H97.7274ZM98.3454 60.4317H99.6431C100.069 60.4317 100.436 60.3802 100.745 60.2772C101.061 60.1674 101.322 60.0095 101.528 59.8035C101.741 59.5906 101.899 59.3263 102.002 59.0105C102.105 58.6877 102.156 58.3135 102.156 57.8878C102.156 57.0365 101.947 56.4013 101.528 55.9825C101.109 55.5637 100.481 55.3543 99.6431 55.3543H98.3454V60.4317ZM108.667 61.6058C108.496 61.6058 108.348 61.5646 108.224 61.4822C108.101 61.393 108.001 61.2557 107.926 61.0703L106.432 57.2596C106.37 57.0948 106.35 56.9506 106.37 56.827C106.398 56.6966 106.463 56.5936 106.566 56.5181C106.669 56.4425 106.806 56.4048 106.978 56.4048C107.129 56.4048 107.253 56.4425 107.349 56.5181C107.445 56.5867 107.527 56.7206 107.596 56.9197L108.842 60.3493H108.605L109.893 56.8373C109.948 56.6863 110.02 56.5764 110.109 56.5078C110.205 56.4391 110.329 56.4048 110.48 56.4048C110.631 56.4048 110.754 56.4425 110.851 56.5181C110.947 56.5867 111.019 56.6932 111.067 56.8373L112.334 60.3493H112.117L113.374 56.8888C113.443 56.7035 113.528 56.5764 113.631 56.5078C113.741 56.4391 113.861 56.4048 113.992 56.4048C114.157 56.4048 114.284 56.446 114.373 56.5284C114.462 56.6108 114.514 56.7172 114.527 56.8476C114.541 56.9712 114.517 57.1085 114.455 57.2596L112.972 61.0703C112.904 61.2488 112.804 61.3827 112.674 61.4719C112.55 61.5612 112.402 61.6058 112.231 61.6058C112.059 61.6058 111.908 61.5612 111.778 61.4719C111.654 61.3827 111.558 61.2488 111.489 61.0703L110.14 57.4965H110.727L109.409 61.06C109.34 61.2454 109.244 61.3827 109.12 61.4719C108.997 61.5612 108.846 61.6058 108.667 61.6058ZM116.647 61.6264C116.283 61.6264 115.957 61.5578 115.668 61.4204C115.387 61.2763 115.164 61.084 114.999 60.8437C114.841 60.6034 114.762 60.3322 114.762 60.0301C114.762 59.6593 114.858 59.3675 115.05 59.1546C115.243 58.9349 115.555 58.777 115.988 58.6809C116.42 58.5848 117 58.5367 117.728 58.5367H118.243V59.2782H117.738C117.313 59.2782 116.973 59.2988 116.719 59.34C116.465 59.3812 116.283 59.4533 116.173 59.5563C116.07 59.6524 116.018 59.7898 116.018 59.9683C116.018 60.1949 116.097 60.3802 116.255 60.5244C116.413 60.6686 116.633 60.7407 116.914 60.7407C117.141 60.7407 117.34 60.6892 117.512 60.5862C117.69 60.4764 117.831 60.3287 117.934 60.1434C118.037 59.958 118.089 59.7451 118.089 59.5048V58.3204C118.089 57.9771 118.013 57.7299 117.862 57.5789C117.711 57.4278 117.457 57.3523 117.1 57.3523C116.901 57.3523 116.684 57.3763 116.451 57.4244C116.224 57.4725 115.984 57.5548 115.73 57.6716C115.6 57.7334 115.483 57.7505 115.38 57.7231C115.284 57.6956 115.208 57.6407 115.153 57.5583C115.098 57.469 115.071 57.3729 115.071 57.2699C115.071 57.1669 115.098 57.0674 115.153 56.9712C115.208 56.8682 115.301 56.7927 115.431 56.7446C115.747 56.6142 116.049 56.5215 116.338 56.4666C116.633 56.4116 116.901 56.3842 117.141 56.3842C117.635 56.3842 118.04 56.4597 118.356 56.6108C118.679 56.7618 118.919 56.9918 119.077 57.3008C119.235 57.6029 119.314 57.9943 119.314 58.4749V60.9467C119.314 61.1595 119.263 61.3243 119.16 61.441C119.057 61.5509 118.909 61.6058 118.717 61.6058C118.525 61.6058 118.373 61.5509 118.264 61.441C118.161 61.3243 118.109 61.1595 118.109 60.9467V60.4523H118.192C118.143 60.6926 118.047 60.9021 117.903 61.0806C117.766 61.2522 117.591 61.3861 117.378 61.4822C117.165 61.5784 116.921 61.6264 116.647 61.6264ZM121.929 61.6264C121.359 61.6264 120.93 61.4651 120.641 61.1424C120.353 60.8128 120.209 60.3322 120.209 59.7005V54.829C120.209 54.6162 120.264 54.4548 120.374 54.345C120.484 54.2351 120.641 54.1802 120.847 54.1802C121.053 54.1802 121.211 54.2351 121.321 54.345C121.438 54.4548 121.496 54.6162 121.496 54.829V59.6387C121.496 59.9545 121.561 60.188 121.692 60.339C121.829 60.4901 122.022 60.5656 122.269 60.5656C122.324 60.5656 122.375 60.5656 122.423 60.5656C122.471 60.5588 122.519 60.5519 122.567 60.545C122.663 60.5313 122.729 60.5588 122.763 60.6274C122.797 60.6892 122.815 60.8197 122.815 61.0188C122.815 61.1904 122.78 61.3243 122.712 61.4204C122.643 61.5166 122.53 61.5749 122.372 61.5955C122.303 61.6024 122.231 61.6093 122.155 61.6161C122.08 61.623 122.004 61.6264 121.929 61.6264ZM124.806 61.6264C124.236 61.6264 123.807 61.4651 123.518 61.1424C123.23 60.8128 123.086 60.3322 123.086 59.7005V54.829C123.086 54.6162 123.141 54.4548 123.251 54.345C123.36 54.2351 123.518 54.1802 123.724 54.1802C123.93 54.1802 124.088 54.2351 124.198 54.345C124.315 54.4548 124.373 54.6162 124.373 54.829V59.6387C124.373 59.9545 124.438 60.188 124.569 60.339C124.706 60.4901 124.898 60.5656 125.146 60.5656C125.201 60.5656 125.252 60.5656 125.3 60.5656C125.348 60.5588 125.396 60.5519 125.444 60.545C125.54 60.5313 125.606 60.5588 125.64 60.6274C125.674 60.6892 125.691 60.8197 125.691 61.0188C125.691 61.1904 125.657 61.3243 125.588 61.4204C125.52 61.5166 125.407 61.5749 125.249 61.5955C125.18 61.6024 125.108 61.6093 125.032 61.6161C124.957 61.623 124.881 61.6264 124.806 61.6264ZM128.394 61.6264C127.825 61.6264 127.334 61.52 126.922 61.3072C126.51 61.0943 126.19 60.7922 125.964 60.4008C125.744 60.0095 125.634 59.546 125.634 59.0105C125.634 58.4886 125.741 58.032 125.954 57.6407C126.173 57.2493 126.472 56.9438 126.85 56.724C127.234 56.4975 127.67 56.3842 128.158 56.3842C128.515 56.3842 128.834 56.4425 129.115 56.5593C129.404 56.676 129.648 56.8442 129.847 57.0639C130.053 57.2836 130.207 57.5514 130.31 57.8673C130.42 58.1762 130.475 58.5264 130.475 58.9178C130.475 59.0413 130.43 59.1375 130.341 59.2061C130.259 59.2679 130.138 59.2988 129.981 59.2988H126.675V58.5573H129.569L129.404 58.7118C129.404 58.3959 129.356 58.1316 129.26 57.9187C129.17 57.7059 129.036 57.5445 128.858 57.4347C128.686 57.318 128.47 57.2596 128.209 57.2596C127.921 57.2596 127.674 57.3283 127.468 57.4656C127.268 57.596 127.114 57.7849 127.004 58.032C126.901 58.2723 126.85 58.5607 126.85 58.8972V58.9693C126.85 59.5323 126.98 59.9545 127.241 60.236C127.509 60.5107 127.9 60.648 128.415 60.648C128.594 60.648 128.793 60.6274 129.012 60.5862C129.239 60.5382 129.452 60.4592 129.651 60.3493C129.795 60.2669 129.922 60.2326 130.032 60.2463C130.142 60.2532 130.228 60.291 130.29 60.3596C130.358 60.4283 130.399 60.5141 130.413 60.6171C130.427 60.7132 130.406 60.8128 130.351 60.9158C130.303 61.0188 130.217 61.108 130.094 61.1836C129.854 61.3346 129.575 61.4479 129.26 61.5234C128.951 61.5921 128.662 61.6264 128.394 61.6264ZM133.369 61.6264C132.923 61.6264 132.549 61.5509 132.247 61.3998C131.952 61.2488 131.732 61.0291 131.588 60.7407C131.443 60.4455 131.371 60.0816 131.371 59.649V57.4553H130.836C130.671 57.4553 130.544 57.4141 130.455 57.3317C130.365 57.2424 130.321 57.1223 130.321 56.9712C130.321 56.8133 130.365 56.6932 130.455 56.6108C130.544 56.5284 130.671 56.4872 130.836 56.4872H131.371V55.5499C131.371 55.3371 131.426 55.1757 131.536 55.0659C131.653 54.956 131.814 54.9011 132.02 54.9011C132.226 54.9011 132.384 54.956 132.494 55.0659C132.604 55.1757 132.659 55.3371 132.659 55.5499V56.4872H133.75C133.915 56.4872 134.042 56.5284 134.131 56.6108C134.221 56.6932 134.265 56.8133 134.265 56.9712C134.265 57.1223 134.221 57.2424 134.131 57.3317C134.042 57.4141 133.915 57.4553 133.75 57.4553H132.659V59.5769C132.659 59.9065 132.731 60.1537 132.875 60.3184C133.019 60.4832 133.253 60.5656 133.575 60.5656C133.692 60.5656 133.795 60.5553 133.884 60.5347C133.974 60.5141 134.053 60.5004 134.121 60.4935C134.204 60.4867 134.272 60.5141 134.327 60.5759C134.382 60.6308 134.41 60.7476 134.41 60.9261C134.41 61.0634 134.386 61.187 134.337 61.2969C134.296 61.3998 134.217 61.4719 134.101 61.5131C134.011 61.5406 133.895 61.5646 133.75 61.5852C133.606 61.6127 133.479 61.6264 133.369 61.6264Z" fill="black"/>
<path d="M86.1498 78.6081C86.0399 78.6081 85.9472 78.5703 85.8717 78.4948C85.7962 78.4192 85.7584 78.3265 85.7584 78.2167V77.2177L85.9541 77.4031C85.4734 77.3962 85.0375 77.331 84.6461 77.2074C84.2547 77.0838 83.9286 76.9293 83.6677 76.7439C83.5784 76.6821 83.5166 76.61 83.4823 76.5276C83.448 76.4384 83.4377 76.3525 83.4514 76.2702C83.4651 76.1809 83.4995 76.1054 83.5544 76.0436C83.6162 75.9818 83.6883 75.944 83.7707 75.9303C83.8531 75.9166 83.9492 75.944 84.059 76.0127C84.2788 76.1637 84.5465 76.2976 84.8624 76.4143C85.1851 76.5242 85.5833 76.5791 86.0571 76.5791C86.4347 76.5791 86.7471 76.5311 86.9943 76.4349C87.2415 76.3319 87.4234 76.1912 87.5401 76.0127C87.6637 75.8342 87.7255 75.6316 87.7255 75.405C87.7255 75.2128 87.6809 75.048 87.5916 74.9107C87.5092 74.7733 87.3754 74.6566 87.19 74.5605C87.0046 74.4644 86.7574 74.3854 86.4484 74.3236L85.3979 74.097C84.78 73.9597 84.3165 73.7366 84.0075 73.4276C83.7054 73.1118 83.5544 72.6964 83.5544 72.1814C83.5544 71.7832 83.6505 71.4261 83.8428 71.1103C84.0419 70.7945 84.3165 70.5438 84.6667 70.3585C85.0237 70.1731 85.4357 70.0701 85.9026 70.0495L85.7584 70.1937V69.2256C85.7584 69.1157 85.7962 69.023 85.8717 68.9475C85.9472 68.872 86.0399 68.8342 86.1498 68.8342C86.2596 68.8342 86.3523 68.872 86.4278 68.9475C86.5034 69.023 86.5411 69.1157 86.5411 69.2256V70.1937L86.3763 70.0495C86.699 70.0564 87.0389 70.125 87.396 70.2555C87.753 70.3791 88.0585 70.5541 88.3126 70.7807C88.3881 70.8425 88.4362 70.9146 88.4568 70.997C88.4842 71.0794 88.4842 71.1584 88.4568 71.2339C88.4362 71.3094 88.395 71.3712 88.3332 71.4193C88.2782 71.4673 88.2061 71.4948 88.1169 71.5017C88.0345 71.5017 87.9418 71.4673 87.8388 71.3987C87.6122 71.2339 87.3616 71.1034 87.087 71.0073C86.8192 70.9112 86.4965 70.8631 86.1189 70.8631C85.6245 70.8631 85.2297 70.9833 84.9345 71.2236C84.6461 71.457 84.5019 71.766 84.5019 72.1505C84.5019 72.4526 84.5912 72.6929 84.7697 72.8714C84.9551 73.0431 85.2537 73.1736 85.6657 73.2628L86.7368 73.4997C87.396 73.637 87.8834 73.8567 88.1993 74.1588C88.5151 74.4541 88.673 74.8523 88.673 75.3535C88.673 75.7449 88.5735 76.0882 88.3744 76.3834C88.1821 76.6787 87.9109 76.9121 87.5607 77.0838C87.2174 77.2554 86.8192 77.3584 86.366 77.3928L86.5411 77.2074V78.2167C86.5411 78.3265 86.5034 78.4192 86.4278 78.4948C86.3592 78.5703 86.2665 78.6081 86.1498 78.6081ZM90.3169 77.3516C90.1864 77.3516 90.0834 77.3138 90.0079 77.2383C89.9324 77.1627 89.8946 77.0632 89.8946 76.9396C89.8946 76.8091 89.9324 76.7096 90.0079 76.6409C90.0834 76.5723 90.1864 76.5379 90.3169 76.5379H91.6146V70.8837H92.1089L90.6053 71.8518C90.5091 71.9136 90.4164 71.9411 90.3272 71.9342C90.2448 71.9205 90.1727 71.8862 90.1109 71.8312C90.0491 71.7694 90.0079 71.6973 89.9873 71.615C89.9667 71.5326 89.9701 71.4502 89.9976 71.3678C90.0319 71.2785 90.1006 71.2064 90.2036 71.1515L91.6249 70.2246C91.7279 70.1628 91.824 70.1147 91.9132 70.0804C92.0094 70.0392 92.1021 70.0186 92.1913 70.0186C92.2943 70.0186 92.3836 70.0495 92.4591 70.1113C92.5346 70.1731 92.5724 70.2726 92.5724 70.41V76.5379H93.7671C93.9044 76.5379 94.0074 76.5723 94.0761 76.6409C94.1516 76.7096 94.1893 76.8091 94.1893 76.9396C94.1893 77.0701 94.1516 77.173 94.0761 77.2486C94.0074 77.3172 93.9044 77.3516 93.7671 77.3516H90.3169ZM95.792 78.3609C95.7233 78.4501 95.6478 78.5016 95.5654 78.5154C95.4899 78.5291 95.4212 78.5154 95.3594 78.4742C95.3045 78.433 95.2736 78.3712 95.2667 78.2888C95.2599 78.2064 95.2942 78.1171 95.3697 78.021C95.4864 77.87 95.5654 77.7189 95.6066 77.5678C95.6547 77.4168 95.6787 77.276 95.6787 77.1456L95.7199 77.3928C95.5276 77.3928 95.3697 77.3378 95.2461 77.228C95.1294 77.1112 95.071 76.9602 95.071 76.7748C95.071 76.5963 95.126 76.4521 95.2358 76.3422C95.3457 76.2324 95.4933 76.1775 95.6787 76.1775C95.8641 76.1775 96.0117 76.2427 96.1216 76.3731C96.2383 76.4967 96.2966 76.6821 96.2966 76.9293C96.2966 77.0735 96.2795 77.2245 96.2451 77.3825C96.2177 77.5472 96.1696 77.712 96.101 77.8768C96.0323 78.0416 95.9293 78.203 95.792 78.3609ZM97.8147 77.3516C97.6499 77.3516 97.5263 77.3138 97.4439 77.2383C97.3684 77.1559 97.3307 77.046 97.3307 76.9087C97.3307 76.8263 97.3513 76.7439 97.3925 76.6615C97.4336 76.5791 97.4954 76.4967 97.5778 76.4143L99.8333 73.994C100.177 73.6301 100.424 73.2937 100.575 72.9847C100.726 72.6758 100.801 72.3634 100.801 72.0475C100.801 71.6493 100.678 71.3472 100.431 71.1412C100.19 70.9283 99.8368 70.8219 99.3699 70.8219C99.0815 70.8219 98.8034 70.87 98.5357 70.9661C98.2747 71.0554 98.0173 71.1961 97.7632 71.3884C97.6671 71.457 97.5778 71.4879 97.4954 71.4811C97.4131 71.4742 97.341 71.4433 97.2792 71.3884C97.2242 71.3266 97.183 71.2579 97.1556 71.1824C97.135 71.1 97.1384 71.0142 97.1659 70.9249C97.1933 70.8357 97.2517 70.7601 97.341 70.6983C97.6225 70.4786 97.9486 70.307 98.3194 70.1834C98.6901 70.0598 99.0712 69.998 99.4626 69.998C99.9569 69.998 100.372 70.077 100.709 70.2349C101.052 70.3859 101.313 70.6091 101.492 70.9043C101.67 71.1927 101.759 71.5463 101.759 71.9651C101.759 72.2535 101.711 72.5384 101.615 72.82C101.519 73.0946 101.375 73.3761 101.183 73.6645C100.997 73.9529 100.757 74.2515 100.462 74.5605L98.3194 76.816V76.5379H101.697C101.835 76.5379 101.938 76.5723 102.006 76.6409C102.082 76.7096 102.12 76.8091 102.12 76.9396C102.12 77.0701 102.082 77.173 102.006 77.2486C101.938 77.3172 101.835 77.3516 101.697 77.3516H97.8147ZM105.329 77.4443C104.491 77.4443 103.853 77.125 103.413 76.4864C102.981 75.841 102.765 74.9175 102.765 73.716C102.765 72.8989 102.861 72.2157 103.053 71.6664C103.252 71.1172 103.54 70.7018 103.918 70.4203C104.303 70.1387 104.773 69.998 105.329 69.998C106.174 69.998 106.812 70.3138 107.245 70.9455C107.677 71.5703 107.894 72.4904 107.894 73.7057C107.894 74.509 107.794 75.1887 107.595 75.7449C107.403 76.3011 107.118 76.7233 106.74 77.0117C106.362 77.3001 105.892 77.4443 105.329 77.4443ZM105.329 76.6306C105.878 76.6306 106.287 76.3937 106.555 75.92C106.822 75.4462 106.956 74.7081 106.956 73.7057C106.956 72.7032 106.822 71.972 106.555 71.512C106.294 71.0451 105.885 70.8116 105.329 70.8116C104.78 70.8116 104.371 71.0451 104.103 71.512C103.836 71.972 103.702 72.7032 103.702 73.7057C103.702 74.7081 103.836 75.4462 104.103 75.92C104.371 76.3937 104.78 76.6306 105.329 76.6306ZM111.093 77.4443C110.255 77.4443 109.616 77.125 109.177 76.4864C108.744 75.841 108.528 74.9175 108.528 73.716C108.528 72.8989 108.624 72.2157 108.816 71.6664C109.016 71.1172 109.304 70.7018 109.682 70.4203C110.066 70.1387 110.536 69.998 111.093 69.998C111.937 69.998 112.576 70.3138 113.008 70.9455C113.441 71.5703 113.657 72.4904 113.657 73.7057C113.657 74.509 113.557 75.1887 113.358 75.7449C113.166 76.3011 112.881 76.7233 112.504 77.0117C112.126 77.3001 111.656 77.4443 111.093 77.4443ZM111.093 76.6306C111.642 76.6306 112.05 76.3937 112.318 75.92C112.586 75.4462 112.72 74.7081 112.72 73.7057C112.72 72.7032 112.586 71.972 112.318 71.512C112.057 71.0451 111.649 70.8116 111.093 70.8116C110.543 70.8116 110.135 71.0451 109.867 71.512C109.599 71.972 109.465 72.7032 109.465 73.7057C109.465 74.7081 109.599 75.4462 109.867 75.92C110.135 76.3937 110.543 76.6306 111.093 76.6306Z" fill="#646464"/>
<path d="M295.5 64.5823L290.902 69.1801C290.838 69.2444 290.762 69.2954 290.678 69.3302C290.594 69.3651 290.504 69.383 290.414 69.383C290.323 69.383 290.233 69.3651 290.149 69.3302C290.065 69.2954 289.989 69.2444 289.925 69.1801L285.327 64.5823C285.198 64.4527 285.125 64.277 285.125 64.0938C285.125 63.9106 285.198 63.7348 285.327 63.6053C285.457 63.4757 285.633 63.4029 285.816 63.4029C285.999 63.4029 286.175 63.4757 286.304 63.6053L290.414 67.7151L294.524 63.6047C294.654 63.4751 294.829 63.4023 295.013 63.4023C295.196 63.4023 295.372 63.4751 295.501 63.6047C295.631 63.7343 295.704 63.91 295.704 64.0932C295.704 64.2764 295.631 64.4522 295.501 64.5817L295.5 64.5823Z" fill="black"/>
<path d="M43.4715 126.274C43.2586 126.274 43.0939 126.215 42.9771 126.099C42.8673 125.975 42.8123 125.803 42.8123 125.584V122.453L43.0904 123.246L40.6083 119.754C40.5191 119.631 40.4779 119.5 40.4847 119.363C40.4985 119.219 40.5568 119.099 40.6598 119.003C40.7628 118.9 40.907 118.848 41.0924 118.848C41.2297 118.848 41.3533 118.882 41.4632 118.951C41.5799 119.02 41.6897 119.126 41.7927 119.27L43.6363 121.886H43.3479L45.2017 119.27C45.3116 119.119 45.418 119.013 45.521 118.951C45.624 118.882 45.751 118.848 45.9021 118.848C46.0806 118.848 46.2179 118.896 46.314 118.992C46.417 119.082 46.4685 119.195 46.4685 119.332C46.4754 119.47 46.4273 119.614 46.3243 119.765L43.8629 123.246L44.1306 122.453V125.584C44.1306 126.044 43.9109 126.274 43.4715 126.274ZM48.3549 126.294C47.8331 126.294 47.3799 126.188 46.9954 125.975C46.6109 125.762 46.3122 125.46 46.0994 125.069C45.8865 124.671 45.7801 124.204 45.7801 123.668C45.7801 123.263 45.8385 122.903 45.9552 122.587C46.0788 122.264 46.2539 121.989 46.4804 121.763C46.707 121.529 46.9782 121.354 47.2941 121.238C47.6099 121.114 47.9635 121.052 48.3549 121.052C48.8767 121.052 49.3299 121.159 49.7144 121.371C50.0989 121.584 50.3975 121.886 50.6104 122.278C50.8232 122.669 50.9297 123.133 50.9297 123.668C50.9297 124.073 50.8679 124.437 50.7443 124.76C50.6276 125.083 50.4559 125.361 50.2293 125.594C50.0027 125.821 49.7315 125.996 49.4157 126.119C49.0999 126.236 48.7462 126.294 48.3549 126.294ZM48.3549 125.316C48.6089 125.316 48.8321 125.254 49.0243 125.131C49.2166 125.007 49.3642 124.825 49.4672 124.585C49.577 124.338 49.632 124.032 49.632 123.668C49.632 123.119 49.5152 122.71 49.2818 122.443C49.0484 122.168 48.7394 122.031 48.3549 122.031C48.1008 122.031 47.8777 122.092 47.6854 122.216C47.4932 122.333 47.3421 122.515 47.2323 122.762C47.1293 123.002 47.0778 123.304 47.0778 123.668C47.0778 124.211 47.1945 124.623 47.428 124.904C47.6614 125.179 47.9704 125.316 48.3549 125.316ZM53.4032 126.294C52.9844 126.294 52.6377 126.219 52.363 126.068C52.0884 125.91 51.8824 125.676 51.7451 125.367C51.6146 125.059 51.5494 124.674 51.5494 124.214V121.722C51.5494 121.502 51.6043 121.341 51.7142 121.238C51.824 121.128 51.9819 121.073 52.1879 121.073C52.3939 121.073 52.5518 121.128 52.6617 121.238C52.7784 121.341 52.8368 121.502 52.8368 121.722V124.235C52.8368 124.592 52.9089 124.856 53.053 125.028C53.1972 125.199 53.4273 125.285 53.7431 125.285C54.0864 125.285 54.3679 125.168 54.5876 124.935C54.8073 124.695 54.9172 124.379 54.9172 123.987V121.722C54.9172 121.502 54.9721 121.341 55.082 121.238C55.1918 121.128 55.3498 121.073 55.5557 121.073C55.7617 121.073 55.9196 121.128 56.0295 121.238C56.1462 121.341 56.2046 121.502 56.2046 121.722V125.615C56.2046 126.054 55.9952 126.274 55.5763 126.274C55.3772 126.274 55.2227 126.219 55.1129 126.109C55.003 125.992 54.9481 125.828 54.9481 125.615V124.832L55.0923 125.141C54.9481 125.512 54.7284 125.797 54.4331 125.996C54.1448 126.195 53.8015 126.294 53.4032 126.294ZM61.3602 126.294C61.0649 126.294 60.7525 126.264 60.423 126.202C60.0934 126.14 59.7981 126.033 59.5372 125.882C59.4274 125.814 59.3484 125.735 59.3003 125.646C59.2592 125.549 59.242 125.457 59.2489 125.367C59.2626 125.271 59.2969 125.189 59.3518 125.12C59.4136 125.052 59.4892 125.007 59.5784 124.986C59.6745 124.966 59.7775 124.983 59.8874 125.038C60.162 125.168 60.4195 125.261 60.6598 125.316C60.9001 125.364 61.137 125.388 61.3705 125.388C61.7 125.388 61.9438 125.333 62.1017 125.223C62.2665 125.107 62.3489 124.956 62.3489 124.77C62.3489 124.612 62.294 124.492 62.1841 124.41C62.0811 124.32 61.9232 124.255 61.7103 124.214L60.6804 124.018C60.2547 123.936 59.9286 123.781 59.702 123.555C59.4823 123.321 59.3724 123.023 59.3724 122.659C59.3724 122.329 59.4617 122.044 59.6402 121.804C59.8256 121.564 60.0796 121.378 60.4024 121.248C60.7251 121.117 61.0958 121.052 61.5147 121.052C61.8168 121.052 62.0983 121.086 62.3592 121.155C62.627 121.217 62.8844 121.316 63.1316 121.454C63.2346 121.509 63.3033 121.581 63.3376 121.67C63.3788 121.759 63.3891 121.852 63.3685 121.948C63.3479 122.037 63.3067 122.12 63.2449 122.195C63.1831 122.264 63.1042 122.309 63.008 122.329C62.9188 122.343 62.8158 122.322 62.6991 122.267C62.4862 122.158 62.2802 122.079 62.0811 122.031C61.8889 121.982 61.7035 121.958 61.525 121.958C61.1885 121.958 60.9379 122.017 60.7731 122.134C60.6152 122.25 60.5362 122.405 60.5362 122.597C60.5362 122.741 60.5843 122.861 60.6804 122.957C60.7766 123.054 60.9242 123.119 61.1233 123.153L62.1532 123.349C62.5995 123.431 62.9359 123.582 63.1625 123.802C63.396 124.022 63.5127 124.317 63.5127 124.688C63.5127 125.189 63.317 125.584 62.9256 125.872C62.5343 126.154 62.0124 126.294 61.3602 126.294ZM66.6156 126.294C66.0457 126.294 65.5548 126.188 65.1428 125.975C64.7309 125.762 64.4116 125.46 64.185 125.069C63.9653 124.677 63.8555 124.214 63.8555 123.678C63.8555 123.157 63.9619 122.7 64.1747 122.309C64.3944 121.917 64.6931 121.612 65.0708 121.392C65.4553 121.165 65.8912 121.052 66.3787 121.052C66.7358 121.052 67.055 121.111 67.3366 121.227C67.6249 121.344 67.8687 121.512 68.0678 121.732C68.2738 121.952 68.4283 122.219 68.5313 122.535C68.6411 122.844 68.696 123.194 68.696 123.586C68.696 123.709 68.6514 123.805 68.5622 123.874C68.4798 123.936 68.3596 123.967 68.2017 123.967H64.8957V123.225H67.7897L67.6249 123.38C67.6249 123.064 67.5769 122.8 67.4807 122.587C67.3915 122.374 67.2576 122.213 67.0791 122.103C66.9074 121.986 66.6911 121.928 66.4302 121.928C66.1419 121.928 65.8947 121.996 65.6887 122.134C65.4896 122.264 65.3351 122.453 65.2252 122.7C65.1222 122.94 65.0708 123.229 65.0708 123.565V123.637C65.0708 124.2 65.2012 124.623 65.4621 124.904C65.7299 125.179 66.1213 125.316 66.6362 125.316C66.8147 125.316 67.0139 125.295 67.2336 125.254C67.4601 125.206 67.673 125.127 67.8721 125.017C68.0163 124.935 68.1433 124.901 68.2532 124.914C68.363 124.921 68.4489 124.959 68.5107 125.028C68.5793 125.096 68.6205 125.182 68.6342 125.285C68.648 125.381 68.6274 125.481 68.5725 125.584C68.5244 125.687 68.4386 125.776 68.315 125.852C68.0747 126.003 67.7966 126.116 67.4807 126.191C67.1718 126.26 66.8834 126.294 66.6156 126.294ZM69.9422 126.274C69.7362 126.274 69.5783 126.219 69.4684 126.109C69.3585 125.992 69.3036 125.828 69.3036 125.615V121.722C69.3036 121.509 69.3585 121.347 69.4684 121.238C69.5783 121.128 69.7327 121.073 69.9319 121.073C70.131 121.073 70.2855 121.128 70.3953 121.238C70.5052 121.347 70.5601 121.509 70.5601 121.722V122.422L70.4468 122.164C70.5979 121.801 70.8313 121.526 71.1472 121.341C71.4699 121.148 71.8338 121.052 72.2389 121.052C72.644 121.052 72.977 121.128 73.2379 121.279C73.4988 121.43 73.6945 121.66 73.8249 121.969C73.9554 122.271 74.0206 122.655 74.0206 123.122V125.615C74.0206 125.828 73.9657 125.992 73.8558 126.109C73.746 126.219 73.588 126.274 73.3821 126.274C73.1761 126.274 73.0147 126.219 72.898 126.109C72.7881 125.992 72.7332 125.828 72.7332 125.615V123.184C72.7332 122.793 72.6577 122.508 72.5066 122.329C72.3624 122.151 72.1359 122.061 71.8269 122.061C71.4493 122.061 71.1472 122.182 70.9206 122.422C70.7009 122.655 70.591 122.968 70.591 123.359V125.615C70.591 126.054 70.3747 126.274 69.9422 126.274ZM76.8525 126.294C76.413 126.294 76.0251 126.188 75.6887 125.975C75.3591 125.762 75.1016 125.46 74.9162 125.069C74.7308 124.671 74.6382 124.204 74.6382 123.668C74.6382 123.126 74.7308 122.662 74.9162 122.278C75.1016 121.886 75.3591 121.584 75.6887 121.371C76.0251 121.159 76.413 121.052 76.8525 121.052C77.2713 121.052 77.6352 121.155 77.9442 121.361C78.26 121.567 78.4729 121.838 78.5827 122.175H78.4694V119.497C78.4694 119.284 78.5244 119.123 78.6342 119.013C78.7441 118.903 78.902 118.848 79.108 118.848C79.314 118.848 79.4719 118.903 79.5817 119.013C79.6985 119.123 79.7568 119.284 79.7568 119.497V125.615C79.7568 125.828 79.7019 125.992 79.592 126.109C79.4822 126.219 79.3242 126.274 79.1183 126.274C78.9123 126.274 78.7544 126.219 78.6445 126.109C78.5347 125.992 78.4797 125.828 78.4797 125.615V124.811L78.593 125.12C78.49 125.477 78.2806 125.762 77.9648 125.975C77.6489 126.188 77.2782 126.294 76.8525 126.294ZM77.2129 125.316C77.467 125.316 77.6901 125.254 77.8824 125.131C78.0746 125.007 78.2222 124.825 78.3252 124.585C78.4351 124.338 78.49 124.032 78.49 123.668C78.49 123.119 78.3733 122.71 78.1399 122.443C77.9064 122.168 77.5974 122.031 77.2129 122.031C76.9589 122.031 76.7357 122.092 76.5435 122.216C76.3512 122.333 76.2002 122.515 76.0903 122.762C75.9873 123.002 75.9358 123.304 75.9358 123.668C75.9358 124.211 76.0526 124.623 76.286 124.904C76.5195 125.179 76.8284 125.316 77.2129 125.316Z" fill="#646464"/>
<path d="M254.702 128.868C254.066 128.868 253.407 128.786 252.724 128.621C252.042 128.456 251.447 128.209 250.941 127.879C250.706 127.726 250.547 127.55 250.465 127.35C250.382 127.149 250.359 126.961 250.394 126.785C250.441 126.596 250.529 126.437 250.659 126.308C250.8 126.178 250.971 126.102 251.171 126.078C251.383 126.055 251.612 126.108 251.859 126.237C252.342 126.496 252.807 126.685 253.254 126.802C253.701 126.908 254.16 126.961 254.631 126.961C255.149 126.961 255.585 126.891 255.938 126.749C256.291 126.608 256.556 126.396 256.732 126.114C256.921 125.831 257.015 125.49 257.015 125.09C257.015 124.501 256.815 124.066 256.414 123.783C256.026 123.489 255.455 123.342 254.702 123.342H253.572C253.242 123.342 252.989 123.259 252.813 123.095C252.648 122.93 252.566 122.7 252.566 122.406C252.566 122.112 252.648 121.882 252.813 121.717C252.989 121.553 253.242 121.47 253.572 121.47H254.49C254.937 121.47 255.32 121.4 255.638 121.258C255.955 121.105 256.203 120.894 256.379 120.623C256.556 120.352 256.644 120.022 256.644 119.634C256.644 119.093 256.462 118.681 256.097 118.398C255.744 118.116 255.226 117.974 254.543 117.974C254.107 117.974 253.695 118.027 253.307 118.133C252.93 118.228 252.513 118.41 252.054 118.681C251.842 118.81 251.636 118.863 251.436 118.84C251.247 118.816 251.088 118.74 250.959 118.61C250.829 118.481 250.741 118.328 250.694 118.151C250.647 117.963 250.659 117.774 250.729 117.586C250.8 117.386 250.947 117.215 251.171 117.074C251.677 116.744 252.236 116.497 252.848 116.332C253.46 116.156 254.09 116.068 254.737 116.068C255.596 116.068 256.332 116.203 256.944 116.474C257.556 116.733 258.021 117.109 258.339 117.604C258.668 118.086 258.833 118.675 258.833 119.369C258.833 119.864 258.739 120.317 258.551 120.729C258.362 121.129 258.098 121.47 257.756 121.753C257.415 122.035 257.003 122.235 256.52 122.353V122.141C257.368 122.282 258.027 122.636 258.498 123.201C258.969 123.754 259.204 124.448 259.204 125.284C259.204 126.014 259.022 126.649 258.657 127.191C258.292 127.732 257.774 128.15 257.103 128.444C256.432 128.727 255.632 128.868 254.702 128.868ZM264.829 128.868C263.358 128.868 262.234 128.315 261.457 127.208C260.68 126.09 260.292 124.501 260.292 122.441C260.292 121.052 260.462 119.887 260.804 118.945C261.157 117.992 261.669 117.274 262.34 116.792C263.023 116.309 263.852 116.068 264.829 116.068C266.312 116.068 267.436 116.609 268.202 117.692C268.978 118.775 269.367 120.352 269.367 122.424C269.367 123.801 269.19 124.972 268.837 125.937C268.496 126.891 267.99 127.62 267.319 128.126C266.648 128.621 265.818 128.868 264.829 128.868ZM264.829 127.014C265.63 127.014 266.218 126.643 266.595 125.902C266.983 125.16 267.177 124.001 267.177 122.424C267.177 120.846 266.983 119.705 266.595 118.998C266.218 118.28 265.63 117.921 264.829 117.921C264.041 117.921 263.452 118.28 263.064 118.998C262.675 119.705 262.481 120.846 262.481 122.424C262.481 124.001 262.675 125.16 263.064 125.902C263.452 126.643 264.041 127.014 264.829 127.014ZM274.71 128.868C273.238 128.868 272.114 128.315 271.337 127.208C270.56 126.09 270.172 124.501 270.172 122.441C270.172 121.052 270.343 119.887 270.684 118.945C271.037 117.992 271.549 117.274 272.22 116.792C272.903 116.309 273.733 116.068 274.71 116.068C276.193 116.068 277.317 116.609 278.082 117.692C278.859 118.775 279.247 120.352 279.247 122.424C279.247 123.801 279.07 124.972 278.717 125.937C278.376 126.891 277.87 127.62 277.199 128.126C276.528 128.621 275.698 128.868 274.71 128.868ZM274.71 127.014C275.51 127.014 276.098 126.643 276.475 125.902C276.864 125.16 277.058 124.001 277.058 122.424C277.058 120.846 276.864 119.705 276.475 118.998C276.098 118.28 275.51 117.921 274.71 117.921C273.921 117.921 273.332 118.28 272.944 118.998C272.556 119.705 272.361 120.846 272.361 122.424C272.361 124.001 272.556 125.16 272.944 125.902C273.332 126.643 273.921 127.014 274.71 127.014ZM281.5 128.78C281.1 128.78 280.776 128.656 280.529 128.409C280.294 128.162 280.176 127.844 280.176 127.456C280.176 127.079 280.294 126.773 280.529 126.537C280.776 126.29 281.1 126.167 281.5 126.167C281.912 126.167 282.23 126.29 282.453 126.537C282.689 126.773 282.807 127.079 282.807 127.456C282.807 127.844 282.689 128.162 282.453 128.409C282.23 128.656 281.912 128.78 281.5 128.78Z" fill="black"/>
<path d="M288.263 128.868C286.792 128.868 285.668 128.315 284.891 127.208C284.114 126.09 283.726 124.501 283.726 122.441C283.726 121.052 283.896 119.887 284.238 118.945C284.591 117.992 285.103 117.274 285.774 116.792C286.456 116.309 287.286 116.068 288.263 116.068C289.746 116.068 290.87 116.609 291.635 117.692C292.412 118.775 292.8 120.352 292.8 122.424C292.8 123.801 292.624 124.972 292.271 125.937C291.929 126.891 291.423 127.62 290.752 128.126C290.082 128.621 289.252 128.868 288.263 128.868ZM288.263 127.014C289.063 127.014 289.652 126.643 290.029 125.902C290.417 125.16 290.611 124.001 290.611 122.424C290.611 120.846 290.417 119.705 290.029 118.998C289.652 118.28 289.063 117.921 288.263 117.921C287.474 117.921 286.886 118.28 286.497 118.998C286.109 119.705 285.915 120.846 285.915 122.424C285.915 124.001 286.109 125.16 286.497 125.902C286.886 126.643 287.474 127.014 288.263 127.014ZM298.143 128.868C296.672 128.868 295.548 128.315 294.771 127.208C293.994 126.09 293.606 124.501 293.606 122.441C293.606 121.052 293.776 119.887 294.118 118.945C294.471 117.992 294.983 117.274 295.654 116.792C296.336 116.309 297.166 116.068 298.143 116.068C299.626 116.068 300.75 116.609 301.515 117.692C302.292 118.775 302.681 120.352 302.681 122.424C302.681 123.801 302.504 124.972 302.151 125.937C301.81 126.891 301.304 127.62 300.633 128.126C299.962 128.621 299.132 128.868 298.143 128.868ZM298.143 127.014C298.944 127.014 299.532 126.643 299.909 125.902C300.297 125.16 300.491 124.001 300.491 122.424C300.491 120.846 300.297 119.705 299.909 118.998C299.532 118.28 298.944 117.921 298.143 117.921C297.355 117.921 296.766 118.28 296.378 118.998C295.989 119.705 295.795 120.846 295.795 122.424C295.795 124.001 295.989 125.16 296.378 125.902C296.766 126.643 297.355 127.014 298.143 127.014Z" fill="#848484"/>
<line x1="29.2539" y1="94.2572" x2="311.008" y2="94.2571" stroke="#EDEDED" stroke-width="0.735651"/>
</g>
<rect x="29.6217" y="36.8756" width="281.019" height="113.29" rx="8.45999" stroke="#E2E2E2" stroke-width="0.735651"/>
<path d="M32.4569 175.629C32.2441 175.629 32.0793 175.571 31.9626 175.454C31.8527 175.331 31.7978 175.162 31.7978 174.95V169.388H29.7895C29.6109 169.388 29.4702 169.34 29.3672 169.244C29.2711 169.141 29.223 169.004 29.223 168.832C29.223 168.653 29.2711 168.519 29.3672 168.43C29.4702 168.334 29.6109 168.286 29.7895 168.286H35.1244C35.3029 168.286 35.4402 168.334 35.5364 168.43C35.6394 168.519 35.6909 168.653 35.6909 168.832C35.6909 169.004 35.6394 169.141 35.5364 169.244C35.4402 169.34 35.3029 169.388 35.1244 169.388H33.1161V174.95C33.1161 175.162 33.0611 175.331 32.9513 175.454C32.8414 175.571 32.6766 175.629 32.4569 175.629ZM37.4002 175.65C36.8784 175.65 36.4252 175.543 36.0407 175.331C35.6562 175.118 35.3575 174.816 35.1447 174.424C34.9318 174.026 34.8254 173.559 34.8254 173.024C34.8254 172.618 34.8838 172.258 35.0005 171.942C35.1241 171.619 35.2992 171.345 35.5257 171.118C35.7523 170.885 36.0235 170.71 36.3394 170.593C36.6552 170.469 37.0088 170.408 37.4002 170.408C37.922 170.408 38.3752 170.514 38.7597 170.727C39.1442 170.94 39.4428 171.242 39.6557 171.633C39.8685 172.025 39.975 172.488 39.975 173.024C39.975 173.429 39.9132 173.793 39.7896 174.115C39.6729 174.438 39.5012 174.716 39.2746 174.95C39.048 175.176 38.7768 175.351 38.461 175.475C38.1452 175.592 37.7916 175.65 37.4002 175.65ZM37.4002 174.671C37.6542 174.671 37.8774 174.61 38.0696 174.486C38.2619 174.362 38.4095 174.181 38.5125 173.94C38.6223 173.693 38.6773 173.387 38.6773 173.024C38.6773 172.474 38.5606 172.066 38.3271 171.798C38.0937 171.523 37.7847 171.386 37.4002 171.386C37.1461 171.386 36.923 171.448 36.7307 171.571C36.5385 171.688 36.3874 171.87 36.2776 172.117C36.1746 172.358 36.1231 172.66 36.1231 173.024C36.1231 173.566 36.2398 173.978 36.4733 174.259C36.7067 174.534 37.0157 174.671 37.4002 174.671Z" fill="black"/>
<g clip-path="url(#clip2_3434_33709)">
<rect x="29.2539" y="181.434" width="282.49" height="114.026" rx="8.82782" fill="white"/>
<rect x="38.082" y="190.262" width="264.099" height="41.1965" rx="5.88521" fill="#F5F5F5"/>
<g clip-path="url(#clip3_3434_33709)">
<path d="M58.6818 225.574C66.8076 225.574 73.3948 218.987 73.3948 210.861C73.3948 202.736 66.8076 196.148 58.6818 196.148C50.556 196.148 43.9688 202.736 43.9688 210.861C43.9688 218.987 50.556 225.574 58.6818 225.574Z" fill="#F0F0F0"/>
<path d="M43.9688 210.86C43.9688 217.186 47.9615 222.579 53.5642 224.658V197.062C47.9615 199.141 43.9688 204.534 43.9688 210.86Z" fill="#6DA544"/>
<path d="M73.3963 210.86C73.3963 204.534 69.4035 199.141 63.8008 197.062V224.658C69.4035 222.579 73.3963 217.186 73.3963 210.86Z" fill="#6DA544"/>
</g>
<path d="M86.575 206.532C86.3759 206.532 86.2214 206.477 86.1116 206.367C86.0086 206.257 85.9571 206.099 85.9571 205.893V199.765C85.9571 199.552 86.0086 199.391 86.1116 199.281C86.2214 199.164 86.3622 199.106 86.5338 199.106C86.6918 199.106 86.8085 199.137 86.884 199.199C86.9664 199.254 87.0625 199.35 87.1724 199.487L91.117 204.606H90.8492V199.734C90.8492 199.535 90.9007 199.381 91.0037 199.271C91.1135 199.161 91.268 199.106 91.4671 199.106C91.6662 199.106 91.8173 199.161 91.9203 199.271C92.0233 199.381 92.0748 199.535 92.0748 199.734V205.914C92.0748 206.106 92.0267 206.257 91.9306 206.367C91.8345 206.477 91.704 206.532 91.5392 206.532C91.3813 206.532 91.2543 206.501 91.1581 206.439C91.0689 206.377 90.9693 206.278 90.8595 206.14L86.9252 201.022H87.1827V205.893C87.1827 206.099 87.1312 206.257 87.0282 206.367C86.9252 206.477 86.7742 206.532 86.575 206.532ZM96.7408 206.552C95.9374 206.552 95.2577 206.401 94.7015 206.099C94.1522 205.797 93.7334 205.368 93.445 204.812C93.1567 204.256 93.0125 203.596 93.0125 202.834C93.0125 202.257 93.0949 201.739 93.2597 201.279C93.4313 200.819 93.675 200.428 93.9909 200.105C94.3136 199.775 94.705 199.525 95.165 199.353C95.625 199.175 96.1468 199.085 96.7305 199.085C97.115 199.085 97.4995 199.133 97.884 199.23C98.2753 199.319 98.6427 199.473 98.986 199.693C99.1027 199.769 99.1782 199.861 99.2125 199.971C99.2537 200.081 99.2606 200.194 99.2331 200.311C99.2057 200.421 99.1542 200.517 99.0787 200.599C99.0031 200.682 98.907 200.733 98.7903 200.754C98.6804 200.774 98.5568 200.747 98.4195 200.671C98.1586 200.52 97.8943 200.411 97.6265 200.342C97.3587 200.273 97.06 200.239 96.7305 200.239C96.2224 200.239 95.7932 200.342 95.4431 200.548C95.0929 200.747 94.8286 201.039 94.65 201.423C94.4784 201.808 94.3926 202.278 94.3926 202.834C94.3926 203.679 94.5951 204.321 95.0002 204.76C95.4053 205.2 96.0061 205.419 96.8025 205.419C97.0772 205.419 97.3553 205.392 97.6368 205.337C97.9183 205.282 98.1929 205.206 98.4607 205.11L98.2032 205.697V203.504H97.0703C96.8987 203.504 96.7648 203.459 96.6687 203.37C96.5794 203.281 96.5348 203.16 96.5348 203.009C96.5348 202.851 96.5794 202.731 96.6687 202.649C96.7648 202.566 96.8987 202.525 97.0703 202.525H98.7697C98.9413 202.525 99.0718 202.573 99.161 202.669C99.2572 202.759 99.3052 202.889 99.3052 203.061V205.563C99.3052 205.715 99.2743 205.842 99.2125 205.945C99.1576 206.048 99.0649 206.123 98.9345 206.171C98.6324 206.281 98.2856 206.374 97.8943 206.449C97.5029 206.518 97.1184 206.552 96.7408 206.552ZM101.039 206.532C100.84 206.532 100.685 206.477 100.575 206.367C100.472 206.257 100.421 206.099 100.421 205.893V199.765C100.421 199.552 100.472 199.391 100.575 199.281C100.685 199.164 100.826 199.106 100.998 199.106C101.156 199.106 101.272 199.137 101.348 199.199C101.43 199.254 101.526 199.35 101.636 199.487L105.581 204.606H105.313V199.734C105.313 199.535 105.364 199.381 105.467 199.271C105.577 199.161 105.732 199.106 105.931 199.106C106.13 199.106 106.281 199.161 106.384 199.271C106.487 199.381 106.539 199.535 106.539 199.734V205.914C106.539 206.106 106.491 206.257 106.394 206.367C106.298 206.477 106.168 206.532 106.003 206.532C105.845 206.532 105.718 206.501 105.622 206.439C105.533 206.377 105.433 206.278 105.323 206.14L101.389 201.022H101.647V205.893C101.647 206.099 101.595 206.257 101.492 206.367C101.389 206.477 101.238 206.532 101.039 206.532ZM111.92 206.532C111.749 206.532 111.601 206.49 111.477 206.408C111.354 206.319 111.254 206.181 111.179 205.996L109.685 202.185C109.624 202.021 109.603 201.876 109.624 201.753C109.651 201.622 109.716 201.519 109.819 201.444C109.922 201.368 110.059 201.331 110.231 201.331C110.382 201.331 110.506 201.368 110.602 201.444C110.698 201.513 110.78 201.646 110.849 201.846L112.095 205.275H111.858L113.146 201.763C113.201 201.612 113.273 201.502 113.362 201.434C113.458 201.365 113.582 201.331 113.733 201.331C113.884 201.331 114.007 201.368 114.104 201.444C114.2 201.513 114.272 201.619 114.32 201.763L115.587 205.275H115.37L116.627 201.815C116.696 201.629 116.781 201.502 116.884 201.434C116.994 201.365 117.114 201.331 117.245 201.331C117.41 201.331 117.537 201.372 117.626 201.454C117.715 201.537 117.767 201.643 117.78 201.773C117.794 201.897 117.77 202.034 117.708 202.185L116.225 205.996C116.157 206.175 116.057 206.308 115.927 206.398C115.803 206.487 115.655 206.532 115.484 206.532C115.312 206.532 115.161 206.487 115.031 206.398C114.907 206.308 114.811 206.175 114.742 205.996L113.393 202.422H113.98L112.662 205.986C112.593 206.171 112.497 206.308 112.373 206.398C112.25 206.487 112.099 206.532 111.92 206.532ZM119.9 206.552C119.536 206.552 119.21 206.484 118.921 206.346C118.64 206.202 118.417 206.01 118.252 205.769C118.094 205.529 118.015 205.258 118.015 204.956C118.015 204.585 118.111 204.293 118.303 204.08C118.496 203.861 118.808 203.703 119.241 203.607C119.673 203.511 120.253 203.462 120.981 203.462H121.496V204.204H120.991C120.566 204.204 120.226 204.225 119.972 204.266C119.718 204.307 119.536 204.379 119.426 204.482C119.323 204.578 119.271 204.716 119.271 204.894C119.271 205.121 119.35 205.306 119.508 205.45C119.666 205.594 119.886 205.666 120.167 205.666C120.394 205.666 120.593 205.615 120.765 205.512C120.943 205.402 121.084 205.255 121.187 205.069C121.29 204.884 121.342 204.671 121.342 204.431V203.246C121.342 202.903 121.266 202.656 121.115 202.505C120.964 202.354 120.71 202.278 120.353 202.278C120.154 202.278 119.937 202.302 119.704 202.35C119.477 202.398 119.237 202.481 118.983 202.597C118.853 202.659 118.736 202.676 118.633 202.649C118.537 202.621 118.461 202.566 118.406 202.484C118.351 202.395 118.324 202.299 118.324 202.196C118.324 202.093 118.351 201.993 118.406 201.897C118.461 201.794 118.554 201.718 118.684 201.67C119 201.54 119.302 201.447 119.591 201.392C119.886 201.337 120.154 201.31 120.394 201.31C120.888 201.31 121.294 201.385 121.609 201.537C121.932 201.688 122.172 201.918 122.33 202.227C122.488 202.529 122.567 202.92 122.567 203.401V205.872C122.567 206.085 122.516 206.25 122.413 206.367C122.31 206.477 122.162 206.532 121.97 206.532C121.778 206.532 121.627 206.477 121.517 206.367C121.414 206.25 121.362 206.085 121.362 205.872V205.378H121.445C121.396 205.618 121.3 205.828 121.156 206.006C121.019 206.178 120.844 206.312 120.631 206.408C120.418 206.504 120.174 206.552 119.9 206.552ZM125.182 206.552C124.612 206.552 124.183 206.391 123.894 206.068C123.606 205.739 123.462 205.258 123.462 204.626V199.755C123.462 199.542 123.517 199.381 123.627 199.271C123.737 199.161 123.894 199.106 124.1 199.106C124.306 199.106 124.464 199.161 124.574 199.271C124.691 199.381 124.749 199.542 124.749 199.755V204.564C124.749 204.88 124.815 205.114 124.945 205.265C125.082 205.416 125.275 205.491 125.522 205.491C125.577 205.491 125.628 205.491 125.676 205.491C125.724 205.485 125.772 205.478 125.82 205.471C125.917 205.457 125.982 205.485 126.016 205.553C126.05 205.615 126.068 205.745 126.068 205.945C126.068 206.116 126.033 206.25 125.965 206.346C125.896 206.442 125.783 206.501 125.625 206.521C125.556 206.528 125.484 206.535 125.408 206.542C125.333 206.549 125.257 206.552 125.182 206.552ZM128.059 206.552C127.489 206.552 127.06 206.391 126.771 206.068C126.483 205.739 126.339 205.258 126.339 204.626V199.755C126.339 199.542 126.394 199.381 126.504 199.271C126.613 199.161 126.771 199.106 126.977 199.106C127.183 199.106 127.341 199.161 127.451 199.271C127.568 199.381 127.626 199.542 127.626 199.755V204.564C127.626 204.88 127.691 205.114 127.822 205.265C127.959 205.416 128.151 205.491 128.399 205.491C128.454 205.491 128.505 205.491 128.553 205.491C128.601 205.485 128.649 205.478 128.697 205.471C128.793 205.457 128.859 205.485 128.893 205.553C128.927 205.615 128.944 205.745 128.944 205.945C128.944 206.116 128.91 206.25 128.841 206.346C128.773 206.442 128.66 206.501 128.502 206.521C128.433 206.528 128.361 206.535 128.285 206.542C128.21 206.549 128.134 206.552 128.059 206.552ZM131.648 206.552C131.078 206.552 130.587 206.446 130.175 206.233C129.763 206.02 129.444 205.718 129.217 205.327C128.997 204.935 128.887 204.472 128.887 203.936C128.887 203.414 128.994 202.958 129.207 202.566C129.426 202.175 129.725 201.87 130.103 201.65C130.487 201.423 130.923 201.31 131.411 201.31C131.768 201.31 132.087 201.368 132.368 201.485C132.657 201.602 132.901 201.77 133.1 201.99C133.306 202.209 133.46 202.477 133.563 202.793C133.673 203.102 133.728 203.452 133.728 203.844C133.728 203.967 133.683 204.063 133.594 204.132C133.512 204.194 133.392 204.225 133.234 204.225H129.928V203.483H132.822L132.657 203.638C132.657 203.322 132.609 203.057 132.513 202.845C132.423 202.632 132.289 202.47 132.111 202.36C131.939 202.244 131.723 202.185 131.462 202.185C131.174 202.185 130.927 202.254 130.721 202.391C130.521 202.522 130.367 202.711 130.257 202.958C130.154 203.198 130.103 203.487 130.103 203.823V203.895C130.103 204.458 130.233 204.88 130.494 205.162C130.762 205.436 131.153 205.574 131.668 205.574C131.847 205.574 132.046 205.553 132.265 205.512C132.492 205.464 132.705 205.385 132.904 205.275C133.048 205.193 133.175 205.158 133.285 205.172C133.395 205.179 133.481 205.217 133.543 205.285C133.611 205.354 133.652 205.44 133.666 205.543C133.68 205.639 133.659 205.739 133.604 205.842C133.556 205.945 133.47 206.034 133.347 206.109C133.107 206.26 132.828 206.374 132.513 206.449C132.204 206.518 131.915 206.552 131.648 206.552ZM136.622 206.552C136.176 206.552 135.802 206.477 135.5 206.326C135.205 206.175 134.985 205.955 134.841 205.666C134.696 205.371 134.624 205.007 134.624 204.575V202.381H134.089C133.924 202.381 133.797 202.34 133.708 202.257C133.618 202.168 133.574 202.048 133.574 201.897C133.574 201.739 133.618 201.619 133.708 201.537C133.797 201.454 133.924 201.413 134.089 201.413H134.624V200.476C134.624 200.263 134.679 200.102 134.789 199.992C134.906 199.882 135.067 199.827 135.273 199.827C135.479 199.827 135.637 199.882 135.747 199.992C135.857 200.102 135.912 200.263 135.912 200.476V201.413H137.003C137.168 201.413 137.295 201.454 137.385 201.537C137.474 201.619 137.518 201.739 137.518 201.897C137.518 202.048 137.474 202.168 137.385 202.257C137.295 202.34 137.168 202.381 137.003 202.381H135.912V204.503C135.912 204.832 135.984 205.079 136.128 205.244C136.272 205.409 136.506 205.491 136.828 205.491C136.945 205.491 137.048 205.481 137.137 205.461C137.227 205.44 137.306 205.426 137.374 205.419C137.457 205.412 137.525 205.44 137.58 205.502C137.635 205.557 137.663 205.673 137.663 205.852C137.663 205.989 137.639 206.113 137.591 206.223C137.549 206.326 137.47 206.398 137.354 206.439C137.264 206.466 137.148 206.49 137.003 206.511C136.859 206.538 136.732 206.552 136.622 206.552Z" fill="black"/>
<path d="M86.7192 222.349C86.5819 222.349 86.4755 222.308 86.4 222.226C86.3244 222.143 86.2867 222.03 86.2867 221.886V219.63L86.4926 219.775H85.6481C85.5245 219.775 85.4284 219.744 85.3597 219.682C85.298 219.62 85.2671 219.538 85.2671 219.435C85.2671 219.325 85.298 219.239 85.3597 219.177C85.4284 219.116 85.5245 219.085 85.6481 219.085H86.4926L86.2867 219.219V218.044L86.4926 218.189H85.6481C85.5245 218.189 85.4284 218.158 85.3597 218.096C85.298 218.034 85.2671 217.952 85.2671 217.849C85.2671 217.739 85.298 217.656 85.3597 217.602C85.4284 217.54 85.5245 217.509 85.6481 217.509H86.4926L86.2867 217.643V215.449C86.2867 215.284 86.3279 215.161 86.4103 215.078C86.4926 214.989 86.6025 214.944 86.7398 214.944C86.8566 214.944 86.9595 214.975 87.0488 215.037C87.1449 215.099 87.2205 215.202 87.2754 215.346L89.6339 220.784H89.3558V215.408C89.3558 215.264 89.3936 215.15 89.4691 215.068C89.5515 214.986 89.6579 214.944 89.7884 214.944C89.9257 214.944 90.0321 214.986 90.1076 215.068C90.1832 215.15 90.2209 215.264 90.2209 215.408V217.643L90.0149 217.509H90.8698C90.9865 217.509 91.0792 217.54 91.1479 217.602C91.2165 217.656 91.2508 217.739 91.2508 217.849C91.2508 217.952 91.2165 218.034 91.1479 218.096C91.0792 218.158 90.9865 218.189 90.8698 218.189H90.0149L90.2209 218.044V219.219L90.0149 219.085H90.8698C90.9865 219.085 91.0792 219.116 91.1479 219.177C91.2165 219.239 91.2508 219.325 91.2508 219.435C91.2508 219.538 91.2165 219.62 91.1479 219.682C91.0792 219.744 90.9865 219.775 90.8698 219.775H90.0149L90.2209 219.63V221.845C90.2209 222.01 90.1832 222.137 90.1076 222.226C90.0321 222.308 89.9188 222.349 89.7678 222.349C89.651 222.349 89.5481 222.319 89.4588 222.257C89.3695 222.195 89.294 222.092 89.2322 221.948L86.8737 216.52H87.1518V221.886C87.1518 222.03 87.114 222.143 87.0385 222.226C86.963 222.308 86.8566 222.349 86.7192 222.349ZM92.2664 222.277C92.1016 222.277 91.9781 222.24 91.8957 222.164C91.8201 222.082 91.7824 221.972 91.7824 221.834C91.7824 221.752 91.803 221.67 91.8442 221.587C91.8854 221.505 91.9472 221.423 92.0296 221.34L94.2851 218.92C94.6284 218.556 94.8755 218.219 95.0266 217.911C95.1776 217.602 95.2532 217.289 95.2532 216.973C95.2532 216.575 95.1296 216.273 94.8824 216.067C94.6421 215.854 94.2885 215.748 93.8216 215.748C93.5332 215.748 93.2551 215.796 92.9874 215.892C92.7265 215.981 92.469 216.122 92.2149 216.314C92.1188 216.383 92.0296 216.414 91.9472 216.407C91.8648 216.4 91.7927 216.369 91.7309 216.314C91.6759 216.252 91.6348 216.184 91.6073 216.108C91.5867 216.026 91.5901 215.94 91.6176 215.851C91.6451 215.761 91.7034 215.686 91.7927 215.624C92.0742 215.404 92.4003 215.233 92.7711 215.109C93.1419 214.986 93.5229 214.924 93.9143 214.924C94.4086 214.924 94.824 215.003 95.1605 215.161C95.5038 215.312 95.7647 215.535 95.9432 215.83C96.1217 216.118 96.211 216.472 96.211 216.891C96.211 217.179 96.1629 217.464 96.0668 217.746C95.9707 218.02 95.8265 218.302 95.6342 218.59C95.4489 218.879 95.2085 219.177 94.9133 219.486L92.7711 221.742V221.464H96.1492C96.2865 221.464 96.3895 221.498 96.4582 221.567C96.5337 221.635 96.5715 221.735 96.5715 221.865C96.5715 221.996 96.5337 222.099 96.4582 222.174C96.3895 222.243 96.2865 222.277 96.1492 222.277H92.2664ZM99.9147 222.37C99.5302 222.37 99.1422 222.315 98.7509 222.205C98.3664 222.089 98.0162 221.913 97.7003 221.68C97.6111 221.618 97.5493 221.546 97.515 221.464C97.4875 221.374 97.4841 221.289 97.5047 221.206C97.5253 221.124 97.5665 221.055 97.6282 221C97.69 220.938 97.7621 220.904 97.8445 220.897C97.9338 220.89 98.0265 220.918 98.1226 220.98C98.3972 221.172 98.6822 221.316 98.9774 221.412C99.2727 221.501 99.5816 221.546 99.9044 221.546C100.227 221.546 100.505 221.484 100.739 221.361C100.972 221.237 101.151 221.065 101.274 220.846C101.405 220.626 101.47 220.369 101.47 220.073C101.47 219.62 101.336 219.249 101.068 218.961C100.8 218.673 100.436 218.528 99.9764 218.528C99.6949 218.528 99.434 218.58 99.1937 218.683C98.9603 218.779 98.7406 218.944 98.5346 219.177C98.4865 219.232 98.4247 219.28 98.3492 219.321C98.2805 219.363 98.2016 219.383 98.1123 219.383C97.9819 219.383 97.8823 219.349 97.8136 219.28C97.745 219.205 97.7106 219.105 97.7106 218.982V215.449C97.7106 215.312 97.7484 215.205 97.8239 215.13C97.8995 215.054 98.0059 215.016 98.1432 215.016H101.614C101.751 215.016 101.858 215.051 101.933 215.119C102.009 215.188 102.047 215.288 102.047 215.418C102.047 215.549 102.009 215.652 101.933 215.727C101.858 215.796 101.751 215.83 101.614 215.83H98.6479V218.58H98.3801C98.5655 218.305 98.8126 218.092 99.1216 217.941C99.4375 217.79 99.7842 217.715 100.162 217.715C100.622 217.715 101.017 217.814 101.346 218.014C101.683 218.206 101.944 218.477 102.129 218.827C102.314 219.17 102.407 219.572 102.407 220.032C102.407 220.485 102.304 220.89 102.098 221.247C101.899 221.598 101.614 221.872 101.243 222.071C100.872 222.27 100.43 222.37 99.9147 222.37ZM105.544 222.37C104.707 222.37 104.068 222.051 103.629 221.412C103.196 220.767 102.98 219.843 102.98 218.642C102.98 217.825 103.076 217.142 103.268 216.592C103.467 216.043 103.756 215.628 104.133 215.346C104.518 215.065 104.988 214.924 105.544 214.924C106.389 214.924 107.027 215.24 107.46 215.871C107.892 216.496 108.109 217.416 108.109 218.631C108.109 219.435 108.009 220.115 107.81 220.671C107.618 221.227 107.333 221.649 106.955 221.937C106.578 222.226 106.107 222.37 105.544 222.37ZM105.544 221.556C106.094 221.556 106.502 221.32 106.77 220.846C107.038 220.372 107.172 219.634 107.172 218.631C107.172 217.629 107.038 216.898 106.77 216.438C106.509 215.971 106.1 215.737 105.544 215.737C104.995 215.737 104.586 215.971 104.319 216.438C104.051 216.898 103.917 217.629 103.917 218.631C103.917 219.634 104.051 220.372 104.319 220.846C104.586 221.32 104.995 221.556 105.544 221.556ZM109.526 223.287C109.457 223.376 109.382 223.427 109.299 223.441C109.224 223.455 109.155 223.441 109.093 223.4C109.038 223.359 109.008 223.297 109.001 223.215C108.994 223.132 109.028 223.043 109.104 222.947C109.22 222.796 109.299 222.645 109.341 222.494C109.389 222.343 109.413 222.202 109.413 222.071L109.454 222.319C109.262 222.319 109.104 222.264 108.98 222.154C108.863 222.037 108.805 221.886 108.805 221.701C108.805 221.522 108.86 221.378 108.97 221.268C109.08 221.158 109.227 221.103 109.413 221.103C109.598 221.103 109.746 221.168 109.856 221.299C109.972 221.423 110.031 221.608 110.031 221.855C110.031 221.999 110.013 222.15 109.979 222.308C109.952 222.473 109.904 222.638 109.835 222.803C109.766 222.967 109.663 223.129 109.526 223.287ZM113.3 222.37C112.462 222.37 111.823 222.051 111.384 221.412C110.951 220.767 110.735 219.843 110.735 218.642C110.735 217.825 110.831 217.142 111.023 216.592C111.223 216.043 111.511 215.628 111.889 215.346C112.273 215.065 112.743 214.924 113.3 214.924C114.144 214.924 114.783 215.24 115.215 215.871C115.648 216.496 115.864 217.416 115.864 218.631C115.864 219.435 115.764 220.115 115.565 220.671C115.373 221.227 115.088 221.649 114.711 221.937C114.333 222.226 113.863 222.37 113.3 222.37ZM113.3 221.556C113.849 221.556 114.257 221.32 114.525 220.846C114.793 220.372 114.927 219.634 114.927 218.631C114.927 217.629 114.793 216.898 114.525 216.438C114.264 215.971 113.856 215.737 113.3 215.737C112.75 215.737 112.342 215.971 112.074 216.438C111.806 216.898 111.672 217.629 111.672 218.631C111.672 219.634 111.806 220.372 112.074 220.846C112.342 221.32 112.75 221.556 113.3 221.556ZM119.063 222.37C118.225 222.37 117.587 222.051 117.147 221.412C116.715 220.767 116.499 219.843 116.499 218.642C116.499 217.825 116.595 217.142 116.787 216.592C116.986 216.043 117.274 215.628 117.652 215.346C118.037 215.065 118.507 214.924 119.063 214.924C119.908 214.924 120.546 215.24 120.979 215.871C121.411 216.496 121.628 217.416 121.628 218.631C121.628 219.435 121.528 220.115 121.329 220.671C121.137 221.227 120.852 221.649 120.474 221.937C120.096 222.226 119.626 222.37 119.063 222.37ZM119.063 221.556C119.612 221.556 120.021 221.32 120.289 220.846C120.556 220.372 120.69 219.634 120.69 218.631C120.69 217.629 120.556 216.898 120.289 216.438C120.028 215.971 119.619 215.737 119.063 215.737C118.514 215.737 118.105 215.971 117.837 216.438C117.57 216.898 117.436 217.629 117.436 218.631C117.436 219.634 117.57 220.372 117.837 220.846C118.105 221.32 118.514 221.556 119.063 221.556ZM124.827 222.37C123.989 222.37 123.35 222.051 122.911 221.412C122.478 220.767 122.262 219.843 122.262 218.642C122.262 217.825 122.358 217.142 122.55 216.592C122.75 216.043 123.038 215.628 123.416 215.346C123.8 215.065 124.27 214.924 124.827 214.924C125.671 214.924 126.31 215.24 126.742 215.871C127.175 216.496 127.391 217.416 127.391 218.631C127.391 219.435 127.291 220.115 127.092 220.671C126.9 221.227 126.615 221.649 126.238 221.937C125.86 222.226 125.39 222.37 124.827 222.37ZM124.827 221.556C125.376 221.556 125.784 221.32 126.052 220.846C126.32 220.372 126.454 219.634 126.454 218.631C126.454 217.629 126.32 216.898 126.052 216.438C125.791 215.971 125.383 215.737 124.827 215.737C124.277 215.737 123.869 215.971 123.601 216.438C123.333 216.898 123.199 217.629 123.199 218.631C123.199 219.634 123.333 220.372 123.601 220.846C123.869 221.32 124.277 221.556 124.827 221.556Z" fill="#646464"/>
<path d="M294.023 209.508L289.426 214.106C289.362 214.17 289.285 214.221 289.202 214.256C289.118 214.291 289.028 214.309 288.937 214.309C288.846 214.309 288.756 214.291 288.673 214.256C288.589 214.221 288.513 214.17 288.449 214.106L283.851 209.508C283.721 209.379 283.648 209.203 283.648 209.02C283.648 208.836 283.721 208.661 283.851 208.531C283.98 208.401 284.156 208.329 284.339 208.329C284.523 208.329 284.698 208.401 284.828 208.531L288.938 212.641L293.048 208.53C293.177 208.401 293.353 208.328 293.536 208.328C293.719 208.328 293.895 208.401 294.025 208.53C294.154 208.66 294.227 208.836 294.227 209.019C294.227 209.202 294.154 209.378 294.025 209.508L294.023 209.508Z" fill="black"/>
<path d="M41.2645 271.203C41.0516 271.203 40.8868 271.145 40.7701 271.028C40.6602 270.905 40.6053 270.733 40.6053 270.513V267.383L40.8834 268.176L38.4013 264.684C38.312 264.561 38.2708 264.43 38.2777 264.293C38.2914 264.149 38.3498 264.028 38.4528 263.932C38.5558 263.829 38.7 263.778 38.8854 263.778C39.0227 263.778 39.1463 263.812 39.2561 263.881C39.3729 263.949 39.4827 264.056 39.5857 264.2L41.4292 266.816H41.1409L42.9947 264.2C43.1046 264.049 43.211 263.943 43.314 263.881C43.417 263.812 43.544 263.778 43.6951 263.778C43.8736 263.778 44.0109 263.826 44.107 263.922C44.21 264.011 44.2615 264.125 44.2615 264.262C44.2684 264.399 44.2203 264.543 44.1173 264.694L41.6558 268.176L41.9236 267.383V270.513C41.9236 270.973 41.7039 271.203 41.2645 271.203ZM46.1478 271.224C45.626 271.224 45.1729 271.118 44.7884 270.905C44.4039 270.692 44.1052 270.39 43.8923 269.998C43.6795 269.6 43.5731 269.133 43.5731 268.598C43.5731 268.193 43.6314 267.832 43.7482 267.516C43.8717 267.194 44.0468 266.919 44.2734 266.692C44.5 266.459 44.7712 266.284 45.087 266.167C45.4029 266.044 45.7565 265.982 46.1478 265.982C46.6697 265.982 47.1228 266.088 47.5073 266.301C47.8918 266.514 48.1905 266.816 48.4034 267.207C48.6162 267.599 48.7226 268.062 48.7226 268.598C48.7226 269.003 48.6608 269.367 48.5372 269.69C48.4205 270.012 48.2489 270.29 48.0223 270.524C47.7957 270.75 47.5245 270.925 47.2087 271.049C46.8928 271.166 46.5392 271.224 46.1478 271.224ZM46.1478 270.246C46.4019 270.246 46.625 270.184 46.8173 270.06C47.0095 269.937 47.1572 269.755 47.2602 269.514C47.37 269.267 47.4249 268.962 47.4249 268.598C47.4249 268.049 47.3082 267.64 47.0748 267.372C46.8413 267.098 46.5324 266.96 46.1478 266.96C45.8938 266.96 45.6707 267.022 45.4784 267.146C45.2862 267.262 45.1351 267.444 45.0252 267.691C44.9223 267.932 44.8708 268.234 44.8708 268.598C44.8708 269.14 44.9875 269.552 45.2209 269.834C45.4544 270.108 45.7633 270.246 46.1478 270.246ZM51.1962 271.224C50.7774 271.224 50.4306 271.149 50.156 270.998C49.8813 270.84 49.6754 270.606 49.538 270.297C49.4076 269.988 49.3423 269.604 49.3423 269.144V266.651C49.3423 266.432 49.3973 266.27 49.5071 266.167C49.617 266.057 49.7749 266.002 49.9809 266.002C50.1869 266.002 50.3448 266.057 50.4547 266.167C50.5714 266.27 50.6297 266.432 50.6297 266.651V269.164C50.6297 269.521 50.7018 269.786 50.846 269.957C50.9902 270.129 51.2202 270.215 51.5361 270.215C51.8794 270.215 52.1609 270.098 52.3806 269.865C52.6003 269.624 52.7102 269.308 52.7102 268.917V266.651C52.7102 266.432 52.7651 266.27 52.8749 266.167C52.9848 266.057 53.1427 266.002 53.3487 266.002C53.5547 266.002 53.7126 266.057 53.8225 266.167C53.9392 266.27 53.9975 266.432 53.9975 266.651V270.544C53.9975 270.984 53.7881 271.203 53.3693 271.203C53.1702 271.203 53.0157 271.149 52.9058 271.039C52.796 270.922 52.7411 270.757 52.7411 270.544V269.762L52.8852 270.071C52.7411 270.441 52.5213 270.726 52.2261 270.925C51.9377 271.125 51.5944 271.224 51.1962 271.224ZM59.6578 273.078C59.287 273.078 58.9266 273.044 58.5764 272.975C58.2331 272.906 57.9207 272.8 57.6392 272.656C57.5087 272.587 57.4195 272.505 57.3714 272.408C57.3302 272.312 57.3165 272.213 57.3302 272.11C57.3508 272.014 57.392 271.928 57.4538 271.852C57.5224 271.777 57.6048 271.725 57.701 271.698C57.7971 271.67 57.8966 271.684 57.9996 271.739C58.3017 271.89 58.5867 271.986 58.8545 272.027C59.1291 272.075 59.3626 272.1 59.5548 272.1C60.0148 272.1 60.3581 271.986 60.5847 271.76C60.8182 271.54 60.9349 271.21 60.9349 270.771V269.844H61.0276C60.9246 270.194 60.7083 270.476 60.3787 270.689C60.056 270.895 59.6887 270.998 59.2767 270.998C58.8236 270.998 58.4288 270.895 58.0923 270.689C57.7559 270.476 57.495 270.18 57.3096 269.803C57.1242 269.425 57.0315 268.986 57.0315 268.485C57.0315 268.107 57.083 267.767 57.186 267.465C57.2959 267.156 57.4469 266.892 57.6392 266.672C57.8383 266.452 58.0752 266.284 58.3498 266.167C58.6313 266.044 58.9403 265.982 59.2767 265.982C59.7024 265.982 60.0732 266.088 60.389 266.301C60.7117 266.507 60.9212 266.782 61.0173 267.125L60.9143 267.383V266.651C60.9143 266.438 60.9692 266.277 61.0791 266.167C61.1958 266.057 61.3537 266.002 61.5528 266.002C61.7588 266.002 61.9167 266.057 62.0266 266.167C62.1365 266.277 62.1914 266.438 62.1914 266.651V270.616C62.1914 271.434 61.9751 272.048 61.5425 272.46C61.11 272.872 60.4817 273.078 59.6578 273.078ZM59.6269 270.019C59.8947 270.019 60.1247 269.957 60.3169 269.834C60.5092 269.71 60.6568 269.535 60.7598 269.308C60.8697 269.075 60.9246 268.8 60.9246 268.485C60.9246 268.011 60.8079 267.64 60.5744 267.372C60.341 267.098 60.0251 266.96 59.6269 266.96C59.3591 266.96 59.1291 267.022 58.9369 267.146C58.7446 267.269 58.5936 267.444 58.4837 267.671C58.3807 267.897 58.3292 268.169 58.3292 268.485C58.3292 268.958 58.4459 269.332 58.6794 269.607C58.9128 269.882 59.2287 270.019 59.6269 270.019ZM65.5954 271.224C65.0255 271.224 64.5346 271.118 64.1226 270.905C63.7107 270.692 63.3914 270.39 63.1648 269.998C62.9451 269.607 62.8352 269.144 62.8352 268.608C62.8352 268.086 62.9417 267.63 63.1545 267.238C63.3742 266.847 63.6729 266.541 64.0505 266.322C64.435 266.095 64.871 265.982 65.3585 265.982C65.7156 265.982 66.0348 266.04 66.3163 266.157C66.6047 266.274 66.8485 266.442 67.0476 266.662C67.2536 266.881 67.408 267.149 67.511 267.465C67.6209 267.774 67.6758 268.124 67.6758 268.515C67.6758 268.639 67.6312 268.735 67.5419 268.804C67.4595 268.866 67.3394 268.896 67.1815 268.896H63.8754V268.155H66.7695L66.6047 268.309C66.6047 267.994 66.5567 267.729 66.4605 267.516C66.3713 267.304 66.2374 267.142 66.0589 267.032C65.8872 266.916 65.6709 266.857 65.41 266.857C65.1216 266.857 64.8745 266.926 64.6685 267.063C64.4694 267.194 64.3149 267.383 64.205 267.63C64.102 267.87 64.0505 268.158 64.0505 268.495V268.567C64.0505 269.13 64.181 269.552 64.4419 269.834C64.7097 270.108 65.101 270.246 65.616 270.246C65.7945 270.246 65.9936 270.225 66.2133 270.184C66.4399 270.136 66.6528 270.057 66.8519 269.947C66.9961 269.865 67.1231 269.83 67.233 269.844C67.3428 269.851 67.4286 269.889 67.4904 269.957C67.5591 270.026 67.6003 270.112 67.614 270.215C67.6278 270.311 67.6072 270.41 67.5522 270.513C67.5042 270.616 67.4183 270.706 67.2948 270.781C67.0544 270.932 66.7764 271.046 66.4605 271.121C66.1516 271.19 65.8632 271.224 65.5954 271.224ZM70.5703 271.224C70.124 271.224 69.7498 271.149 69.4477 270.998C69.1524 270.846 68.9327 270.627 68.7885 270.338C68.6443 270.043 68.5722 269.679 68.5722 269.247V267.053H68.0367C67.8719 267.053 67.7449 267.012 67.6556 266.929C67.5664 266.84 67.5217 266.72 67.5217 266.569C67.5217 266.411 67.5664 266.291 67.6556 266.208C67.7449 266.126 67.8719 266.085 68.0367 266.085H68.5722V265.148C68.5722 264.935 68.6272 264.773 68.737 264.664C68.8538 264.554 69.0151 264.499 69.2211 264.499C69.4271 264.499 69.585 264.554 69.6949 264.664C69.8047 264.773 69.8596 264.935 69.8596 265.148V266.085H70.9513C71.1161 266.085 71.2432 266.126 71.3324 266.208C71.4217 266.291 71.4663 266.411 71.4663 266.569C71.4663 266.72 71.4217 266.84 71.3324 266.929C71.2432 267.012 71.1161 267.053 70.9513 267.053H69.8596V269.175C69.8596 269.504 69.9317 269.751 70.0759 269.916C70.2201 270.081 70.4536 270.163 70.7763 270.163C70.893 270.163 70.996 270.153 71.0852 270.132C71.1745 270.112 71.2535 270.098 71.3221 270.091C71.4045 270.084 71.4732 270.112 71.5281 270.174C71.583 270.229 71.6105 270.345 71.6105 270.524C71.6105 270.661 71.5865 270.785 71.5384 270.895C71.4972 270.998 71.4182 271.07 71.3015 271.111C71.2123 271.138 71.0955 271.162 70.9513 271.183C70.8072 271.21 70.6801 271.224 70.5703 271.224Z" fill="#646464"/>
<path d="M217.216 273.762C216.946 273.762 216.722 273.698 216.546 273.568C216.369 273.439 216.263 273.268 216.228 273.056C216.192 272.832 216.245 272.585 216.387 272.315L221.719 262.286V263.063H215.998C215.68 263.063 215.433 262.981 215.257 262.816C215.092 262.651 215.01 262.422 215.01 262.127C215.01 261.821 215.092 261.586 215.257 261.421C215.433 261.256 215.68 261.174 215.998 261.174H222.831C223.149 261.174 223.408 261.256 223.608 261.421C223.808 261.586 223.908 261.821 223.908 262.127C223.908 262.386 223.873 262.616 223.802 262.816C223.731 263.004 223.637 263.21 223.52 263.434L218.505 273.021C218.376 273.28 218.205 273.468 217.993 273.586C217.793 273.703 217.534 273.762 217.216 273.762ZM229.357 273.798C227.885 273.798 226.761 273.244 225.984 272.138C225.208 271.02 224.819 269.431 224.819 267.371C224.819 265.982 224.99 264.817 225.331 263.875C225.684 262.922 226.196 262.204 226.867 261.721C227.55 261.239 228.38 260.997 229.357 260.997C230.84 260.997 231.964 261.539 232.729 262.622C233.506 263.705 233.894 265.282 233.894 267.353C233.894 268.73 233.718 269.902 233.364 270.867C233.023 271.82 232.517 272.55 231.846 273.056C231.175 273.55 230.345 273.798 229.357 273.798ZM229.357 271.944C230.157 271.944 230.746 271.573 231.122 270.832C231.511 270.09 231.705 268.931 231.705 267.353C231.705 265.776 231.511 264.634 231.122 263.928C230.746 263.21 230.157 262.851 229.357 262.851C228.568 262.851 227.979 263.21 227.591 263.928C227.203 264.634 227.008 265.776 227.008 267.353C227.008 268.931 227.203 270.09 227.591 270.832C227.979 271.573 228.568 271.944 229.357 271.944ZM239.237 273.798C237.766 273.798 236.642 273.244 235.865 272.138C235.088 271.02 234.699 269.431 234.699 267.371C234.699 265.982 234.87 264.817 235.211 263.875C235.565 262.922 236.077 262.204 236.747 261.721C237.43 261.239 238.26 260.997 239.237 260.997C240.72 260.997 241.844 261.539 242.609 262.622C243.386 263.705 243.774 265.282 243.774 267.353C243.774 268.73 243.598 269.902 243.245 270.867C242.903 271.82 242.397 272.55 241.726 273.056C241.055 273.55 240.226 273.798 239.237 273.798ZM239.237 271.944C240.037 271.944 240.626 271.573 241.002 270.832C241.391 270.09 241.585 268.931 241.585 267.353C241.585 265.776 241.391 264.634 241.002 263.928C240.626 263.21 240.037 262.851 239.237 262.851C238.448 262.851 237.86 263.21 237.471 263.928C237.083 264.634 236.889 265.776 236.889 267.353C236.889 268.931 237.083 270.09 237.471 270.832C237.86 271.573 238.448 271.944 239.237 271.944ZM246.31 275.51C246.157 275.699 245.992 275.805 245.816 275.828C245.651 275.863 245.504 275.834 245.374 275.74C245.245 275.646 245.174 275.51 245.162 275.334C245.151 275.169 245.227 274.986 245.392 274.786C245.627 274.492 245.786 274.198 245.869 273.904C245.951 273.609 245.992 273.344 245.992 273.109L246.08 273.709C245.668 273.709 245.333 273.592 245.074 273.356C244.827 273.109 244.703 272.785 244.703 272.385C244.703 272.009 244.821 271.703 245.056 271.467C245.292 271.22 245.61 271.096 246.01 271.096C246.422 271.096 246.745 271.238 246.981 271.52C247.216 271.791 247.334 272.185 247.334 272.703C247.334 272.985 247.305 273.28 247.246 273.586C247.199 273.88 247.099 274.186 246.946 274.504C246.804 274.833 246.592 275.169 246.31 275.51ZM252.79 273.798C251.319 273.798 250.195 273.244 249.418 272.138C248.641 271.02 248.253 269.431 248.253 267.371C248.253 265.982 248.424 264.817 248.765 263.875C249.118 262.922 249.63 262.204 250.301 261.721C250.984 261.239 251.813 260.997 252.79 260.997C254.273 260.997 255.397 261.539 256.163 262.622C256.939 263.705 257.328 265.282 257.328 267.353C257.328 268.73 257.151 269.902 256.798 270.867C256.457 271.82 255.951 272.55 255.28 273.056C254.609 273.55 253.779 273.798 252.79 273.798ZM252.79 271.944C253.591 271.944 254.179 271.573 254.556 270.832C254.944 270.09 255.139 268.931 255.139 267.353C255.139 265.776 254.944 264.634 254.556 263.928C254.179 263.21 253.591 262.851 252.79 262.851C252.002 262.851 251.413 263.21 251.025 263.928C250.636 264.634 250.442 265.776 250.442 267.353C250.442 268.931 250.636 270.09 251.025 270.832C251.413 271.573 252.002 271.944 252.79 271.944ZM262.671 273.798C261.199 273.798 260.075 273.244 259.298 272.138C258.522 271.02 258.133 269.431 258.133 267.371C258.133 265.982 258.304 264.817 258.645 263.875C258.998 262.922 259.51 262.204 260.181 261.721C260.864 261.239 261.694 260.997 262.671 260.997C264.154 260.997 265.278 261.539 266.043 262.622C266.82 263.705 267.208 265.282 267.208 267.353C267.208 268.73 267.032 269.902 266.678 270.867C266.337 271.82 265.831 272.55 265.16 273.056C264.489 273.55 263.659 273.798 262.671 273.798ZM262.671 271.944C263.471 271.944 264.06 271.573 264.436 270.832C264.825 270.09 265.019 268.931 265.019 267.353C265.019 265.776 264.825 264.634 264.436 263.928C264.06 263.21 263.471 262.851 262.671 262.851C261.882 262.851 261.293 263.21 260.905 263.928C260.517 264.634 260.322 265.776 260.322 267.353C260.322 268.931 260.517 270.09 260.905 270.832C261.293 271.573 261.882 271.944 262.671 271.944ZM272.551 273.798C271.08 273.798 269.955 273.244 269.179 272.138C268.402 271.02 268.013 269.431 268.013 267.371C268.013 265.982 268.184 264.817 268.525 263.875C268.878 262.922 269.39 262.204 270.061 261.721C270.744 261.239 271.574 260.997 272.551 260.997C274.034 260.997 275.158 261.539 275.923 262.622C276.7 263.705 277.088 265.282 277.088 267.353C277.088 268.73 276.912 269.902 276.559 270.867C276.217 271.82 275.711 272.55 275.04 273.056C274.369 273.55 273.54 273.798 272.551 273.798ZM272.551 271.944C273.351 271.944 273.94 271.573 274.316 270.832C274.705 270.09 274.899 268.931 274.899 267.353C274.899 265.776 274.705 264.634 274.316 263.928C273.94 263.21 273.351 262.851 272.551 262.851C271.762 262.851 271.174 263.21 270.785 263.928C270.397 264.634 270.203 265.776 270.203 267.353C270.203 268.931 270.397 270.09 270.785 270.832C271.174 271.573 271.762 271.944 272.551 271.944ZM279.341 273.709C278.941 273.709 278.617 273.586 278.37 273.339C278.135 273.091 278.017 272.774 278.017 272.385C278.017 272.009 278.135 271.703 278.37 271.467C278.617 271.22 278.941 271.096 279.341 271.096C279.753 271.096 280.071 271.22 280.295 271.467C280.53 271.703 280.648 272.009 280.648 272.385C280.648 272.774 280.53 273.091 280.295 273.339C280.071 273.586 279.753 273.709 279.341 273.709Z" fill="black"/>
<path d="M286.104 273.798C284.633 273.798 283.509 273.244 282.732 272.138C281.955 271.02 281.567 269.431 281.567 267.371C281.567 265.982 281.737 264.817 282.079 263.875C282.432 262.922 282.944 262.204 283.615 261.721C284.298 261.239 285.127 260.997 286.104 260.997C287.587 260.997 288.711 261.539 289.477 262.622C290.253 263.705 290.642 265.282 290.642 267.353C290.642 268.73 290.465 269.902 290.112 270.867C289.771 271.82 289.265 272.55 288.594 273.056C287.923 273.55 287.093 273.798 286.104 273.798ZM286.104 271.944C286.905 271.944 287.493 271.573 287.87 270.832C288.258 270.09 288.453 268.931 288.453 267.353C288.453 265.776 288.258 264.634 287.87 263.928C287.493 263.21 286.905 262.851 286.104 262.851C285.316 262.851 284.727 263.21 284.339 263.928C283.95 264.634 283.756 265.776 283.756 267.353C283.756 268.931 283.95 270.09 284.339 270.832C284.727 271.573 285.316 271.944 286.104 271.944ZM295.985 273.798C294.513 273.798 293.389 273.244 292.612 272.138C291.835 271.02 291.447 269.431 291.447 267.371C291.447 265.982 291.618 264.817 291.959 263.875C292.312 262.922 292.824 262.204 293.495 261.721C294.178 261.239 295.008 260.997 295.985 260.997C297.468 260.997 298.592 261.539 299.357 262.622C300.134 263.705 300.522 265.282 300.522 267.353C300.522 268.73 300.346 269.902 299.992 270.867C299.651 271.82 299.145 272.55 298.474 273.056C297.803 273.55 296.973 273.798 295.985 273.798ZM295.985 271.944C296.785 271.944 297.373 271.573 297.75 270.832C298.139 270.09 298.333 268.931 298.333 267.353C298.333 265.776 298.139 264.634 297.75 263.928C297.373 263.21 296.785 262.851 295.985 262.851C295.196 262.851 294.607 263.21 294.219 263.928C293.831 264.634 293.636 265.776 293.636 267.353C293.636 268.931 293.831 270.09 294.219 270.832C294.607 271.573 295.196 271.944 295.985 271.944Z" fill="#848484"/>
<line x1="29.2539" y1="239.183" x2="311.744" y2="239.183" stroke="#EDEDED" stroke-width="0.735651"/>
</g>
<rect x="29.6217" y="181.801" width="281.754" height="113.29" rx="8.45999" stroke="#E2E2E2" stroke-width="0.735651"/>
<rect x="147.148" y="142.062" width="47.0817" height="47.0817" rx="23.5408" fill="#95F476"/>
<path d="M175.874 167.297L170.908 172.262C170.831 172.339 170.74 172.401 170.639 172.442C170.539 172.484 170.431 172.506 170.322 172.506C170.213 172.506 170.105 172.484 170.005 172.442C169.904 172.401 169.813 172.339 169.736 172.262L164.77 167.297C164.615 167.141 164.527 166.93 164.527 166.71C164.527 166.491 164.615 166.28 164.77 166.124C164.926 165.969 165.137 165.881 165.356 165.881C165.576 165.881 165.787 165.969 165.943 166.124L169.495 169.677V159.539C169.495 159.319 169.582 159.109 169.738 158.953C169.893 158.798 170.103 158.711 170.323 158.711C170.542 158.711 170.753 158.798 170.908 158.953C171.063 159.109 171.15 159.319 171.15 159.539V169.677L174.703 166.124C174.858 165.968 175.069 165.881 175.289 165.881C175.509 165.881 175.72 165.968 175.875 166.124C176.031 166.279 176.118 166.49 176.118 166.71C176.118 166.93 176.031 167.141 175.875 167.296L175.874 167.297Z" fill="#031E3C"/>
</g>
<defs>
<filter id="filter0_d_3434_33709" x="-0.00109386" y="0.00109982" width="341.217" height="326.854" filterUnits="userSpaceOnUse" color-interpolation-filters="sRGB">
<feFlood flood-opacity="0" result="BackgroundImageFix"/>
<feColorMatrix in="SourceAlpha" type="matrix" values="0 0 0 0 0 0 0 0 0 0 0 0 0 0 0 0 0 0 127 0" result="hardAlpha"/>
<feOffset dy="3.83032"/>
<feGaussianBlur stdDeviation="6.065"/>
<feComposite in2="hardAlpha" operator="out"/>
<feColorMatrix type="matrix" values="0 0 0 0 0 0 0 0 0 0 0 0 0 0 0 0 0 0 0.06 0"/>
<feBlend mode="normal" in2="BackgroundImageFix" result="effect1_dropShadow_3434_33709"/>
<feBlend mode="normal" in="SourceGraphic" in2="effect1_dropShadow_3434_33709" result="shape"/>
</filter>
<clipPath id="clip0_3434_33709">
<rect x="29.2539" y="36.5078" width="281.754" height="114.026" rx="8.82782" fill="white"/>
</clipPath>
<clipPath id="clip1_3434_33709">
<rect width="29.4261" height="29.4261" fill="white" transform="translate(41.7617 51.2227)"/>
</clipPath>
<clipPath id="clip2_3434_33709">
<rect x="29.2539" y="181.434" width="282.49" height="114.026" rx="8.82782" fill="white"/>
</clipPath>
<clipPath id="clip3_3434_33709">
<rect width="29.4261" height="29.4261" fill="white" transform="translate(43.9688 196.148)"/>
</clipPath>
</defs>
</svg>
