<svg width="34" height="40" viewBox="0 0 34 40" fill="none" xmlns="http://www.w3.org/2000/svg">
<g clip-path="url(#clip0_3460_42092)">
<path d="M22.9351 19.5553L20.4843 32.3836H10.6305C10.2857 32.3835 9.94523 32.3074 9.63331 32.1606C9.32139 32.0137 9.04574 31.7998 8.82605 31.5342C8.60635 31.2685 8.44803 30.9576 8.36239 30.6236C8.27674 30.2897 8.26589 29.941 8.33061 29.6024L9.88537 21.4584C9.98769 20.9228 10.2736 20.4397 10.694 20.0923C11.1143 19.7448 11.6426 19.5549 12.1879 19.5553H22.9329L27.1782 0L19.1293 11.9388H8.86623C7.54679 11.9388 6.26861 12.3988 5.25182 13.2396C4.23503 14.0805 3.54327 15.2496 3.29567 16.5456L0.102576 33.2643C-0.565456 36.7581 2.11427 39.9995 5.67259 39.9995H26.5607L30.4679 19.5558L22.9351 19.5553Z" fill="#041F3D"/>
<path d="M17.7738 28.9512H12.9619C12.8301 28.9512 12.6999 28.9221 12.5807 28.866C12.4614 28.8099 12.356 28.7282 12.272 28.6266C12.1879 28.5251 12.1274 28.4062 12.0946 28.2786C12.0618 28.1509 12.0576 28.0176 12.0822 27.8881L12.8789 23.716C12.918 23.5113 13.0273 23.3267 13.1878 23.1939C13.3484 23.0611 13.5502 22.9884 13.7586 22.9883H18.914L17.7738 28.9512Z" fill="#041F3D"/>
<path d="M32.0441 16.7871H26.1484L27.2875 10.8242H33.1826L32.0441 16.7871Z" fill="#041F3D"/>
</g>
<defs>
<clipPath id="clip0_3460_42092">
<rect width="33.1813" height="40" fill="white"/>
</clipPath>
</defs>
</svg>
