<svg width="127" height="32" viewBox="0 0 127 32" fill="none" xmlns="http://www.w3.org/2000/svg">
<g clip-path="url(#clip0_3434_33458)">
<path d="M20.3398 15.7258C21.3718 14.8616 22.028 13.5636 22.028 12.1123C22.028 10.661 21.3718 9.36301 20.3398 8.49883C20.4581 8.44155 20.5719 8.3794 20.6804 8.31204C21.3649 7.88643 22.1728 7.64062 23.0381 7.64062C25.5078 7.64062 27.5098 9.6427 27.5098 12.1123C27.5098 14.5819 25.5078 16.584 23.0381 16.584C22.1728 16.584 21.3649 16.3382 20.6804 15.9126C20.5719 15.8452 20.4581 15.7831 20.3398 15.7258Z" fill="url(#paint0_linear_3434_33458)"/>
<path d="M19.0979 12.8142C19.5595 11.5498 19.4788 10.0976 18.7532 8.84073C18.0275 7.58388 16.8102 6.78788 15.4844 6.55547C15.5582 6.44676 15.6256 6.33601 15.6858 6.22346C16.0658 5.51263 16.6426 4.89579 17.392 4.46312C19.5308 3.2283 22.2657 3.9611 23.5005 6.09987C24.7353 8.23865 24.0025 10.9735 21.8637 12.2083C21.1143 12.641 20.2917 12.8321 19.4861 12.8058C19.3586 12.8016 19.2289 12.8047 19.0979 12.8142Z" fill="url(#paint1_linear_3434_33458)"/>
<path d="M16.5673 10.9167C16.3349 9.59093 15.5389 8.37358 14.2821 7.64793C13.0252 6.92228 11.573 6.84162 10.3086 7.30323C10.3182 7.17219 10.3212 7.04254 10.317 6.91499C10.2907 6.10938 10.4818 5.28678 10.9145 4.53737C12.1494 2.3986 14.8842 1.6658 17.023 2.90062C19.1617 4.13544 19.8946 6.87028 18.6597 9.00908C18.227 9.75846 17.6102 10.3353 16.8993 10.7153C16.7868 10.7755 16.6761 10.8429 16.5673 10.9167Z" fill="url(#paint2_linear_3434_33458)"/>
<path d="M13.4251 10.5372C12.5609 9.5052 11.2629 8.84896 9.81153 8.84896C8.3602 8.84896 7.06222 9.5052 6.19804 10.5372C6.14079 10.4189 6.07863 10.3051 6.01124 10.1966C5.58564 9.51214 5.33984 8.70424 5.33984 7.83888C5.33984 5.36923 7.34189 3.36719 9.81153 3.36719C12.2812 3.36719 14.2832 5.36923 14.2832 7.83888C14.2832 8.70424 14.0374 9.51214 13.6118 10.1966C13.5444 10.3051 13.4823 10.4189 13.4251 10.5372Z" fill="url(#paint3_linear_3434_33458)"/>
<path d="M10.5174 11.7798C9.253 11.3182 7.80073 11.3989 6.54387 12.1245C5.28701 12.8501 4.49101 14.0675 4.2586 15.3933C4.14989 15.3195 4.03914 15.252 3.92659 15.1919C3.21576 14.8118 2.59892 14.235 2.16625 13.4856C0.931421 11.3468 1.66422 8.61202 3.803 7.37719C5.94177 6.14236 8.6766 6.87516 9.91147 9.01395C10.3441 9.76334 10.5352 10.5859 10.5089 11.3915C10.5047 11.5191 10.5078 11.6487 10.5174 11.7798Z" fill="url(#paint4_linear_3434_33458)"/>
<path d="M8.61599 14.3094C7.29017 14.5418 6.07283 15.3378 5.34719 16.5947C4.62154 17.8515 4.54087 19.3038 5.00249 20.5681C4.87144 20.5586 4.74177 20.5555 4.61421 20.5596C3.8086 20.586 2.986 20.3949 2.23659 19.9622C0.0978153 18.7274 -0.634984 15.9926 0.599839 13.8538C1.83466 11.715 4.5695 10.9822 6.70828 12.217C7.45769 12.6497 8.03448 13.2665 8.41449 13.9773C8.47466 14.0899 8.54219 14.2006 8.61599 14.3094Z" fill="url(#paint5_linear_3434_33458)"/>
<path d="M8.23637 17.452C7.2044 18.3162 6.54814 19.6142 6.54814 21.0654C6.54814 22.5168 7.2044 23.8148 8.23637 24.679C8.1181 24.7362 8.00428 24.7984 7.89589 24.8658C7.21138 25.2913 6.40344 25.5371 5.53809 25.5371C3.06845 25.5371 1.06641 23.5351 1.06641 21.0654C1.06641 18.5958 3.06845 16.5938 5.53809 16.5938C6.40344 16.5938 7.21138 16.8395 7.89589 17.2652C8.00428 17.3326 8.1181 17.3947 8.23637 17.452Z" fill="url(#paint6_linear_3434_33458)"/>
<path d="M9.47906 20.3633C9.01738 21.6277 9.09804 23.0799 9.82371 24.3368C10.5494 25.5937 11.7667 26.3896 13.0925 26.622C13.0187 26.7308 12.9513 26.8415 12.8911 26.9541C12.5111 27.6649 11.9343 28.2817 11.1849 28.7144C9.04606 29.9493 6.31123 29.2164 5.0764 27.0777C3.84158 24.9389 4.57438 22.2041 6.71315 20.9692C7.46257 20.5365 8.28518 20.3454 9.09077 20.3718C9.2183 20.3759 9.34798 20.3729 9.47906 20.3633Z" fill="url(#paint7_linear_3434_33458)"/>
<path d="M12.0086 22.2617C12.241 23.5875 13.037 24.8049 14.2938 25.5304C15.5507 26.2561 17.003 26.3368 18.2674 25.8752C18.2578 26.0062 18.2547 26.1358 18.2589 26.2635C18.2852 27.069 18.0942 27.8917 17.6615 28.641C16.4266 30.7799 13.6918 31.5126 11.553 30.2778C9.41419 29.043 8.68141 26.3082 9.91628 24.1694C10.349 23.42 10.9658 22.8432 11.6766 22.4631C11.7891 22.403 11.8999 22.3354 12.0086 22.2617Z" fill="url(#paint8_linear_3434_33458)"/>
<path d="M15.1511 22.6406C16.0153 23.6726 17.3133 24.3288 18.7647 24.3288C20.216 24.3288 21.514 23.6726 22.3782 22.6406C22.4354 22.7589 22.4975 22.8727 22.565 22.9811C22.9905 23.6656 23.2363 24.4735 23.2363 25.3389C23.2363 27.8086 21.2343 29.8106 18.7647 29.8106C16.295 29.8106 14.293 27.8086 14.293 25.3389C14.293 24.4735 14.5388 23.6656 14.9643 22.9811C15.0318 22.8727 15.0939 22.7589 15.1511 22.6406Z" fill="url(#paint9_linear_3434_33458)"/>
<path d="M18.0586 21.3986C19.323 21.8602 20.7752 21.7795 22.0321 21.054C23.2889 20.3283 24.0849 19.1109 24.3173 17.7852C24.426 17.8589 24.5368 17.9264 24.6493 17.9866C25.3602 18.3666 25.977 18.9434 26.4097 19.6928C27.6446 21.8316 26.9117 24.5664 24.773 25.8013C22.6342 27.0361 19.8994 26.3033 18.6645 24.1645C18.2318 23.4151 18.0407 22.5925 18.067 21.7869C18.0712 21.6594 18.0682 21.5297 18.0586 21.3986Z" fill="url(#paint10_linear_3434_33458)"/>
<path d="M23.2324 16.5769C23.2315 16.5785 23.2306 16.58 23.2297 16.5816C22.5041 17.8385 21.2867 18.6345 19.9609 18.8669C20.0347 18.9756 20.1022 19.0864 20.1624 19.1989C20.5424 19.9097 21.1192 20.5266 21.8686 20.9592C24.0074 22.1941 26.7422 21.4612 27.9771 19.3225C29.0356 17.4888 28.6481 15.2171 27.1682 13.8281C26.5181 15.3883 25.0095 16.5012 23.2324 16.5769Z" fill="url(#paint11_linear_3434_33458)"/>
<path d="M39.0614 8.13306V21.4884H36.1016V8.13306H39.0614ZM36.5708 21.4884L36.6249 18.8715H44.2952V21.4884H36.5708ZM44.7585 16.9584C44.7585 16.0079 44.957 15.1777 45.354 14.4678C45.7511 13.7459 46.3105 13.1864 47.0325 12.7894C47.7544 12.3923 48.5966 12.1938 49.5592 12.1938C50.5217 12.1938 51.3579 12.3923 52.0678 12.7894C52.7897 13.1864 53.3492 13.7459 53.7462 14.4678C54.1433 15.1777 54.3418 16.0079 54.3418 16.9584C54.3418 17.909 54.1433 18.7392 53.7462 19.4491C53.3492 20.1589 52.7897 20.7124 52.0678 21.1094C51.3579 21.5065 50.5217 21.705 49.5592 21.705C48.5966 21.705 47.7544 21.5065 47.0325 21.1094C46.3105 20.7124 45.7511 20.1589 45.354 19.4491C44.957 18.7392 44.7585 17.909 44.7585 16.9584ZM47.5558 16.9404C47.5558 17.3976 47.6401 17.8007 47.8085 18.1496C47.9769 18.4865 48.2116 18.7512 48.5123 18.9437C48.8132 19.1242 49.1621 19.2144 49.5592 19.2144C49.9562 19.2144 50.3051 19.1242 50.6059 18.9437C50.9067 18.7512 51.1353 18.4865 51.2918 18.1496C51.4602 17.8007 51.5444 17.3976 51.5444 16.9404C51.5444 16.4832 51.4602 16.0861 51.2918 15.7492C51.1353 15.4124 50.9067 15.1537 50.6059 14.9732C50.3051 14.7807 49.9562 14.6844 49.5592 14.6844C49.1621 14.6844 48.8132 14.7807 48.5123 14.9732C48.2116 15.1537 47.9769 15.4124 47.8085 15.7492C47.6401 16.0861 47.5558 16.4832 47.5558 16.9404ZM54.9694 16.8141C54.9694 15.8876 55.1559 15.0755 55.5289 14.3776C55.9019 13.6798 56.4132 13.1383 57.063 12.7533C57.7127 12.3562 58.4587 12.1577 59.3009 12.1577C60.0107 12.1577 60.6364 12.3021 61.1778 12.5909C61.7313 12.8796 62.1043 13.2587 62.2968 13.7279L62.0261 13.9084L62.2427 12.4646H64.7513V20.9109C64.7513 21.9697 64.5467 22.8841 64.1377 23.6542C63.7286 24.4362 63.1451 25.0378 62.387 25.4589C61.6411 25.88 60.7507 26.0906 59.7159 26.0906C58.8497 26.0906 58.0676 25.9162 57.3698 25.5672C56.6839 25.2303 56.1245 24.7491 55.6913 24.1234C55.2702 23.4977 55.0175 22.7759 54.9333 21.9576H57.7488C57.7728 22.475 57.9774 22.8721 58.3624 23.1489C58.7594 23.4256 59.2647 23.5639 59.8784 23.5639C60.5643 23.5639 61.0936 23.3714 61.4666 22.9864C61.8396 22.6134 62.0261 22.1141 62.0261 21.4884V19.5753L62.2787 19.81C62.0862 20.2793 61.7132 20.6582 61.1598 20.947C60.6063 21.2358 59.9687 21.3802 59.2467 21.3802C58.4165 21.3802 57.6765 21.1877 57.0268 20.8026C56.3892 20.4176 55.8838 19.8822 55.5108 19.1964C55.1499 18.5106 54.9694 17.7165 54.9694 16.8141ZM57.7848 16.7419C57.7848 17.175 57.8751 17.56 58.0556 17.8969C58.2361 18.2339 58.4767 18.4985 58.7775 18.691C59.0783 18.8715 59.4091 18.9618 59.7701 18.9618C60.2032 18.9618 60.5823 18.8715 60.9072 18.691C61.244 18.4985 61.5027 18.2339 61.6832 17.8969C61.8757 17.56 61.9719 17.175 61.9719 16.7419C61.9719 16.2967 61.8757 15.9177 61.6832 15.6048C61.4907 15.28 61.2259 15.0273 60.8891 14.8469C60.5643 14.6664 60.1852 14.5761 59.7521 14.5761C59.3911 14.5761 59.0603 14.6664 58.7594 14.8469C58.4587 15.0273 58.218 15.28 58.0376 15.6048C57.869 15.9297 57.7848 16.3087 57.7848 16.7419ZM65.7418 16.9584C65.7418 16.0079 65.9404 15.1777 66.3374 14.4678C66.7345 13.7459 67.2939 13.1864 68.0159 12.7894C68.7377 12.3923 69.58 12.1938 70.5426 12.1938C71.5051 12.1938 72.3413 12.3923 73.0512 12.7894C73.7731 13.1864 74.3325 13.7459 74.7296 14.4678C75.1266 15.1777 75.3252 16.0079 75.3252 16.9584C75.3252 17.909 75.1266 18.7392 74.7296 19.4491C74.3325 20.1589 73.7731 20.7124 73.0512 21.1094C72.3413 21.5065 71.5051 21.705 70.5426 21.705C69.58 21.705 68.7377 21.5065 68.0159 21.1094C67.2939 20.7124 66.7345 20.1589 66.3374 19.4491C65.9404 18.7392 65.7418 17.909 65.7418 16.9584ZM68.5392 16.9404C68.5392 17.3976 68.6234 17.8007 68.7919 18.1496C68.9603 18.4865 69.195 18.7512 69.4958 18.9437C69.7966 19.1242 70.1455 19.2144 70.5426 19.2144C70.9396 19.2144 71.2886 19.1242 71.5893 18.9437C71.8901 18.7512 72.1187 18.4865 72.2751 18.1496C72.4436 17.8007 72.5278 17.3976 72.5278 16.9404C72.5278 16.4832 72.4436 16.0861 72.2751 15.7492C72.1187 15.4124 71.8901 15.1537 71.5893 14.9732C71.2886 14.7807 70.9396 14.6844 70.5426 14.6844C70.1455 14.6844 69.7966 14.7807 69.4958 14.9732C69.195 15.1537 68.9603 15.4124 68.7919 15.7492C68.6234 16.0861 68.5392 16.4832 68.5392 16.9404ZM76.4943 21.4884V12.4646H79.2916V21.4884H76.4943ZM77.9019 11.0568C77.4568 11.0568 77.0778 10.9064 76.7649 10.6056C76.4642 10.2928 76.3137 9.91375 76.3137 9.46859C76.3137 9.02344 76.4642 8.65044 76.7649 8.3496C77.0778 8.04884 77.4568 7.89844 77.9019 7.89844C78.3351 7.89844 78.7021 8.04884 79.0028 8.3496C79.3157 8.65044 79.4721 9.02344 79.4721 9.46859C79.4721 9.91375 79.3157 10.2928 79.0028 10.6056C78.7021 10.9064 78.3351 11.0568 77.9019 11.0568ZM81.1005 25.8199V12.4646H83.6456L83.7894 13.5655C84.0423 13.1444 84.4457 12.8075 84.9986 12.5547C85.5523 12.3021 86.1482 12.1758 86.7855 12.1758C87.6277 12.1758 88.3616 12.3622 88.9873 12.7352C89.6129 13.1082 90.1063 13.6436 90.4675 14.3415C90.8279 15.0273 91.0204 15.8575 91.0452 16.8321C91.0692 17.7826 90.9122 18.6309 90.5758 19.3768C90.2386 20.1107 89.7518 20.6883 89.1137 21.1094C88.4757 21.5306 87.7062 21.7411 86.8037 21.7411C86.178 21.7411 85.5945 21.6328 85.0531 21.4163C84.5118 21.1997 84.1084 20.9229 83.844 20.5861V25.8199H81.1005ZM83.8977 16.9765C83.8977 17.4217 83.9878 17.8187 84.1688 18.1677C84.3614 18.5045 84.62 18.7693 84.9449 18.9618C85.2812 19.1423 85.6664 19.2324 86.0995 19.2324C86.545 19.2324 86.9243 19.1362 87.2367 18.9437C87.5616 18.7512 87.8087 18.4865 87.9765 18.1496C88.1575 17.8127 88.2476 17.4217 88.2476 16.9765C88.2476 16.5313 88.1575 16.1403 87.9765 15.8034C87.8087 15.4665 87.5616 15.2018 87.2367 15.0093C86.9243 14.8168 86.545 14.7205 86.0995 14.7205C85.6664 14.7205 85.2812 14.8168 84.9449 15.0093C84.62 15.1898 84.3614 15.4485 84.1688 15.7854C83.9878 16.1222 83.8977 16.5193 83.8977 16.9765ZM91.5213 18.6369H94.0306C94.0306 18.9497 94.1322 19.1964 94.3372 19.3768C94.5537 19.5573 94.8661 19.6476 95.2753 19.6476C95.5158 19.6476 95.715 19.6175 95.8712 19.5573C96.0398 19.4972 96.1662 19.4129 96.2497 19.3047C96.3464 19.1843 96.3943 19.052 96.3943 18.9076C96.3943 18.7512 96.3406 18.6188 96.2323 18.5106C96.1356 18.4023 95.967 18.3181 95.7265 18.2579L94.1388 17.8428C93.2479 17.6022 92.6164 17.2472 92.2437 16.778C91.8701 16.3087 91.6841 15.7733 91.6841 15.1717C91.6841 14.5701 91.8345 14.0467 92.1354 13.6016C92.4478 13.1444 92.8693 12.7954 93.3983 12.5547C93.9281 12.3021 94.5231 12.1758 95.1852 12.1758C96.1836 12.1758 97.0018 12.4525 97.6399 13.006C98.2895 13.5474 98.6325 14.2873 98.6689 15.2258H96.1596C96.172 14.913 96.0819 14.6664 95.8893 14.4858C95.6968 14.2934 95.4439 14.1972 95.1314 14.1972C94.8546 14.1972 94.6256 14.2693 94.4455 14.4137C94.2769 14.546 94.1925 14.7326 94.1925 14.9732C94.1925 15.2018 94.2769 15.3702 94.4455 15.4786C94.6141 15.5748 94.8422 15.659 95.1314 15.7312L96.7373 16.1283C97.4837 16.3087 98.049 16.6156 98.4341 17.0487C98.8193 17.4818 99.011 18.0353 99.011 18.7091C99.011 19.6355 98.6689 20.3694 97.9829 20.9109C97.2969 21.4523 96.4067 21.7231 95.3116 21.7231C94.181 21.7231 93.2718 21.4403 92.5867 20.8748C91.9122 20.2973 91.5577 19.5513 91.5213 18.6369ZM103.446 21.7231C102.387 21.7231 101.569 21.3921 100.991 20.7305C100.414 20.0687 100.125 19.2023 100.125 18.1315V12.4646H102.905V17.1209C102.905 17.9631 103.055 18.5286 103.356 18.8174C103.657 19.1061 104.053 19.2505 104.547 19.2505C105.185 19.2505 105.624 19.07 105.864 18.7091C106.105 18.3482 106.226 17.8308 106.226 17.1569V12.4646H109.005V21.4884H106.388L106.207 20.4778C105.93 20.8507 105.54 21.1516 105.035 21.3802C104.529 21.6088 104 21.7231 103.446 21.7231ZM113.593 21.4884H110.795V12.4646H113.395L113.593 14.0166L113.286 13.6918C113.527 13.2345 113.888 12.8676 114.369 12.5909C114.862 12.3021 115.391 12.1577 115.958 12.1577C116.848 12.1577 117.545 12.3562 118.051 12.7533C118.568 13.1503 118.941 13.6737 119.169 14.3234H118.736C118.881 13.6737 119.23 13.1503 119.783 12.7533C120.337 12.3562 120.998 12.1577 121.769 12.1577C122.936 12.1577 123.796 12.4705 124.35 13.0962C124.903 13.7218 125.18 14.5521 125.18 15.5868V21.4884H122.473V16.2727C122.473 15.7071 122.334 15.286 122.057 15.0093C121.793 14.7326 121.438 14.5942 120.993 14.5942C120.728 14.5942 120.475 14.6544 120.235 14.7746C119.994 14.8829 119.795 15.0814 119.639 15.3702C119.483 15.647 119.404 16.044 119.404 16.5614V21.4884H116.661V16.2727C116.661 15.7071 116.529 15.292 116.264 15.0273C115.999 14.7506 115.644 14.6122 115.199 14.6122C114.934 14.6122 114.676 14.6724 114.423 14.7927C114.182 14.901 113.984 15.0995 113.828 15.3883C113.671 15.665 113.593 16.056 113.593 16.5614V21.4884Z" fill="#1B3D5B"/>
</g>
<defs>
<linearGradient id="paint0_linear_3434_33458" x1="20.8997" y1="7.64062" x2="20.8997" y2="16.584" gradientUnits="userSpaceOnUse">
<stop stop-color="#25136D"/>
<stop offset="1" stop-color="#3D9BA2"/>
</linearGradient>
<linearGradient id="paint1_linear_3434_33458" x1="15.5402" y1="5.5323" x2="20.0118" y2="13.2775" gradientUnits="userSpaceOnUse">
<stop stop-color="#25136D"/>
<stop offset="1" stop-color="#3D9BA2"/>
</linearGradient>
<linearGradient id="paint2_linear_3434_33458" x1="9.84534" y1="6.38926" x2="17.5905" y2="10.8609" gradientUnits="userSpaceOnUse">
<stop stop-color="#25136D"/>
<stop offset="1" stop-color="#3D9BA2"/>
</linearGradient>
<linearGradient id="paint3_linear_3434_33458" x1="5.33984" y1="9.97721" x2="14.2832" y2="9.97721" gradientUnits="userSpaceOnUse">
<stop stop-color="#25136D"/>
<stop offset="1" stop-color="#3D9BA2"/>
</linearGradient>
<linearGradient id="paint4_linear_3434_33458" x1="3.23544" y1="15.3375" x2="10.9806" y2="10.8658" gradientUnits="userSpaceOnUse">
<stop stop-color="#25136D"/>
<stop offset="1" stop-color="#3D9BA2"/>
</linearGradient>
<linearGradient id="paint5_linear_3434_33458" x1="4.0885" y1="21.0314" x2="8.56021" y2="13.2862" gradientUnits="userSpaceOnUse">
<stop stop-color="#25136D"/>
<stop offset="1" stop-color="#3D9BA2"/>
</linearGradient>
<linearGradient id="paint6_linear_3434_33458" x1="7.67647" y1="25.5371" x2="7.67647" y2="16.5938" gradientUnits="userSpaceOnUse">
<stop stop-color="#25136D"/>
<stop offset="1" stop-color="#3D9BA2"/>
</linearGradient>
<linearGradient id="paint7_linear_3434_33458" x1="13.0367" y1="27.6452" x2="8.56503" y2="19.9" gradientUnits="userSpaceOnUse">
<stop stop-color="#25136D"/>
<stop offset="1" stop-color="#3D9BA2"/>
</linearGradient>
<linearGradient id="paint8_linear_3434_33458" x1="18.7306" y1="26.7892" x2="10.9854" y2="22.3174" gradientUnits="userSpaceOnUse">
<stop stop-color="#25136D"/>
<stop offset="1" stop-color="#3D9BA2"/>
</linearGradient>
<linearGradient id="paint9_linear_3434_33458" x1="23.2363" y1="23.2005" x2="14.293" y2="23.2005" gradientUnits="userSpaceOnUse">
<stop stop-color="#25136D"/>
<stop offset="1" stop-color="#3D9BA2"/>
</linearGradient>
<linearGradient id="paint10_linear_3434_33458" x1="25.3405" y1="17.8409" x2="17.5953" y2="22.3126" gradientUnits="userSpaceOnUse">
<stop stop-color="#25136D"/>
<stop offset="1" stop-color="#3D9BA2"/>
</linearGradient>
<linearGradient id="paint11_linear_3434_33458" x1="24.4884" y1="12.1449" x2="20.0167" y2="19.8901" gradientUnits="userSpaceOnUse">
<stop stop-color="#25136D"/>
<stop offset="1" stop-color="#3D9BA2"/>
</linearGradient>
<clipPath id="clip0_3434_33458">
<rect width="126.454" height="31.4069" fill="white"/>
</clipPath>
</defs>
</svg>
