<svg width="119" height="32" viewBox="0 0 119 32" fill="none" xmlns="http://www.w3.org/2000/svg">
<path d="M40.2421 22.6237C39.7082 22.6527 39.1801 22.5009 38.743 22.1928C38.5605 22.0574 38.4135 21.8796 38.315 21.6748C38.2164 21.4698 38.1693 21.2441 38.1775 21.0169V12.6957C38.1732 12.6605 38.1769 12.6247 38.1885 12.5911C38.2 12.5575 38.219 12.5271 38.2441 12.5019C38.2693 12.4768 38.2997 12.4578 38.3333 12.4463C38.3668 12.4347 38.4027 12.431 38.4378 12.4353H39.9459C40.1165 12.4353 40.1972 12.5251 40.1972 12.6957V20.3706C40.1972 20.7117 40.3498 20.8822 40.664 20.8822C40.7972 20.8877 40.9304 20.8726 41.059 20.8373C41.2385 20.8373 41.3373 20.8912 41.3462 21.0528L41.4809 22.1748C41.4873 22.2076 41.4867 22.2413 41.4791 22.2738C41.4715 22.3062 41.4569 22.3367 41.4364 22.363C41.4161 22.3894 41.3902 22.4111 41.3608 22.4266C41.3312 22.4422 41.2987 22.4512 41.2654 22.4531C40.9351 22.5623 40.59 22.6198 40.2421 22.6237Z" fill="#394149"/>
<path d="M48.7263 21.6655C47.9686 22.2916 47.0163 22.634 46.0334 22.634C45.0505 22.634 44.0982 22.2916 43.3404 21.6655C42.6745 20.9931 42.3008 20.085 42.3008 19.1386C42.3008 18.1922 42.6745 17.284 43.3404 16.6117C44.0997 15.9888 45.0514 15.6484 46.0334 15.6484C47.0154 15.6484 47.9671 15.9888 48.7263 16.6117C49.377 17.2902 49.7403 18.194 49.7403 19.1341C49.7403 20.0742 49.377 20.978 48.7263 21.6565V21.6655ZM44.7587 20.4806C45.1104 20.7991 45.5679 20.9755 46.0424 20.9755C46.5169 20.9755 46.9744 20.7991 47.326 20.4806C47.6443 20.1147 47.8195 19.646 47.8195 19.161C47.8195 18.6761 47.6443 18.2075 47.326 17.8415C46.9744 17.523 46.5169 17.3465 46.0424 17.3465C45.5679 17.3465 45.1104 17.523 44.7587 17.8415C44.4405 18.2075 44.2652 18.6761 44.2652 19.161C44.2652 19.646 44.4405 20.1147 44.7587 20.4806Z" fill="#394149"/>
<path d="M58.0437 15.8767C58.2142 15.8767 58.295 15.9664 58.295 16.137V22.5731C58.3107 23.0076 58.2294 23.44 58.057 23.839C57.8847 24.2381 57.6256 24.5937 57.2986 24.8801C56.5728 25.499 55.6394 25.8197 54.6864 25.7777C53.8258 25.808 52.9765 25.573 52.2538 25.1045C51.9452 24.9019 51.6816 24.6379 51.4793 24.3291C51.277 24.0202 51.1404 23.6731 51.0779 23.3092C51.0779 23.1297 51.0779 23.0489 51.3203 23.0489H52.8283C52.8923 23.051 52.9544 23.0718 53.0069 23.1084C53.0595 23.145 53.1004 23.196 53.1245 23.2553C53.2224 23.528 53.4174 23.755 53.6721 23.8927C53.9826 24.0529 54.3282 24.1332 54.6775 24.1261C54.8882 24.1376 55.0992 24.107 55.298 24.0361C55.4968 23.9653 55.6795 23.8554 55.8354 23.7131C55.9779 23.5643 56.0887 23.3881 56.1612 23.1953C56.2337 23.0025 56.2664 22.7969 56.2573 22.5911V22.0256C55.7174 22.4227 55.0602 22.6281 54.3902 22.609C53.9213 22.6261 53.4538 22.5483 53.0157 22.3801C52.5776 22.2119 52.1781 21.9571 51.8409 21.6306C51.1938 20.9611 50.832 20.0663 50.832 19.1351C50.832 18.204 51.1938 17.3092 51.8409 16.6397C52.1797 16.3161 52.5798 16.0637 53.0175 15.8972C53.4554 15.7307 53.9221 15.6535 54.3902 15.6702C55.0796 15.652 55.7545 15.8706 56.3022 16.2896V16.146C56.2981 16.1116 56.3017 16.0767 56.3127 16.0438C56.3238 16.011 56.342 15.9811 56.366 15.9561C56.3901 15.9311 56.4195 15.9119 56.4519 15.8997C56.4844 15.8875 56.5191 15.8828 56.5536 15.8856L58.0437 15.8767ZM54.5608 21.0112C54.792 21.0184 55.0221 20.9747 55.2346 20.8831C55.447 20.7916 55.6369 20.6546 55.7906 20.4816C56.089 20.0962 56.251 19.6225 56.251 19.1351C56.251 18.6477 56.089 18.1741 55.7906 17.7887C55.6374 17.6181 55.4487 17.483 55.2379 17.3931C55.0269 17.3031 54.7989 17.2605 54.5698 17.268C54.3358 17.2607 54.1032 17.3042 53.8877 17.3957C53.6723 17.4871 53.4793 17.6243 53.322 17.7976C52.9914 18.1663 52.8175 18.6493 52.8373 19.1441C52.8211 19.634 52.9911 20.1119 53.313 20.4816C53.4707 20.6545 53.6638 20.7914 53.8791 20.8828C54.0944 20.9741 54.3269 21.0179 54.5608 21.0112Z" fill="#394149"/>
<path d="M66.0413 21.6629C65.2821 22.2857 64.3304 22.6261 63.3484 22.6261C62.3663 22.6261 61.4147 22.2857 60.6554 21.6629C60.0042 20.9828 59.6406 20.0776 59.6406 19.136C59.6406 18.1944 60.0042 17.2892 60.6554 16.6091C61.4154 15.9878 62.3668 15.6484 63.3484 15.6484C64.3299 15.6484 65.2814 15.9878 66.0413 16.6091C66.692 17.2876 67.0553 18.1914 67.0553 19.1315C67.0553 20.0716 66.692 20.9754 66.0413 21.6539V21.6629ZM62.0647 20.478C62.2368 20.6417 62.4397 20.7696 62.6616 20.8544C62.8835 20.9391 63.1199 20.979 63.3573 20.9717C63.5932 20.9778 63.8281 20.9374 64.0484 20.8527C64.2686 20.7679 64.47 20.6406 64.641 20.478C64.9541 20.1096 65.126 19.6419 65.126 19.1584C65.126 18.675 64.9541 18.2073 64.641 17.8389C64.47 17.6763 64.2686 17.5489 64.0484 17.4643C63.8281 17.3796 63.5932 17.3391 63.3573 17.3452C63.1199 17.3379 62.8835 17.3778 62.6616 17.4625C62.4397 17.5472 62.2368 17.6752 62.0647 17.8389C61.7517 18.2073 61.5798 18.675 61.5798 19.1584C61.5798 19.6419 61.7517 20.1096 62.0647 20.478Z" fill="#394149"/>
<path d="M70.2934 14.3504C70.0562 14.5582 69.7515 14.6726 69.4362 14.6726C69.1209 14.6726 68.8163 14.5582 68.5789 14.3504C68.4714 14.2489 68.3857 14.1265 68.3271 13.9907C68.2685 13.8549 68.2383 13.7084 68.2383 13.5605C68.2383 13.4126 68.2685 13.2663 68.3271 13.1304C68.3857 12.9945 68.4714 12.8721 68.5789 12.7706C68.8187 12.5681 69.1224 12.457 69.4362 12.457C69.75 12.457 70.0537 12.5681 70.2934 12.7706C70.4011 12.8721 70.4868 12.9945 70.5453 13.1304C70.6039 13.2663 70.6341 13.4126 70.6341 13.5605C70.6341 13.7084 70.6039 13.8549 70.5453 13.9907C70.4868 14.1265 70.4011 14.2489 70.2934 14.3504ZM70.482 22.6268C69.9484 22.653 69.4212 22.5015 68.9829 22.1959C68.8031 22.0586 68.6586 21.8801 68.5619 21.6755C68.465 21.471 68.4185 21.2462 68.4263 21.02V16.1368C68.422 16.1016 68.4257 16.0658 68.4373 16.0322C68.4488 15.9986 68.4678 15.9682 68.4929 15.9431C68.5181 15.9179 68.5485 15.8989 68.5821 15.8874C68.6157 15.8758 68.6515 15.8721 68.6867 15.8764H70.1947C70.3653 15.8764 70.4461 15.9662 70.4461 16.1368V20.3737C70.4461 20.7148 70.5986 20.8853 70.9038 20.8853C71.04 20.8903 71.1761 20.8751 71.3078 20.8405C71.4873 20.8405 71.5861 20.8943 71.595 21.0559L71.7297 22.1779C71.7362 22.2107 71.7355 22.2444 71.7279 22.2769C71.7203 22.3093 71.7057 22.3398 71.6853 22.3661C71.6649 22.3925 71.639 22.4142 71.6096 22.4297C71.5801 22.4453 71.5476 22.4543 71.5143 22.4562C71.181 22.566 70.8328 22.6235 70.482 22.6268Z" fill="#394149"/>
<path d="M77.2803 15.6588C77.7514 15.6402 78.2213 15.7164 78.6623 15.883C79.1033 16.0496 79.5065 16.303 79.8476 16.6283C80.4824 17.3096 80.8354 18.2061 80.8354 19.1372C80.8354 20.0683 80.4824 20.9649 79.8476 21.6461C79.5081 21.9744 79.1055 22.2303 78.6642 22.3985C78.2229 22.5667 77.7522 22.6436 77.2803 22.6246C76.6081 22.6396 75.9494 22.4347 75.4042 22.0411V25.2816C75.4042 25.4522 75.3145 25.533 75.1439 25.533H73.6358C73.6015 25.5394 73.566 25.5374 73.5325 25.527C73.4991 25.5166 73.4687 25.4983 73.4439 25.4735C73.4192 25.4488 73.4008 25.4184 73.3905 25.3849C73.3801 25.3515 73.3781 25.3161 73.3845 25.2816V17.9209C73.3951 17.8489 73.3886 17.7755 73.3658 17.7064C73.3429 17.6373 73.3042 17.5745 73.2527 17.5231C73.2013 17.4716 73.1386 17.4329 73.0694 17.41C73.0004 17.3871 72.9269 17.3808 72.8549 17.3913H72.5587C72.3612 17.3913 72.2624 17.3195 72.2624 17.1758V16.1166C72.2578 16.0511 72.2757 15.9859 72.3133 15.9321C72.3509 15.8781 72.4058 15.8387 72.4689 15.8204C72.7794 15.7076 73.108 15.6528 73.4384 15.6588C73.7678 15.6296 74.0984 15.6996 74.3879 15.8594C74.6773 16.0194 74.9125 16.2621 75.0631 16.5565C75.3522 16.264 75.698 16.0336 76.0792 15.8792C76.4605 15.7249 76.8692 15.6498 77.2803 15.6588ZM75.88 20.4792C76.04 20.6465 76.2323 20.7796 76.4452 20.8706C76.6581 20.9615 76.8872 21.0084 77.1187 21.0084C77.3502 21.0084 77.5794 20.9615 77.7922 20.8706C78.0052 20.7796 78.1974 20.6465 78.3575 20.4792C78.6946 20.1032 78.8717 19.6104 78.8512 19.1058C78.8747 18.6008 78.6972 18.1069 78.3575 17.7324C78.1974 17.5652 78.0052 17.432 77.7922 17.3411C77.5794 17.2501 77.3502 17.2032 77.1187 17.2032C76.8872 17.2032 76.6581 17.2501 76.4452 17.3411C76.2323 17.432 76.04 17.5652 75.88 17.7324C75.5534 18.1135 75.3834 18.6043 75.4042 19.1058C75.386 19.6069 75.5557 20.0968 75.88 20.4792Z" fill="#394149"/>
<path d="M85.0709 22.6235C84.2651 22.6566 83.4661 22.4639 82.7639 22.067C82.4822 21.8973 82.2424 21.6663 82.0621 21.3913C81.8818 21.1163 81.7658 20.8041 81.7227 20.4781C81.7227 20.2986 81.7855 20.2088 81.983 20.2088H83.3025C83.3653 20.2113 83.4262 20.231 83.4785 20.2659C83.5307 20.3007 83.5723 20.3493 83.5987 20.4063C83.7872 20.891 84.281 21.1334 85.0709 21.1334C85.3465 21.1461 85.6208 21.0905 85.8698 20.9718C85.9558 20.933 86.0295 20.8716 86.0833 20.7942C86.137 20.7167 86.1687 20.626 86.175 20.532C86.175 20.2986 86.0314 20.137 85.7441 20.0293C85.4035 19.9159 85.0512 19.8406 84.6939 19.8049C84.2706 19.7569 83.8509 19.682 83.4372 19.5805C83.0348 19.4894 82.669 19.2799 82.3869 18.979C82.2208 18.7746 82.0985 18.538 82.0276 18.2843C81.9568 18.0305 81.9389 17.7648 81.9751 17.5038C82.0113 17.2428 82.1008 16.992 82.2381 16.7671C82.3753 16.5422 82.5574 16.3479 82.7729 16.1963C83.4199 15.7842 84.1791 15.5834 84.9452 15.6218C85.687 15.5968 86.421 15.7803 87.0637 16.1514C87.3227 16.2982 87.5457 16.5008 87.7165 16.7446C87.8874 16.9884 88.0016 17.2672 88.0511 17.5608C88.0511 17.7403 87.9703 17.83 87.8087 17.83H86.4802C86.4243 17.8334 86.3686 17.8197 86.3206 17.7909C86.2726 17.7621 86.2343 17.7194 86.2109 17.6685C86.1221 17.4559 85.955 17.2855 85.7441 17.1927C85.5062 17.0683 85.2405 17.0065 84.9722 17.0132C84.709 16.9989 84.4466 17.0514 84.2091 17.1658C84.1255 17.1981 84.0535 17.2547 84.0022 17.3283C83.9511 17.4019 83.9231 17.4891 83.9219 17.5787C83.9276 17.7015 83.9726 17.8192 84.0502 17.9145C84.1277 18.0098 84.2337 18.0777 84.3528 18.1083C84.6975 18.2383 85.0559 18.3286 85.421 18.3776C85.8408 18.4329 86.2573 18.5108 86.6687 18.611C87.071 18.7021 87.4368 18.9115 87.719 19.2124C87.8699 19.3782 87.9865 19.5722 88.0619 19.7833C88.1374 19.9944 88.1704 20.2183 88.1588 20.4422C88.1665 20.7525 88.0937 21.0595 87.9474 21.3333C87.8011 21.607 87.5863 21.8381 87.324 22.0041C86.6534 22.4347 85.8675 22.6507 85.0709 22.6235Z" fill="#394149"/>
<path d="M97.6455 22.1765C97.6509 22.2084 97.6491 22.241 97.6419 22.2723C97.6338 22.3037 97.6204 22.3331 97.6006 22.3591C97.5818 22.385 97.5575 22.4068 97.5297 22.4233C97.5019 22.4397 97.4713 22.4504 97.439 22.4548C97.1114 22.5618 96.7694 22.6193 96.4247 22.6253C96.0836 22.6607 95.7389 22.6074 95.4247 22.4706C95.1096 22.3338 94.8358 22.1181 94.6294 21.8444C93.9956 22.3895 93.1752 22.6692 92.3404 22.6253C91.9526 22.6432 91.5657 22.5797 91.2039 22.4391C90.8422 22.2984 90.5137 22.0836 90.2399 21.8085C89.9679 21.5202 89.7571 21.18 89.6198 20.8083C89.4825 20.4366 89.4218 20.041 89.441 19.6451V16.1353C89.441 15.9648 89.5218 15.875 89.6923 15.875H91.2004C91.3709 15.875 91.4517 15.9648 91.4517 16.1353V19.3758C91.4355 19.7796 91.5729 20.1744 91.8377 20.4799C91.9696 20.62 92.1303 20.73 92.3081 20.8028C92.4858 20.8756 92.6779 20.9094 92.87 20.9018C93.0666 20.9105 93.2632 20.88 93.4481 20.8122C93.633 20.7444 93.8026 20.6406 93.9472 20.5069C94.0836 20.3659 94.1904 20.1984 94.2596 20.0147C94.3296 19.8309 94.3601 19.6349 94.3511 19.4387V16.1353C94.3511 15.9648 94.4319 15.875 94.6025 15.875H96.1285C96.299 15.875 96.3798 15.9648 96.3798 16.1353V20.3632C96.3798 20.7133 96.5324 20.8839 96.8286 20.8839C96.9678 20.8893 97.1069 20.8742 97.2415 20.839C97.2757 20.8295 97.3116 20.8278 97.3457 20.8341C97.3807 20.8403 97.413 20.8543 97.4417 20.875C97.4704 20.8957 97.4938 20.9227 97.5108 20.9537C97.527 20.9848 97.536 21.0193 97.5378 21.0544L97.6455 22.1765Z" fill="#394149"/>
<path d="M111.909 22.1754C111.917 22.2075 111.918 22.2411 111.911 22.2736C111.904 22.306 111.891 22.3367 111.871 22.3633C111.851 22.3899 111.826 22.4118 111.796 22.4274C111.768 22.4431 111.735 22.4521 111.702 22.4537C111.368 22.5622 111.021 22.6197 110.67 22.6242C110.136 22.6518 109.609 22.5002 109.171 22.1934C108.981 22.0619 108.828 21.8859 108.723 21.6808C108.618 21.4757 108.565 21.2478 108.569 21.0174V18.908C108.588 18.5055 108.454 18.1108 108.192 17.8038C108.067 17.6635 107.91 17.553 107.737 17.48C107.563 17.4071 107.375 17.3736 107.187 17.382C107.017 17.3756 106.849 17.4078 106.692 17.4762C106.537 17.5446 106.4 17.6475 106.289 17.7769C106.052 18.0777 105.931 18.4537 105.948 18.8361V22.1485C105.948 22.319 105.867 22.4088 105.697 22.4088H104.18C104.145 22.4132 104.109 22.4094 104.076 22.3979C104.042 22.3864 104.011 22.3673 103.986 22.3422C103.961 22.3171 103.942 22.2866 103.93 22.253C103.919 22.2195 103.915 22.1838 103.919 22.1485V18.908C103.939 18.5098 103.814 18.1179 103.569 17.8038C103.46 17.6719 103.323 17.5657 103.167 17.4928C103.013 17.4199 102.843 17.382 102.672 17.382C102.489 17.3746 102.306 17.4059 102.136 17.4741C101.965 17.5421 101.812 17.6453 101.684 17.7769C101.428 18.0681 101.296 18.4485 101.316 18.8361V22.1485C101.321 22.1838 101.317 22.2195 101.306 22.253C101.294 22.2866 101.275 22.3171 101.25 22.3422C101.225 22.3673 101.194 22.3864 101.161 22.3979C101.127 22.4094 101.091 22.4132 101.056 22.4088H99.5928C99.4223 22.4088 99.3415 22.319 99.3415 22.1485V17.9205C99.3523 17.8486 99.346 17.7751 99.3226 17.706C99.3002 17.637 99.2616 17.5741 99.2095 17.5227C99.1584 17.4713 99.0955 17.4326 99.0264 17.4097C98.9573 17.3868 98.8837 17.3804 98.8119 17.3909H98.5157C98.3182 17.3909 98.2194 17.3191 98.2194 17.1755V16.1163C98.2149 16.0507 98.2329 15.9856 98.2706 15.9317C98.3083 15.8778 98.3631 15.8384 98.4259 15.82C98.7365 15.7072 99.065 15.6525 99.3954 15.6585C99.7122 15.6314 100.031 15.6946 100.314 15.8408C100.596 15.9869 100.832 16.21 100.993 16.4843C101.296 16.1973 101.655 15.9758 102.047 15.8337C102.439 15.6916 102.857 15.632 103.273 15.6585C103.678 15.6387 104.081 15.7146 104.451 15.8799C104.821 16.0453 105.146 16.2953 105.401 16.61C105.698 16.2871 106.063 16.0343 106.47 15.8697C106.876 15.7051 107.314 15.6331 107.752 15.6585C108.144 15.6402 108.535 15.7033 108.901 15.8439C109.268 15.9845 109.601 16.1995 109.88 16.4753C110.153 16.763 110.364 17.1031 110.501 17.475C110.638 17.8468 110.699 18.2428 110.679 18.6387V20.3711C110.679 20.7122 110.831 20.8828 111.119 20.8828C111.258 20.8893 111.397 20.8742 111.532 20.8379C111.717 20.8379 111.816 20.9097 111.828 21.0533L111.909 22.1754Z" fill="#394149"/>
<path d="M6.65319 14.7085C7.31545 12.0467 8.84923 9.68296 11.0103 7.99371C13.1714 6.30442 15.8355 5.38672 18.5785 5.38672C21.3214 5.38672 23.9855 6.30442 26.1466 7.99371C28.3077 9.68296 29.8415 12.0467 30.5037 14.7085H29.4266C27.6094 14.6818 25.8296 15.2249 24.3369 16.2615C24.2507 16.3239 24.1608 16.3809 24.0676 16.432H23.9419C23.8487 16.3809 23.7588 16.3239 23.6726 16.2615C22.1667 15.2488 20.3932 14.708 18.5785 14.708C16.7638 14.708 14.9902 15.2488 13.4843 16.2615C13.3981 16.3239 13.3082 16.3809 13.215 16.432H13.0893C12.9962 16.3809 12.9062 16.3239 12.82 16.2615C11.3273 15.2249 9.54748 14.6818 7.73037 14.7085H6.65319ZM27.4876 20.3368C28.0406 19.9062 28.7259 19.6809 29.4266 19.6995H30.8718V16.818H29.4266C28.1925 16.8031 26.9867 17.1872 25.9886 17.9132C25.4269 18.3272 24.7475 18.5507 24.0496 18.5507C23.3518 18.5507 22.6724 18.3272 22.1107 17.9132C21.0873 17.2008 19.8703 16.8188 18.6234 16.8188C17.3764 16.8188 16.1594 17.2008 15.136 17.9132C14.5743 18.3272 13.8949 18.5507 13.1971 18.5507C12.4992 18.5507 11.8198 18.3272 11.2581 17.9132C10.2477 17.1779 9.0246 16.7933 7.77525 16.818H6.28516V19.6995H7.73037C8.431 19.6809 9.11634 19.9062 9.6693 20.3368C10.6908 21.0497 11.9065 21.4319 13.1522 21.4319C14.3978 21.4319 15.6135 21.0497 16.6351 20.3368C17.1887 19.9075 17.8735 19.6824 18.574 19.6995C19.2749 19.6794 19.9607 19.9049 20.5129 20.3368C21.5363 21.0493 22.7533 21.4311 24.0003 21.4311C25.2472 21.4311 26.4642 21.0493 27.4876 20.3368ZM27.4876 25.4893C28.0406 25.0587 28.7259 24.8334 29.4266 24.852H30.8718V21.9705H29.4266C28.1925 21.9556 26.9867 22.3397 25.9886 23.0657C25.4269 23.4797 24.7475 23.7032 24.0496 23.7032C23.3518 23.7032 22.6724 23.4797 22.1107 23.0657C21.0873 22.3533 19.8703 21.9714 18.6234 21.9714C17.3764 21.9714 16.1594 22.3533 15.136 23.0657C14.5743 23.4797 13.8949 23.7032 13.1971 23.7032C12.4992 23.7032 11.8198 23.4797 11.2581 23.0657C10.2477 22.3305 9.0246 21.9458 7.77525 21.9705H6.28516V24.852H7.73037C8.431 24.8334 9.11634 25.0587 9.6693 25.4893C10.6908 26.2022 11.9065 26.5844 13.1522 26.5844C14.3978 26.5844 15.6135 26.2022 16.6351 25.4893C17.1887 25.0601 17.8735 24.8349 18.574 24.852C19.2749 24.8319 19.9607 25.0574 20.5129 25.4893C21.5363 26.2018 22.7533 26.5836 24.0003 26.5836C25.2472 26.5836 26.4642 26.2018 27.4876 25.4893Z" fill="#394149"/>
</svg>
