<svg width="125" height="32" viewBox="0 0 125 32" fill="none" xmlns="http://www.w3.org/2000/svg">
<path d="M3.07812 29.1303H29.9311V2.27734H3.07812V29.1303ZM24.7625 13.1201H19.0883V7.44588H24.7625V13.1201ZM8.24561 7.44588H13.923V18.2875H24.7625V23.9617H8.24561V7.44588ZM47.4174 2.27734C44.7618 2.27734 42.1659 3.0648 39.958 4.54012C37.75 6.01544 36.0291 8.11236 35.0129 10.5657C33.9967 13.0191 33.7309 15.7187 34.2489 18.3231C34.767 20.9276 36.0457 23.32 37.9234 25.1977C39.8011 27.0755 42.1935 28.3542 44.798 28.8723C47.4025 29.3903 50.1021 29.1245 52.5555 28.1083C55.0089 27.0921 57.1057 25.3712 58.5811 23.1632C60.0564 20.9551 60.8439 18.3593 60.8439 15.7038C60.8397 12.1441 59.4237 8.73151 56.9067 6.21446C54.3896 3.69741 50.9771 2.2815 47.4174 2.27734ZM47.4174 23.9617C45.7841 23.9617 44.1875 23.4774 42.8295 22.57C41.4715 21.6626 40.413 20.373 39.788 18.864C39.163 17.3551 38.9995 15.6947 39.3181 14.0927C39.6367 12.4909 40.4233 11.0195 41.5781 9.86456C42.7331 8.70968 44.2045 7.92319 45.8063 7.60455C47.4082 7.28592 49.0686 7.44946 50.5776 8.07447C52.0864 8.69949 53.3762 9.75794 54.2836 11.116C55.191 12.4739 55.6753 14.0705 55.6753 15.7038C55.672 17.893 54.8008 19.9915 53.2529 21.5394C51.705 23.0874 49.6065 23.9584 47.4174 23.9617ZM108.89 2.27734C106.234 2.27714 103.639 3.06441 101.43 4.5396C99.2224 6.0148 97.5014 8.11165 96.4849 10.565C95.4686 13.0183 95.2025 15.718 95.7205 18.3225C96.2384 20.9271 97.5171 23.3196 99.3948 25.1974C101.272 27.0752 103.665 28.3541 106.27 28.8722C108.873 29.3903 111.573 29.1245 114.027 28.1084C116.48 27.0922 118.577 25.3713 120.052 23.1633C121.528 20.9552 122.316 18.3594 122.316 15.7038C122.311 12.1444 120.896 8.73184 118.379 6.21483C115.863 3.69781 112.45 2.28178 108.89 2.27734ZM108.89 23.9617C107.257 23.9619 105.66 23.4777 104.302 22.5705C102.944 21.6633 101.885 20.3736 101.26 18.8647C100.635 17.3558 100.471 15.6953 100.79 14.0934C101.108 12.4915 101.895 11.02 103.05 9.86494C104.204 8.70994 105.676 7.92334 107.278 7.60463C108.88 7.28591 110.54 7.44938 112.049 8.07438C113.558 8.69937 114.848 9.7578 115.756 11.1159C116.662 12.4739 117.147 14.0705 117.147 15.7038C117.144 17.8928 116.273 19.9911 114.725 21.539C113.177 23.0869 111.079 23.9582 108.89 23.9617ZM78.1533 2.27734C75.4977 2.27734 72.9018 3.0648 70.6939 4.54012C68.4859 6.01544 66.765 8.11236 65.7488 10.5657C64.7326 13.0191 64.4667 15.7187 64.9848 18.3231C65.5029 20.9276 66.7815 23.32 68.6593 25.1977C70.537 27.0755 72.9293 28.3542 75.5338 28.8723C78.1383 29.3903 80.8379 29.1245 83.2913 28.1083C85.7447 27.0921 87.8416 25.3712 89.3169 23.1632C90.7922 20.9551 91.5797 18.3593 91.5797 15.7038C91.5755 12.1441 90.1596 8.73151 87.6425 6.21446C85.1255 3.69741 81.7129 2.2815 78.1533 2.27734ZM78.1533 23.9617C76.6315 23.9625 75.1392 23.5428 73.841 22.7489C72.5428 21.955 71.4891 20.818 70.7964 19.4631C70.1038 18.1082 69.7988 16.5882 69.9154 15.0711C70.0321 13.5538 70.5655 12.0983 71.4572 10.8651C72.3488 9.63207 73.5639 8.66929 74.9681 8.08313C76.3724 7.49696 77.9113 7.31022 79.415 7.54349C80.9187 7.77677 82.3287 8.42099 83.4894 9.40506C84.6501 10.3891 85.5163 11.6748 85.9924 13.1201H78.1533V18.2875H85.9924C85.4471 19.9367 84.3964 21.3724 82.9893 22.3909C81.5823 23.4094 79.8903 23.9589 78.1533 23.9617Z" fill="#394149"/>
</svg>
