<svg width="180" height="32" viewBox="0 0 180 32" fill="none" xmlns="http://www.w3.org/2000/svg">
<g clip-path="url(#clip0_3434_33472)">
<path d="M26.9328 24.0734H36.2328L13.1947 1.03516H3.89453L26.9328 24.0734Z" fill="#7476ED"/>
<path d="M17.9727 1.03516L40.1811 23.2436V1.03516H34.1711V8.04677L27.1594 1.03516L17.9727 1.03516Z" fill="#E56F8C"/>
<path d="M0 1.80469V24.0716H6.00997V17.0599L13.0215 24.0716H22.2669L0 1.80469Z" fill="#64C2DB"/>
<path d="M54.6811 20.6089H60.066V23.7822H50.5703V6.90625H54.6811V20.6089Z" fill="#3A3B7B"/>
<path d="M67.4118 23.9747C66.0976 23.9747 64.9115 23.6942 63.8538 23.1332C62.812 22.5723 61.9867 21.771 61.3777 20.7293C60.7848 19.6875 60.4883 18.4695 60.4883 17.0752C60.4883 15.697 60.7927 14.4869 61.4018 13.4452C62.0108 12.3874 62.8441 11.5781 63.9019 11.0172C64.9597 10.4562 66.1456 10.1758 67.4598 10.1758C68.774 10.1758 69.9599 10.4562 71.0177 11.0172C72.0755 11.5781 72.9088 12.3874 73.5178 13.4452C74.1269 14.4869 74.4313 15.697 74.4313 17.0752C74.4313 18.4535 74.1189 19.6715 73.4938 20.7293C72.8848 21.771 72.0433 22.5723 70.9696 23.1332C69.9119 23.6942 68.7259 23.9747 67.4118 23.9747ZM67.4118 20.4168C68.1971 20.4168 68.8622 20.1283 69.407 19.5513C69.9679 18.9744 70.2484 18.1491 70.2484 17.0752C70.2484 16.0014 69.976 15.1761 69.4311 14.5991C68.9022 14.0222 68.2451 13.7337 67.4598 13.7337C66.6585 13.7337 65.9933 14.0222 65.4645 14.5991C64.9356 15.16 64.6712 15.9855 64.6712 17.0752C64.6712 18.1491 64.9276 18.9744 65.4405 19.5513C65.9694 20.1283 66.6265 20.4168 67.4118 20.4168Z" fill="#3A3B7B"/>
<path d="M80.988 10.1758C81.9336 10.1758 82.759 10.3681 83.4642 10.7527C84.1854 11.1374 84.7382 11.6422 85.1229 12.2672V10.3681H89.2337V23.7583C89.2337 24.9924 88.9853 26.1062 88.4885 27.0998C88.0077 28.1095 87.2624 28.9108 86.2528 29.5038C85.2591 30.0968 84.017 30.3933 82.5266 30.3933C80.5393 30.3933 78.9287 29.9205 77.6946 28.9749C76.4605 28.0454 75.7554 26.7793 75.5791 25.1766H79.6418C79.77 25.6895 80.0745 26.0901 80.5553 26.3786C81.0362 26.6831 81.6291 26.8354 82.3343 26.8354C83.1837 26.8354 83.8568 26.587 84.3537 26.0901C84.8664 25.6094 85.1229 24.8321 85.1229 23.7583V21.8591C84.7222 22.4841 84.1693 22.997 83.4642 23.3977C82.759 23.7823 81.9336 23.9747 80.988 23.9747C79.8823 23.9747 78.8805 23.6942 77.9831 23.1332C77.0855 22.5563 76.3724 21.747 75.8436 20.7052C75.3307 19.6475 75.0742 18.4295 75.0742 17.0512C75.0742 15.6729 75.3307 14.4629 75.8436 13.4212C76.3724 12.3795 77.0855 11.5781 77.9831 11.0172C78.8805 10.4562 79.8823 10.1758 80.988 10.1758ZM85.1229 17.0752C85.1229 16.0496 84.8344 15.2402 84.2575 14.6472C83.6966 14.0542 83.0074 13.7577 82.1901 13.7577C81.3727 13.7577 80.6756 14.0542 80.0986 14.6472C79.5376 15.2241 79.2572 16.0255 79.2572 17.0512C79.2572 18.0769 79.5376 18.8942 80.0986 19.5033C80.6756 20.0963 81.3727 20.3927 82.1901 20.3927C83.0074 20.3927 83.6966 20.0963 84.2575 19.5033C84.8344 18.9103 85.1229 18.1009 85.1229 17.0752Z" fill="#3A3B7B"/>
<path d="M97.5954 23.9747C96.2811 23.9747 95.0952 23.6942 94.0374 23.1332C92.9957 22.5723 92.1703 21.771 91.5614 20.7293C90.9684 19.6875 90.6719 18.4695 90.6719 17.0752C90.6719 15.697 90.9764 14.4869 91.5854 13.4452C92.1944 12.3874 93.0277 11.5781 94.0856 11.0172C95.1433 10.4562 96.3293 10.1758 97.6434 10.1758C98.9576 10.1758 100.144 10.4562 101.201 11.0172C102.259 11.5781 103.092 12.3874 103.701 13.4452C104.311 14.4869 104.615 15.697 104.615 17.0752C104.615 18.4535 104.302 19.6715 103.677 20.7293C103.068 21.771 102.227 22.5723 101.153 23.1332C100.095 23.6942 98.9096 23.9747 97.5954 23.9747ZM97.5954 20.4168C98.3806 20.4168 99.0458 20.1283 99.5906 19.5513C100.152 18.9744 100.432 18.1491 100.432 17.0752C100.432 16.0014 100.16 15.1761 99.6147 14.5991C99.0858 14.0222 98.4288 13.7337 97.6434 13.7337C96.8422 13.7337 96.177 14.0222 95.6481 14.5991C95.1192 15.16 94.8548 15.9855 94.8548 17.0752C94.8548 18.1491 95.1113 18.9744 95.624 19.5513C96.153 20.1283 96.8101 20.4168 97.5954 20.4168Z" fill="#3A3B7B"/>
<path d="M108.14 8.97473C107.418 8.97473 106.825 8.76637 106.361 8.34968C105.912 7.91696 105.688 7.3881 105.688 6.76305C105.688 6.12199 105.912 5.59311 106.361 5.17642C106.825 4.7437 107.418 4.52734 108.14 4.52734C108.845 4.52734 109.422 4.7437 109.87 5.17642C110.335 5.59311 110.568 6.12199 110.568 6.76305C110.568 7.3881 110.335 7.91696 109.87 8.34968C109.422 8.76637 108.845 8.97473 108.14 8.97473ZM110.183 10.369V23.7832H106.072V10.369H110.183Z" fill="#3A3B7B"/>
<path d="M116.552 12.2672C116.953 11.6422 117.506 11.1374 118.211 10.7527C118.916 10.3681 119.742 10.1758 120.687 10.1758C121.793 10.1758 122.795 10.4562 123.692 11.0172C124.59 11.5781 125.295 12.3795 125.808 13.4212C126.337 14.4629 126.601 15.6729 126.601 17.0512C126.601 18.4295 126.337 19.6475 125.808 20.7052C125.295 21.747 124.59 22.5563 123.692 23.1332C122.795 23.6942 121.793 23.9747 120.687 23.9747C119.758 23.9747 118.932 23.7823 118.211 23.3977C117.506 23.0131 116.953 22.5162 116.552 21.9072V30.177H112.441V10.3681H116.552V12.2672ZM122.418 17.0512C122.418 16.0255 122.13 15.2241 121.553 14.6472C120.992 14.0542 120.294 13.7577 119.461 13.7577C118.643 13.7577 117.947 14.0542 117.37 14.6472C116.809 15.2402 116.529 16.0496 116.529 17.0752C116.529 18.1009 116.809 18.9103 117.37 19.5033C117.947 20.0963 118.643 20.3927 119.461 20.3927C120.279 20.3927 120.976 20.0963 121.553 19.5033C122.13 18.8942 122.418 18.0769 122.418 17.0512Z" fill="#3A3B7B"/>
<path d="M133.494 23.9747C132.324 23.9747 131.283 23.7744 130.37 23.3737C129.456 22.973 128.734 22.4281 128.206 21.739C127.677 21.0338 127.38 20.2484 127.316 19.383H131.38C131.427 19.8478 131.644 20.2245 132.029 20.5129C132.412 20.8014 132.886 20.9457 133.447 20.9457C133.96 20.9457 134.352 20.8495 134.625 20.6572C134.913 20.4489 135.058 20.1843 135.058 19.8639C135.058 19.4792 134.856 19.1987 134.456 19.0224C134.055 18.8301 133.406 18.6218 132.509 18.3974C131.547 18.173 130.746 17.9406 130.105 17.7003C129.464 17.4438 128.911 17.0512 128.446 16.5223C127.982 15.9774 127.749 15.2482 127.749 14.3346C127.749 13.5654 127.957 12.8683 128.374 12.2432C128.806 11.6021 129.432 11.0973 130.249 10.7287C131.083 10.3601 132.068 10.1758 133.206 10.1758C134.889 10.1758 136.212 10.5925 137.172 11.4259C138.151 12.2592 138.711 13.3651 138.856 14.7434H135.058C134.992 14.2786 134.784 13.9099 134.432 13.6375C134.096 13.3651 133.647 13.2289 133.086 13.2289C132.606 13.2289 132.237 13.325 131.98 13.5173C131.724 13.6936 131.596 13.942 131.596 14.2625C131.596 14.6472 131.796 14.9357 132.196 15.1279C132.613 15.3203 133.255 15.5126 134.12 15.7049C135.113 15.9614 135.923 16.2178 136.548 16.4743C137.172 16.7146 137.718 17.1153 138.182 17.6762C138.664 18.2212 138.911 18.9583 138.928 19.8878C138.928 20.6732 138.703 21.3784 138.254 22.0034C137.821 22.6124 137.189 23.0932 136.356 23.4458C135.538 23.7983 134.584 23.9747 133.494 23.9747Z" fill="#3A3B7B"/>
<path d="M153.967 10.3672V23.7814H149.856V21.9544C149.44 22.5474 148.871 23.0282 148.15 23.3968C147.445 23.7494 146.66 23.9256 145.794 23.9256C144.768 23.9256 143.862 23.7014 143.077 23.2526C142.292 22.7878 141.683 22.1226 141.251 21.2572C140.818 20.3918 140.602 19.3742 140.602 18.2042V10.3672H144.688V17.6512C144.688 18.5488 144.921 19.2459 145.385 19.7427C145.85 20.2396 146.475 20.488 147.26 20.488C148.061 20.488 148.694 20.2396 149.159 19.7427C149.625 19.2459 149.856 18.5488 149.856 17.6512V10.3672H153.967Z" fill="#3A3B7B"/>
<path d="M173.315 10.2227C174.982 10.2227 176.304 10.7275 177.281 11.7371C178.276 12.7468 178.773 14.1492 178.773 15.9441V23.7811H174.685V16.497C174.685 15.6316 174.454 14.9666 173.988 14.5017C173.539 14.021 172.915 13.7805 172.113 13.7805C171.312 13.7805 170.679 14.021 170.214 14.5017C169.766 14.9666 169.541 15.6316 169.541 16.497V23.7811H165.454V16.497C165.454 15.6316 165.222 14.9666 164.757 14.5017C164.308 14.021 163.683 13.7805 162.882 13.7805C162.08 13.7805 161.448 14.021 160.982 14.5017C160.535 14.9666 160.31 15.6316 160.31 16.497V23.7811H156.199V10.3669H160.31V12.0497C160.726 11.4888 161.271 11.048 161.944 10.7275C162.618 10.3909 163.379 10.2227 164.228 10.2227C165.237 10.2227 166.135 10.439 166.921 10.8717C167.722 11.3045 168.347 11.9215 168.796 12.7228C169.261 11.9856 169.894 11.3846 170.695 10.9198C171.497 10.455 172.37 10.2227 173.315 10.2227Z" fill="#3A3B7B"/>
</g>
<defs>
<clipPath id="clip0_3434_33472">
<rect width="179.136" height="31.4069" fill="white"/>
</clipPath>
</defs>
</svg>
