<svg width="113" height="29" viewBox="0 0 113 29" fill="none" xmlns="http://www.w3.org/2000/svg">
<g clip-path="url(#clip0_3434_33434)">
<path d="M33.9883 19.6153H41.975V17.2097H36.8269V8.14844H33.9883V19.6153Z" fill="#1A1414"/>
<path d="M46.7064 18.0117C45.5677 18.0117 44.9743 17.0174 44.9743 15.5259C44.9743 14.0344 45.5677 13.024 46.7064 13.024C47.8451 13.024 48.4545 14.0344 48.4545 15.5259C48.4545 17.0174 47.8451 18.0117 46.7064 18.0117ZM46.7224 19.8721C49.3686 19.8721 51.1007 17.9957 51.1007 15.5259C51.1007 13.0561 49.3686 11.1797 46.7224 11.1797C44.0923 11.1797 42.3281 13.0561 42.3281 15.5259C42.3281 17.9957 44.0923 19.8721 46.7224 19.8721Z" fill="#1A1414"/>
<path d="M55.6819 22.4545C56.9008 22.4545 57.9753 22.1819 58.697 21.5404C59.3545 20.947 59.7875 20.0489 59.7875 18.814V11.4046H57.2857V12.2867H57.2536C56.7725 11.5971 56.0347 11.1641 54.9442 11.1641C52.9074 11.1641 51.4961 12.864 51.4961 15.2697C51.4961 17.7876 53.2121 19.1668 55.0564 19.1668C56.0508 19.1668 56.6762 18.7659 57.1574 18.2206H57.2215V19.0385C57.2215 20.0328 56.7564 20.6102 55.6498 20.6102C54.7838 20.6102 54.3508 20.2413 54.2064 19.8083H51.6725C51.9291 21.5243 53.4206 22.4545 55.6819 22.4545ZM55.6659 17.2263C54.6876 17.2263 54.0461 16.4244 54.0461 15.1895C54.0461 13.9386 54.6876 13.1367 55.6659 13.1367C56.7564 13.1367 57.3338 14.0669 57.3338 15.1735C57.3338 16.3282 56.8045 17.2263 55.6659 17.2263Z" fill="#1A1414"/>
<path d="M64.929 18.0117C63.7904 18.0117 63.197 17.0174 63.197 15.5259C63.197 14.0344 63.7904 13.024 64.929 13.024C66.0677 13.024 66.6771 14.0344 66.6771 15.5259C66.6771 17.0174 66.0677 18.0117 64.929 18.0117ZM64.9451 19.8721C67.5913 19.8721 69.3233 17.9957 69.3233 15.5259C69.3233 13.0561 67.5913 11.1797 64.9451 11.1797C62.3149 11.1797 60.5508 13.0561 60.5508 15.5259C60.5508 17.9957 62.3149 19.8721 64.9451 19.8721Z" fill="#1A1414"/>
<path d="M70.0859 19.6153H72.7001V11.4041H70.0859V19.6153ZM70.0859 10.2654H72.7001V8.14844H70.0859V10.2654Z" fill="#1A1414"/>
<path d="M73.8359 22.3262H76.4501V18.7659H76.4821C76.9953 19.4555 77.7491 19.8725 78.8076 19.8725C80.9566 19.8725 82.384 18.1725 82.384 15.5102C82.384 13.0405 81.0528 11.1641 78.8717 11.1641C77.7491 11.1641 76.9472 11.6612 76.3859 12.399H76.3378V11.4046H73.8359V22.3262ZM78.134 17.8517C77.0114 17.8517 76.3699 16.9376 76.3699 15.6065C76.3699 14.2754 76.9472 13.265 78.0859 13.265C79.2085 13.265 79.7378 14.1952 79.7378 15.6065C79.7378 17.0017 79.1283 17.8517 78.134 17.8517Z" fill="#1A1414"/>
<path d="M86.6418 19.8725C88.7908 19.8725 90.3785 18.9423 90.3785 17.1461C90.3785 15.0452 88.6786 14.6763 87.2352 14.4357C86.1927 14.2433 85.2626 14.1631 85.2626 13.5857C85.2626 13.0725 85.7597 12.832 86.4012 12.832C87.1229 12.832 87.6201 13.0565 87.7163 13.7942H90.122C89.9937 12.1744 88.7427 11.1641 86.4173 11.1641C84.4767 11.1641 82.873 12.0622 82.873 13.7942C82.873 15.7187 84.3965 16.1036 85.8239 16.3442C86.9144 16.5366 87.9088 16.6168 87.9088 17.3546C87.9088 17.8838 87.4116 18.1725 86.6258 18.1725C85.7597 18.1725 85.2144 17.7715 85.1182 16.9536H82.6484C82.7286 18.7659 84.2362 19.8725 86.6418 19.8725Z" fill="#1A1414"/>
<path d="M93.9297 19.8541C95.0684 19.8541 95.7901 19.4051 96.3835 18.6032H96.4316V19.6136H98.9335V11.4023H96.3193V15.9891C96.3193 16.9674 95.7741 17.641 94.876 17.641C94.042 17.641 93.6411 17.1438 93.6411 16.2457V11.4023H91.043V16.791C91.043 18.6193 92.0373 19.8541 93.9297 19.8541Z" fill="#1A1414"/>
<path d="M100.066 19.6159H102.681V15.0131C102.681 14.0348 103.162 13.3452 103.98 13.3452C104.765 13.3452 105.134 13.8584 105.134 14.7404V19.6159H107.748V15.0131C107.748 14.0348 108.213 13.3452 109.047 13.3452C109.833 13.3452 110.202 13.8584 110.202 14.7404V19.6159H112.816V14.2754C112.816 12.431 111.886 11.1641 110.026 11.1641C108.967 11.1641 108.085 11.6131 107.444 12.6074H107.412C106.995 11.7254 106.177 11.1641 105.102 11.1641C103.915 11.1641 103.13 11.7254 102.616 12.5754H102.568V11.4046H100.066V19.6159Z" fill="#1A1414"/>
<path fill-rule="evenodd" clip-rule="evenodd" d="M13.8215 0.644531C21.347 0.644531 27.4476 6.74514 27.4476 14.2706C27.4476 21.7962 21.347 27.8968 13.8215 27.8968C6.29594 27.8968 0.195312 21.7962 0.195312 14.2706C0.195312 6.74514 6.29594 0.644531 13.8215 0.644531ZM26.9246 14.2706C26.9246 7.03402 21.0581 1.1675 13.8215 1.1675C13.2377 1.1675 12.663 1.20567 12.0994 1.27965C12.4635 1.24782 12.832 1.23157 13.2043 1.23157C20.1193 1.23157 25.725 6.83729 25.725 13.7523C25.725 20.6672 20.1193 26.273 13.2043 26.273C6.65766 26.273 1.28453 21.2486 0.730676 14.8455C1.03155 21.8154 6.77737 27.3738 13.8215 27.3738C21.0581 27.3738 26.9246 21.5073 26.9246 14.2706ZM25.202 13.7523C25.202 7.1261 19.8305 1.75455 13.2043 1.75455C12.6663 1.75455 12.1365 1.78996 11.6172 1.85858C11.937 1.83168 12.2605 1.81795 12.5872 1.81795C18.8917 1.81795 24.0025 6.92877 24.0025 13.2332C24.0025 19.5377 18.8917 24.6485 12.5872 24.6485C6.62614 24.6485 1.73226 20.0793 1.21681 14.2522C1.47888 20.6465 6.74563 25.75 13.2043 25.75C19.8305 25.75 25.202 20.3784 25.202 13.7523ZM12.5872 2.34093C18.6028 2.34093 23.4795 7.21758 23.4795 13.2332C23.4795 19.2488 18.6028 24.1255 12.5872 24.1255C6.71095 24.1255 1.92147 19.4722 1.70273 13.6494C2.175 18.905 6.59154 23.0239 11.9701 23.0239C17.6637 23.0239 22.2793 18.4084 22.2793 12.7148C22.2793 7.02119 17.6637 2.40564 11.9701 2.40564C11.6756 2.40564 11.3839 2.418 11.0956 2.44221C11.5833 2.37543 12.0812 2.34093 12.5872 2.34093ZM21.7563 12.7148C21.7563 7.31006 17.3749 2.92862 11.9701 2.92862C11.5135 2.92862 11.0641 2.9599 10.6241 3.02043C10.8643 3.00162 11.1072 2.99205 11.3523 2.99205C16.4354 2.99205 20.5561 7.11267 20.5561 12.1958C20.5561 17.2788 16.4354 21.3995 11.3523 21.3995C6.56799 21.3995 2.63631 17.749 2.19066 13.0815C2.38346 18.3163 6.68809 22.501 11.9701 22.501C17.3749 22.501 21.7563 18.1196 21.7563 12.7148ZM11.3523 3.51502C16.1465 3.51502 20.033 7.40154 20.033 12.1958C20.033 16.99 16.1465 20.8765 11.3523 20.8765C6.6525 20.8765 2.82504 17.1416 2.67607 12.478C3.07843 16.5744 6.53305 19.775 10.7352 19.775C15.2078 19.775 18.8335 16.1492 18.8335 11.6767C18.8335 7.20415 15.2078 3.57843 10.7352 3.57843C10.5301 3.57843 10.3268 3.58605 10.1255 3.60103C10.5263 3.54434 10.9358 3.51502 11.3523 3.51502ZM18.3105 11.6767C18.3105 7.49296 14.9189 4.1014 10.7352 4.1014C10.3533 4.1014 9.978 4.12966 9.61128 4.18421C9.77867 4.17222 9.94767 4.16612 10.1181 4.16612C13.9798 4.16612 17.1103 7.29663 17.1103 11.1583C17.1103 15.02 13.9798 18.1505 10.1181 18.1505C6.4995 18.1505 3.52292 15.4017 3.16253 11.8782C3.26937 15.9688 6.61887 19.252 10.7352 19.252C14.9189 19.252 18.3105 15.8604 18.3105 11.6767ZM10.1181 4.6891C13.691 4.6891 16.5873 7.58544 16.5873 11.1583C16.5873 14.7312 13.691 17.6275 10.1181 17.6275C6.59072 17.6275 3.72272 14.8044 3.65029 11.2944C3.97614 14.2372 6.47129 16.526 9.50102 16.526C12.7522 16.526 15.3877 13.8904 15.3877 10.6393C15.3877 7.38811 12.7522 4.7525 9.50102 4.7525C9.37666 4.7525 9.25324 4.75636 9.13082 4.76396C9.45271 4.71466 9.78241 4.6891 10.1181 4.6891ZM14.8648 10.6393C14.8648 7.67692 12.4634 5.27548 9.50102 5.27548C9.20352 5.27548 8.9117 5.2997 8.62737 5.34627C8.7121 5.3418 8.79737 5.33955 8.88324 5.33955C11.5238 5.33955 13.6645 7.48019 13.6645 10.1208C13.6645 12.7615 11.5238 14.9022 8.88324 14.9022C6.44154 14.9022 4.42733 13.0719 4.13767 10.7085C4.17475 13.639 6.5618 16.003 9.50102 16.003C12.4634 16.003 14.8648 13.6016 14.8648 10.6393ZM8.88324 5.86252C11.235 5.86252 13.1415 7.769 13.1415 10.1208C13.1415 12.4727 11.235 14.3792 8.88324 14.3792C6.5314 14.3792 4.62488 12.4727 4.62488 10.1208C4.62488 10.1152 4.62489 10.1096 4.62491 10.1039C4.86977 11.8961 6.40667 13.277 8.26612 13.277C10.2959 13.277 11.9413 11.6316 11.9413 9.60183C11.9413 7.57201 10.2959 5.92659 8.26612 5.92659C8.22022 5.92659 8.17451 5.92743 8.129 5.9291C8.37378 5.88535 8.62583 5.86252 8.88324 5.86252ZM11.4183 9.60183C11.4183 7.86089 10.0071 6.44957 8.26612 6.44957C6.52518 6.44957 5.11387 7.86089 5.11387 9.60183C5.11387 11.3427 6.52518 12.754 8.26612 12.754C10.0071 12.754 11.4183 11.3427 11.4183 9.60183Z" fill="#1A1414"/>
</g>
<defs>
<clipPath id="clip0_3434_33434">
<rect width="112.931" height="28.0658" fill="white"/>
</clipPath>
</defs>
</svg>
