<svg width="128" height="32" viewBox="0 0 128 32" fill="none" xmlns="http://www.w3.org/2000/svg">
<g clip-path="url(#clip0_3434_33445)">
<path d="M37.2539 22.0551H46.4094V19.2974H40.508V8.91016H37.2539V22.0551Z" fill="#2F234F"/>
<path d="M51.8315 20.2185C50.5262 20.2185 49.8459 19.0787 49.8459 17.3689C49.8459 15.6592 50.5262 14.5009 51.8315 14.5009C53.1368 14.5009 53.8354 15.6592 53.8354 17.3689C53.8354 19.0787 53.1368 20.2185 51.8315 20.2185ZM51.8499 22.3511C54.8833 22.3511 56.8688 20.2001 56.8688 17.3689C56.8688 14.5377 54.8833 12.3867 51.8499 12.3867C48.8348 12.3867 46.8125 14.5377 46.8125 17.3689C46.8125 20.2001 48.8348 22.3511 51.8499 22.3511Z" fill="#2F234F"/>
<path d="M62.1187 25.3099C63.5159 25.3099 64.7477 24.9974 65.575 24.262C66.3287 23.5818 66.8251 22.5522 66.8251 21.1366V12.643H63.9571V13.6541H63.9204C63.3688 12.8636 62.5231 12.3672 61.273 12.3672C58.9382 12.3672 57.3203 14.3159 57.3203 17.0736C57.3203 19.96 59.2875 21.5411 61.4017 21.5411C62.5415 21.5411 63.2585 21.0815 63.8101 20.4564H63.8836V21.394C63.8836 22.5338 63.3504 23.1957 62.0819 23.1957C61.0891 23.1957 60.5928 22.7728 60.4273 22.2765H57.5225C57.8167 24.2436 59.5265 25.3099 62.1187 25.3099ZM62.1003 19.3165C60.9788 19.3165 60.2435 18.3973 60.2435 16.9817C60.2435 15.5477 60.9788 14.6285 62.1003 14.6285C63.3504 14.6285 64.0123 15.6948 64.0123 16.9633C64.0123 18.287 63.4056 19.3165 62.1003 19.3165Z" fill="#2F234F"/>
<path d="M72.7221 20.2185C71.4168 20.2185 70.7366 19.0787 70.7366 17.3689C70.7366 15.6592 71.4168 14.5009 72.7221 14.5009C74.0274 14.5009 74.726 15.6592 74.726 17.3689C74.726 19.0787 74.0274 20.2185 72.7221 20.2185ZM72.7405 22.3511C75.7739 22.3511 77.7597 20.2001 77.7597 17.3689C77.7597 14.5377 75.7739 12.3867 72.7405 12.3867C69.7254 12.3867 67.7031 14.5377 67.7031 17.3689C67.7031 20.2001 69.7254 22.3511 72.7405 22.3511Z" fill="#2F234F"/>
<path d="M78.6367 22.0551H81.6334V12.6422H78.6367V22.0551ZM78.6367 11.3369H81.6334V8.91016H78.6367V11.3369Z" fill="#2F234F"/>
<path d="M82.9336 25.1628H85.9303V21.0815H85.967C86.5553 21.872 87.4194 22.35 88.6328 22.35C91.0963 22.35 92.7326 20.4012 92.7326 17.3494C92.7326 14.5182 91.2066 12.3672 88.7063 12.3672C87.4194 12.3672 86.5002 12.9371 85.8567 13.7828H85.8016V12.643H82.9336V25.1628ZM87.8606 20.0335C86.5737 20.0335 85.8384 18.9856 85.8384 17.4597C85.8384 15.9338 86.5002 14.7756 87.8055 14.7756C89.0924 14.7756 89.6991 15.8419 89.6991 17.4597C89.6991 19.0592 89.0005 20.0335 87.8606 20.0335Z" fill="#2F234F"/>
<path d="M97.6129 22.35C100.076 22.35 101.897 21.2837 101.897 19.2246C101.897 16.8162 99.9477 16.3934 98.2931 16.1176C97.0981 15.897 96.0318 15.8051 96.0318 15.1433C96.0318 14.5549 96.6018 14.2792 97.3371 14.2792C98.1644 14.2792 98.7344 14.5366 98.8447 15.3823H101.602C101.455 13.5254 100.021 12.3672 97.3555 12.3672C95.131 12.3672 93.2925 13.3967 93.2925 15.3823C93.2925 17.5884 95.0391 18.0296 96.6753 18.3054C97.9254 18.526 99.0653 18.6179 99.0653 19.4636C99.0653 20.0703 98.4954 20.4012 97.5945 20.4012C96.6018 20.4012 95.9767 19.9416 95.8664 19.004H93.0352C93.1271 21.0815 94.8552 22.35 97.6129 22.35Z" fill="#2F234F"/>
<path d="M105.965 22.3332C107.271 22.3332 108.098 21.8184 108.778 20.8992H108.833V22.0574H111.701V12.6445H108.705V17.9025C108.705 19.024 108.08 19.7961 107.05 19.7961C106.094 19.7961 105.635 19.2262 105.635 18.1967V12.6445H102.656V18.8217C102.656 20.9176 103.796 22.3332 105.965 22.3332Z" fill="#2F234F"/>
<path d="M113.004 22.0558H116.001V16.7795C116.001 15.658 116.552 14.8675 117.49 14.8675C118.391 14.8675 118.813 15.4558 118.813 16.4669V22.0558H121.81V16.7795C121.81 15.658 122.343 14.8675 123.299 14.8675C124.2 14.8675 124.623 15.4558 124.623 16.4669V22.0558H127.62V15.9338C127.62 13.8196 126.553 12.3672 124.421 12.3672C123.207 12.3672 122.196 12.882 121.461 14.0218H121.424C120.946 13.0106 120.008 12.3672 118.777 12.3672C117.416 12.3672 116.515 13.0106 115.927 13.985H115.872V12.643H113.004V22.0558Z" fill="#2F234F"/>
<path fill-rule="evenodd" clip-rule="evenodd" d="M6.62971 2.98261C5.53379 3.74891 4.54279 4.65492 3.68251 5.67482C7.19801 5.34844 11.6643 5.88137 16.8497 8.47408C22.387 11.2426 26.8458 11.3362 29.949 10.7377C29.6674 9.88517 29.3129 9.06583 28.893 8.28694C25.3407 8.6616 20.7867 8.16568 15.4794 5.5121C12.1092 3.827 9.13845 3.13286 6.62971 2.98261ZM26.8179 5.33336C24.0127 2.19907 19.936 0.226562 15.3985 0.226562C14.066 0.226562 12.7732 0.396701 11.5406 0.716419C13.2099 1.1719 14.9833 1.83826 16.8497 2.77149C20.7354 4.71432 24.0901 5.33988 26.8179 5.33336ZM30.6124 13.7301C26.8635 14.4703 21.6867 14.3183 15.4794 11.2147C9.67636 8.31314 5.0576 8.34968 1.94255 9.04193C1.78176 9.07763 1.62476 9.11516 1.47154 9.15423C1.0637 10.0412 0.738156 10.9739 0.504571 11.9425C0.754052 11.8758 1.01185 11.8125 1.27784 11.7533C5.05694 10.9136 10.3965 10.95 16.8497 14.1767C22.6529 17.0782 27.2716 17.0417 30.3867 16.3494C30.4934 16.3257 30.5986 16.3012 30.702 16.2759C30.7133 16.0344 30.719 15.7914 30.719 15.547C30.719 14.9323 30.6828 14.326 30.6124 13.7301ZM30.2018 19.5091C26.4892 20.1581 21.4631 19.909 15.4794 16.9173C9.67636 14.0157 5.0576 14.0523 1.94255 14.7445C1.2511 14.8981 0.629078 15.0852 0.0803694 15.2828C0.0788734 15.3707 0.078125 15.4587 0.078125 15.547C0.078125 24.0082 6.93731 30.8674 15.3985 30.8674C22.4897 30.8674 28.4556 26.0499 30.2018 19.5091Z" fill="#7F57F1"/>
</g>
<defs>
<clipPath id="clip0_3434_33445">
<rect width="127.926" height="31.4069" fill="white"/>
</clipPath>
</defs>
</svg>
