<svg width="114" height="28" viewBox="0 0 114 28" fill="none" xmlns="http://www.w3.org/2000/svg">
<g clip-path="url(#clip0_3434_33423)">
<path d="M34.6562 18.8028H42.643V16.3972H37.4949V7.33594H34.6562V18.8028Z" fill="#340E0E"/>
<path d="M47.3744 17.1992C46.2357 17.1992 45.6423 16.2049 45.6423 14.7134C45.6423 13.2219 46.2357 12.2115 47.3744 12.2115C48.513 12.2115 49.1224 13.2219 49.1224 14.7134C49.1224 16.2049 48.513 17.1992 47.3744 17.1992ZM47.3904 19.0596C50.0366 19.0596 51.7686 17.1832 51.7686 14.7134C51.7686 12.2436 50.0366 10.3672 47.3904 10.3672C44.7602 10.3672 42.9961 12.2436 42.9961 14.7134C42.9961 17.1832 44.7602 19.0596 47.3904 19.0596Z" fill="#340E0E"/>
<path d="M56.3499 21.642C57.5687 21.642 58.6432 21.3694 59.3649 20.7279C60.0225 20.1345 60.4555 19.2364 60.4555 18.0015V10.5921H57.9536V11.4742H57.9216C57.4404 10.7846 56.7027 10.3516 55.6121 10.3516C53.5754 10.3516 52.1641 12.0515 52.1641 14.4572C52.1641 16.9751 53.8801 18.3543 55.7244 18.3543C56.7187 18.3543 57.3442 17.9534 57.8253 17.4081H57.8895V18.226C57.8895 19.2203 57.4244 19.7977 56.3178 19.7977C55.4518 19.7977 55.0188 19.4288 54.8744 18.9958H52.3405C52.5971 20.7118 54.0886 21.642 56.3499 21.642ZM56.3338 16.4138C55.3555 16.4138 54.714 15.6119 54.714 14.377C54.714 13.1261 55.3555 12.3242 56.3338 12.3242C57.4244 12.3242 58.0017 13.2544 58.0017 14.361C58.0017 15.5157 57.4725 16.4138 56.3338 16.4138Z" fill="#340E0E"/>
<path d="M65.597 17.1992C64.4583 17.1992 63.8649 16.2049 63.8649 14.7134C63.8649 13.2219 64.4583 12.2115 65.597 12.2115C66.7357 12.2115 67.3451 13.2219 67.3451 14.7134C67.3451 16.2049 66.7357 17.1992 65.597 17.1992ZM65.613 19.0596C68.2592 19.0596 69.9913 17.1832 69.9913 14.7134C69.9913 12.2436 68.2592 10.3672 65.613 10.3672C62.9829 10.3672 61.2188 12.2436 61.2188 14.7134C61.2188 17.1832 62.9829 19.0596 65.613 19.0596Z" fill="#340E0E"/>
<path d="M70.7539 18.8028H73.368V10.5916H70.7539V18.8028ZM70.7539 9.4529H73.368V7.33594H70.7539V9.4529Z" fill="#340E0E"/>
<path d="M74.5039 21.5137H77.118V17.9534H77.1501C77.6633 18.643 78.4171 19.06 79.4756 19.06C81.6246 19.06 83.0519 17.36 83.0519 14.6977C83.0519 12.228 81.7208 10.3516 79.5397 10.3516C78.4171 10.3516 77.6152 10.8487 77.0539 11.5865H77.0058V10.5921H74.5039V21.5137ZM78.802 17.0392C77.6793 17.0392 77.0378 16.1251 77.0378 14.794C77.0378 13.4629 77.6152 12.4525 78.7539 12.4525C79.8765 12.4525 80.4057 13.3827 80.4057 14.794C80.4057 16.1892 79.7963 17.0392 78.802 17.0392Z" fill="#340E0E"/>
<path d="M87.3098 19.06C89.4588 19.06 91.0465 18.1298 91.0465 16.3336C91.0465 14.2327 89.3465 13.8638 87.9032 13.6232C86.8607 13.4308 85.9305 13.3506 85.9305 12.7732C85.9305 12.26 86.4277 12.0195 87.0692 12.0195C87.7909 12.0195 88.2881 12.244 88.3843 12.9817H90.7899C90.6616 11.3619 89.4107 10.3516 87.0852 10.3516C85.1447 10.3516 83.5409 11.2497 83.5409 12.9817C83.5409 14.9062 85.0645 15.2911 86.4918 15.5317C87.5824 15.7242 88.5767 15.8043 88.5767 16.5421C88.5767 17.0713 88.0796 17.36 87.2937 17.36C86.4277 17.36 85.8824 16.959 85.7862 16.1411H83.3164C83.3966 17.9534 84.9041 19.06 87.3098 19.06Z" fill="#340E0E"/>
<path d="M94.5977 19.0416C95.7364 19.0416 96.4581 18.5926 97.0515 17.7907H97.0996V18.8011H99.6014V10.5898H96.9873V15.1766C96.9873 16.1549 96.442 16.8285 95.5439 16.8285C94.71 16.8285 94.309 16.3313 94.309 15.4332V10.5898H91.7109V15.9785C91.7109 17.8068 92.7053 19.0416 94.5977 19.0416Z" fill="#340E0E"/>
<path d="M100.734 18.8034H103.349V14.2006C103.349 13.2223 103.83 12.5327 104.648 12.5327C105.433 12.5327 105.802 13.0459 105.802 13.9279V18.8034H108.416V14.2006C108.416 13.2223 108.881 12.5327 109.715 12.5327C110.501 12.5327 110.87 13.0459 110.87 13.9279V18.8034H113.484V13.4629C113.484 11.6185 112.554 10.3516 110.694 10.3516C109.635 10.3516 108.753 10.8006 108.112 11.7949H108.08C107.663 10.9129 106.845 10.3516 105.77 10.3516C104.583 10.3516 103.798 10.9129 103.284 11.7629H103.236V10.5921H100.734V18.8034Z" fill="#340E0E"/>
<path fill-rule="evenodd" clip-rule="evenodd" d="M13.8217 26.823C21.2028 26.823 27.1863 20.8395 27.1863 13.4584C27.1863 6.07731 21.2028 0.09375 13.8217 0.09375C6.44058 0.09375 0.457031 6.07731 0.457031 13.4584C0.457031 20.8395 6.44058 26.823 13.8217 26.823ZM17.991 6.31956C18.1939 5.59868 17.4944 5.1724 16.8555 5.62758L7.93664 11.9813C7.24374 12.4749 7.35273 13.4584 8.10035 13.4584H10.4489V13.4402H15.0262L11.2966 14.7562L9.65239 20.5972C9.44945 21.3181 10.149 21.7444 10.7879 21.2892L19.7067 14.9355C20.3996 14.4419 20.2906 13.4584 19.543 13.4584H15.9815L17.991 6.31956Z" fill="#F15757"/>
</g>
<defs>
<clipPath id="clip0_3434_33423">
<rect width="113.6" height="27.3975" fill="white"/>
</clipPath>
</defs>
</svg>
